<svg id="Layer_1" data-name="Layer 1" xmlns="http://www.w3.org/2000/svg" xmlns:xlink="http://www.w3.org/1999/xlink" viewBox="0 0 2310.97 1188.6"><defs><style>.cls-1,.cls-12,.cls-13,.cls-14,.cls-16,.cls-17,.cls-18,.cls-3,.cls-4,.cls-5{fill:none;}.cls-2{opacity:0.12;}.cls-12,.cls-16,.cls-3{stroke:#a5d8ff;}.cls-12,.cls-13,.cls-14,.cls-16,.cls-17,.cls-18,.cls-3,.cls-4,.cls-5{stroke-miterlimit:10;}.cls-3{strokeWidth:9.53px;}.cls-13,.cls-17,.cls-4{stroke:#c28cae;}.cls-4{strokeWidth:9.84px;}.cls-14,.cls-18,.cls-5{stroke:#f7c2a3;}.cls-5{strokeWidth:10.32px;}.cls-6{opacity:0.53;}.cls-7{fill:#fd5070;}.cls-8{fill:#fff;}.cls-9{opacity:0.49;}.cls-10{fill:#f7c2a3;}.cls-11{clip-path:url(#clip-path);}.cls-12{strokeWidth:7.94px;}.cls-13{strokeWidth:8.29px;}.cls-14{strokeWidth:8.48px;}.cls-15{clip-path:url(#clip-path-2);}.cls-16{strokeWidth:5.95px;}.cls-17{strokeWidth:6.2px;}.cls-18{strokeWidth:4.19px;}</style><clipPath id="clip-path"><rect class="cls-1" x="2917.01" y="133.55" width="797.13" height="1045.84"/></clipPath><clipPath id="clip-path-2"><rect class="cls-1" x="2426.22" y="97.71" width="393.36" height="693.94"/></clipPath></defs><g class="cls-2"><path class="cls-3" d="M-408.4,905.92C432.62,201,655.65,1089.67,1220.06,558.86S2359.73,347,2359.73,347"/><path class="cls-4" d="M-517.38,828.52c175.53-146.85,447.25-324,787.43-334.3,224.44-6.81,275.66,65.17,730.44,167.15,489,109.66,770.6,168.81,1036.09,32.35,186.58-95.9,299.12-254.45,362.63-366.65"/><path class="cls-5" d="M-703.47,531.63C-384.35,361.93,9.34,229.51,378.92,347.46,818.21,487.65,906,880.27,1331,992.06c235.37,61.92,571.61,37,1048.4-276.26"/><g class="cls-6"><path class="cls-7" d="M1324.92,637.56a305.29,305.29,0,0,1-41.23-16.18c-12.33-5.94-20.5-11.07-16.23-11.46l-4-4.41c10.34,4.65,37,16,55.33,23.47l6.46,2.73c2,.83,3.82,1.62,5.42,2.34s3,1.4,4.08,2a15.79,15.79,0,0,1,2.45,1.49C1339.31,639.18,1336.28,639.68,1324.92,637.56Z"/><path class="cls-8" d="M1325,656.8c-10.67-4.35-11.69-5.5-9.58-5.39s7.42,1.18,9.54,1.12c4.93,1.8,9.91,3.34,14.86,5l7.48,2.29L1351,661l3.76,1c2.16,1.08,2.19,1.55.8,1.59a41.11,41.11,0,0,1-7.67-1C1341,661.23,1331.37,658.67,1325,656.8Z"/><path class="cls-7" d="M1299.31,688.66l4.48,2.13,4.55,2.07c-4.58-2-10.14-4.48-15.73-6.73s-11.07-4.49-15.39-6.21c0-1.09,4.36-.45,11,1.33,1.65.44,3.43,1,5.33,1.56s3.92,1.21,6,1.92,4.22,1.47,6.43,2.27,4.47,1.63,6.72,2.52c-2.21,0-7.86-1.4-11.73-2.36S1294.84,686,1299.31,688.66Z"/><path class="cls-7" d="M884.62,470.71c-4.41,1.37-.54,7.23,8.48,15.37s23.17,18.66,39.53,29.3l-17.46,3.28c-12.24-8.24-31.84-17.77-53.56-27.2s-45.62-18.6-66.5-26.41c-8.38-2.07,1,2.39,7.21,5.71,3.11,1.63,5.42,3.05,4.36,3.12s-5.49-1.11-15.88-4.51c-4.1-3.1.15-4.25-8.21-8.36l-3.38-.95-3.13-.75c-2-.46-3.8-.83-5.47-1.15-3.34-.63-6.12-1-8.62-1.28-5-.54-9-.62-14.21-1.31-2.63-.32-5.55-.89-9.16-1.56s-7.86-1.58-13-2.88-11.27-3-18.61-5.17c-3.65-1.15-7.69-2.18-12.05-3.41s-9.09-2.56-14.2-4.05l-13.13-6c-4.41-1.9-8.86-3.73-13.3-5.6-35.78-8.61-72.59-14.46-109.57-19-9.27-1-18.52-2.13-27.8-3L489,402.59l-7-.56c-2.33-.16-4.66-.26-7-.39l-14-.74-13.93-.74-3.48-.18-3.49-.1-7-.19-27.81-.79-27.73-.19c-9.21-.19-18.42.08-27.59.14s-18.32,0-27.44.39l-27.25.63-27.05.95-13.44.42-13.37.59-26.57,1c-6.16,1.82-15.29,3.46-26.2,5l-8.5,1.14-9.17,1.21-19.48,2.38c-13.33,1.62-27.16,3.29-40.26,5.21S86,421.85,75.5,424.27l-1.45-2.85C62.22,425.77,46,428.24,29.13,431S-5.15,437-19.07,441.83c-4.29,1-8.65,1.87-12.93,2.92s-8.53,2.2-12.76,3.36c-1.38-.09-1.37-.65-.32-1.55a35.18,35.18,0,0,1,6-3.46c2.84-1.36,6.28-3.06,10.18-4.55l6-2.38,3.06-1.22c1-.39,2.07-.75,3.1-1.12,4.14-1.47,8.14-3,11.69-4.32A92.06,92.06,0,0,0,3.73,426c4.29-2.07,4.93-3.52-1.48-3.73a206,206,0,0,0-39.2,11.4q-4.39,1.83-8.62,3.69l-2.12.93-2,1-4,2c-2.69,1.29-5.29,2.77-7.88,4.18-1.29.71-2.58,1.39-3.85,2.13l-3.79,2.23c-20.16,11.88-38.47,24.92-61,36.92-10.42,6.65-17.76,11.86-23.32,16s-9.34,7.39-12.58,10.33-6,5.62-9.35,8.78-7.56,6.85-13.45,11.82c-4.49,7.22,9.79-3.61,9.34,1.19-22,17-39.19,29.47-53.78,39.62-3.65,2.53-7.15,4.9-10.53,7.15l-9.8,6.46c-6.3,4.14-12.29,7.92-18.2,11.64s-11.64,7.53-17.6,11.5c-3,2-6,4-9.09,6.2s-6.21,4.48-9.45,6.91-6.6,5-10.09,7.73-7,5.75-10.79,8.92-7.65,6.59-11.75,10.25-8.29,7.69-12.75,12c-.22,1.08-3.73,5.55-8,10.9s-9.06,11.72-12.19,16.37c-6.24,9.34-5.46,12,22.26-11.87l11.61-13c1.95-2.17,3.87-4.36,5.83-6.5l5.91-6.43,9.92-6.67c3.3-2.23,6.61-4.45,10-6.6l-4,3.5-4.21,3.84-9,8.21c-3.06,2.82-6.18,5.64-9.16,8.47s-5.85,5.62-8.52,8.25c-10.76,10.46-18,18.67-14.76,17.95-4.18,2-9.28,5.67-14.92,10.36s-11.7,10.6-18,16.92l-4.72,4.83-4.67,5c-3.12,3.38-6.23,6.82-9.29,10.24-6.15,6.8-11.9,13.7-17.16,19.88l-7.4,8.71-6.21,7.39a87.71,87.71,0,0,1-8.11,8.77c-3.15,2.58-1.38-2.09,8.19-18.77,8.43-7.85,15.35-14.29,21.2-20s10.79-10.52,15.14-15.22c2.18-2.35,4.23-4.64,6.21-7s4-4.6,5.91-7c3.91-4.8,7.84-10,12.33-16-37.5,35.94-72.27,70.4-104.44,104.29l-11.9,12.71c-3.95,4.21-7.88,8.39-11.7,12.63-7.67,8.45-15.3,16.74-22.69,25.16-14.84,16.76-29.07,33.38-42.6,50l-5.89,11.44-5.79,11.47c-5.07-1.73-33.73,29-58.48,61.72-4.7,7.49-10.24,15.91-14,22s-5.68,10-3.14,8.48c-.46,2.08,4.52-4.58,12-14.54,3.68-5,8.1-10.77,12.62-16.77s9.36-12.11,13.89-17.8,8.86-10.89,12.52-15a76.56,76.56,0,0,1,8.36-8.48c3.55-2.68,2.38,1.42-6.84,17.32-14.63,18.63-29.16,37.73-43.07,56.81s-27.22,38.13-39.57,56.58c-6.82,10.22-13.63,19.07-19.93,27.5s-12.15,16.33-17.26,24A187.94,187.94,0,0,0-740,1149.47a102.74,102.74,0,0,0-7.45,20.15c.64-9.44,3.28-18.5,6.71-27.11a232.58,232.58,0,0,1,12.25-25.18c4.57-8.32,9.49-16.74,14.54-25.91,1.26-2.3,2.52-4.63,3.79-7s2.53-4.88,3.79-7.42,2.47-5.21,3.7-7.89,2.33-5.3,3.5-8.06c19.27-35.25,41.66-69.77,65.78-103.46s50.17-66.46,76.68-98.61l10-12,10-12,20.12-23.73,20.26-23.42L-476,764.7c27.15-30.57,54.38-60.24,81-89,3.32-.75,12.69-8.06,20.41-13.77s13.94-9.66,10.64-4.13c12.15-8.2,39.93-37,51.47-40.23l8.23-7.84c2.78-2.6,5.61-5.17,8.45-7.76l8.57-7.79c2.86-2.61,5.75-5.22,8.71-7.76L-260.68,571l18.36-15.21c3.06-2.56,6.2-5,9.34-7.53l9.43-7.46c3.16-2.48,6.28-5,9.49-7.43l9.62-7.29c12.78-9.75,25.85-19.33,38.84-28.68,26-18.65,52.31-36.21,78.9-50.35a343,343,0,0,1,39.94-18.26c13.3-5.21,26.67-9.22,39.61-12.86-3.93-.13-5.9-.44-6.33-1.14s.71-1.72,3.08-2.91A98.22,98.22,0,0,1,0,407.79c2.22-.8,4.68-1.51,7.31-2.27l8.31-2.35c2.92-.79,6-1.49,9.09-2.26s6.3-1.56,9.54-2.22l9.72-2.1c3.23-.72,6.47-1.29,9.63-1.94l17.76-3.53C76.78,390,81.55,389,85.27,388c14.51,0,33.94-1.72,54.33-3.7s41.69-4.44,59.78-6c1.93-.94,8.49-2,13.88-3.14s9.61-2.1,6.78-3.2l-9.32,1c-2.88.3-5.57.54-8.14.73-5.12.39-9.73.61-14.38.77-9.3.29-18.67.45-32.47,1.31,5.33-3.82,20-5.21,38.69-5.8,18.61-.79,41-.38,61.56-1.5-7.09,1.61-14.16,3.34-21.22,5q6.39-.4,13-.69l6.57-.27,6.65-.09c8.89-.09,17.93-.07,27,0,4.55,0,9.13.18,13.71.34l13.76.49,13.77.5c4.59.18,9.17.51,13.73.74,9.13.51,18.19.93,27.13,1.3,8.94.56,17.75,1,26.38,1.28l12.81.34q6.33.23,12.49.31c8.22.09,16.21,0,23.91-.46l-25.93-4.43c-4.33-.73-8.67-1.5-13-2.19l-13.05-1.88c4.79-.07,9.64-.11,14.54-.07s9.87.32,14.87.53,10,.46,15.11.73l7.62.43,7.64.67c10.2.9,20.46,1.88,30.66,2.88l30.26,3.81,7.44.91,7.36,1.1,14.46,2.1q7.14,1,14.09,1.9c2.31.26,4.59.67,6.86,1l6.73,1c8.89,1.28,17.44,2.36,25.56,3.16,8.09,1,15.73,1.79,22.87,2.17-6.22-1.51-13-3-20-4.49s-14.51-2.53-22-3.77l-11.23-1.81-5.59-.89c-1.86-.27-3.72-.49-5.57-.73l-21.41-2.83-9.87-1.4c-3.16-.47-6.21-.78-9.09-1.18-5.76-.77-10.87-1.55-15.09-2.38-8.44-1.66-13.34-3.48-12.78-5.58,1.66-2.13,17.37-1.6,36.18.06,18.75,2.24,40.59,5.44,54.37,8.91,7.47,1.77,14.85,3.4,22.14,4.95q10.88,2.64,21.49,5l10.57,2.26,5.25,1.09,5.19,1.21q10.34,2.4,20.5,4.6c13.59,2.73,26.74,6.13,39.8,9.05l9.76,2.22c3.25.73,6.43,1.64,9.63,2.44l19.07,5,9.46,2.46c1.58.39,3.14.86,4.69,1.33l4.66,1.4q9.3,2.81,18.53,5.67c6.15,1.94,12.3,3.79,18.36,6,3,1.08,6.08,2.14,9.09,3.28l9,3.48A478.08,478.08,0,0,1,884.62,470.71Z"/><path class="cls-7" d="M733.7,398c-6.12-1.81-11.68-3.43-16.76-4.8s-9.73-2.31-13.93-3.23c-8.38-1.84-15-3.08-20.56-3.94l-3.92-.57c-1.25-.13-2.44-.23-3.57-.33-2.27-.18-4.31-.3-6.2-.37-3.79-.15-7-.13-10.12-.11s-6.26,0-9.88-.12c-1.82-.08-3.76-.2-5.91-.39l-7.12-.72c-5.27-.54-11.62-1.39-19.62-2.73-4-.67-8.42-1.46-13.32-2.39-2.45-.5-5-.9-7.75-1.35l-8.55-1.46c6.39-1.29-1.94-4.8-16-8.69-7-2.05-15.46-3.74-24.17-5.39-4.35-.83-8.78-1.61-13.12-2.34s-8.59-1.45-12.64-1.86c-7.9-.14-16.14-.6-24.49-1.25-4.18-.3-8.39-.76-12.6-1.05s-8.43-.62-12.61-1l-24.5-2.12c-7.89-.5-15.41-.95-22.31-1.25-18.77-1.84-16-7.3,21.05-5.68,11.36,1.88,23.07,3.63,35.07,5,6,.62,12.05,1.53,18.17,2.25s12.28,1.45,18.5,2.1c3.11.35,6.24.61,9.36,1l9.4,1.17,18.94,2.2,9.52,1.08,9.51,1.31,19,2.58,9.51,1.29,9.45,1.57,18.77,3.2,9.32,1.64c3.09.56,6.14,1.27,9.19,1.91,6.1,1.32,12.15,2.65,18.13,4l8.91,2.08c1.47.35,3,.68,4.41,1.07l4.35,1.22q8.65,2.44,17,5c5.58,1.71,11.07,3.46,16.42,5.28Q726.13,394.81,733.7,398Z"/><path class="cls-8" d="M808.31,450c-2.92-1.07-5.58-2.09-8-3.06s-4.64-1.84-6.64-2.7c-4-1.68-7.2-3.3-9.91-4.63a86,86,0,0,1-11.91-7.38,67.74,67.74,0,0,0-12-7,101.93,101.93,0,0,0-10-3.93c-4.11-1.27-9-2.61-15.05-4.06A68.92,68.92,0,0,1,748.73,419a46.12,46.12,0,0,1,6.19,1.87c2.08.75,4.22,1.6,6.53,2.56,4.63,1.91,9.93,4.23,16.78,7,3.43,1.39,7.26,2.82,11.55,4.48s9.07,3.49,14.43,5.51c-8.61-2.11-17.21-4.18-25.88-5.93l7.58,3.74c2.52,1.25,5,2.6,7.51,3.9s5,2.6,7.47,3.93Z"/><path class="cls-7" d="M412.69,357.63c-4-.16-8.65-.21-13.74-.35s-10.63-.34-16.38-.59l-8.75-.43-4.45-.24-4.46-.16c-6-.23-11.91-.5-17.63-.83s-11.21-.72-16.25-1.15-9.62-.71-13.53-1.16c-7.82-.91-12.93-2.09-13.53-3.59-4.78-.35,3.23-3.7-14.8-2.05,14.22.54,42.14.27,68,1.87,12.93.56,25.34,1.91,35.25,3.32S409.75,355.4,412.69,357.63Z"/><path class="cls-8" d="M550.73,394.08c-8.83-.62-17.71-1.5-27.73-2.65l-34.69-3.36c8.83.36,18.7.44,29.25,1,2.64.12,5.31.39,8,.7s5.45.65,8.22,1.06C539.34,391.67,545,392.71,550.73,394.08Z"/><path class="cls-7" d="M370.72,367.89c6.14,4.45-26.94,1.15-36,1.19-3.16-.35-6.32-.57-9.49-.82l-9.5-.74c4.46-.38,9.23-.74,14.09-1s9.82-.3,14.67-.31C354.17,366.2,363.47,366.6,370.72,367.89Z"/><path class="cls-7" d="M96.1,371.26c-5.83.48-9.46.69-11.46.7s-2.37-.27-1.67-.69a26.63,26.63,0,0,1,4.74-1.65c2.28-.63,5.05-1.31,7.76-2s5.35-1.32,7.35-1.87,3.38-1,3.54-1.25-.87-.38-3.69-.25-7.41.59-14.36,1.36l15.93-2.29,15.91-2.11,12.4,5.77C120.42,368.32,108.27,369.66,96.1,371.26Z"/><path class="cls-7" d="M23.94,376.52c-3.25,1.1-6.52,2.14-10,3.14s-7.09,2.11-11.06,3.12l-13.08,3.3c-2.4.58-4.92,1.17-7.59,1.77l-8.44,2.08,6.05-3.18c2-1.08,4.06-2,6.1-3,4.26-1.66,9.17-2.61,15.31-3.39,3.07-.43,6.45-.9,10.2-1.54S19.34,377.53,23.94,376.52Z"/><path class="cls-7" d="M87.1,382.16a113.55,113.55,0,0,1-12.47,2.07,36.77,36.77,0,0,1-7.11.17c-3.85-.27-6.76-1.17-14-.65a26.54,26.54,0,0,1,4.68-1.27c2-.41,4.49-.74,7.13-1.06s5.47-.59,8.28-.83,5.59-.34,8.13-.43c5.09-.18,9.21-.14,10.67.21S92.69,381.24,87.1,382.16Z"/><path class="cls-7" d="M1644.6,681.5c18.67,3.42,40.77,3.32,53.84,2.68l-9.62-2.68-22.06.06Z"/><path class="cls-7" d="M1377.82,644.69c-4.89.56-6.6,1.24-5.83,2.15a8.09,8.09,0,0,0,2.91,1.56c.77.3,1.63.62,2.68.94s2.26.65,3.55,1c5.21,1.39,12.13,3.23,20.06,5.21,4,1,8.15,2.17,12.48,3.36s8.81,2.46,13.31,3.88c24.3,4.87,49.6,7.49,75,9.43s50.77,3.24,75.54,5.6l15.24-.51,15.26-.57-51.43-6.14c-19.06-2.32-39.61-4.89-60.4-7.69s-41.85-5.81-61.94-9S1394.93,647.54,1377.82,644.69Z"/><path class="cls-8" d="M1333.81,667.06c1.08.43,2.18.88,3.3,1.3l3.39,1.21c2.28.79,4.61,1.57,7,2.34s4.79,1.4,7.23,2.08,4.89,1.36,7.39,1.91l7.52,1.68c2.52.55,5.06,1,7.59,1.45,5.06.89,10.1,1.84,15.1,2.57,20,3.16,38.79,5,52.21,7.08-22.52-3.92-48.26-8.85-72.11-14.29-11.86-2.75-23.19-5.86-33.4-9-2.55-.78-5-1.63-7.43-2.41s-4.75-1.52-7-2.33c-4.47-1.59-8.63-3-12.35-4.42C1307.94,656.29,1325,663.43,1333.81,667.06Z"/><path class="cls-7" d="M2127.64,696.64c-31.71-.13-69.53-1.91-108.13-2.81s-77.94-1.14-112.81,1.84c16.08,1.22,24.29,2.36,34.76,3.46,5.23.56,11,1.14,18.67,1.74s17.09,1.23,29.67,1.81a130.87,130.87,0,0,1-14.3,2.15c-4.8.45-9.63.65-14.51.67-9.75,0-19.66-.65-29.81-1.6s-20.5-2.31-31.16-3.43c-5.32-.57-10.73-1.06-16.21-1.51s-11-.8-16.69-1c18.42,1.66,15.49,2.95,4,3.75s-31.54,1.15-47.32.69c-7.44-.63-15.44-1.24-23.89-1.82l-26.61-1.87-59.11-3.83L1651,690.55c-21.28-1.52-42.44-3-62.71-4.71-17.6.13-54.83-3.81-85.49-7.33-7.67-.89-14.93-1.73-21.4-2.4s-12.12-1.23-16.6-1.46c-8.93-.55-13.13.11-9.36,2.83-24.45-3.32-38-7.29-49.84-11.34L1388,659.87c-3.1-1.1-6.38-2.2-10-3.32-1.83-.55-3.63-1.15-5.51-1.75s-3.88-1.2-6-1.81a241.62,241.62,0,0,1-37.58-8.82,333.56,333.56,0,0,1-35.26-13.56c-22.88-10.16-44.61-22.18-67-34.19-11.2-6-22.67-12-34.35-17.83s-23.61-11.38-35.91-16.71a611.51,611.51,0,0,0-79.25-28.14c4.32-1-7.25-6.73-22.41-13.31s-33.89-14.14-44.18-18.7c-11.28-4.8-26.39-11.47-42.46-18.57S935,468.52,919.83,462.24c-30.28-12.59-52.77-19.82-42.52-10.18,14.52,9.84,38.55,19.63,64.48,30.27,13,5.3,26.41,10.8,39.42,16.52s25.54,11.65,36.95,18c19.67,10.86,24.14,14.21,19.48,13.42s-18.3-5.83-34.44-12.19c-32.21-12.63-74.61-31.51-77.1-27.85,6.29,2,10.3,5.45,17.43,10.15s17.39,10.66,36.19,17.39c-19.82-7.59-27.93-10.12-29.66-9.6s3,3.93,8.85,7.94c11.73,8,28.32,18.12,7.21,11.78,21.84,11,38,18.69,50.27,24.68s20.9,10.29,28,14.21c14.24,7.82,22.66,14,43.69,28.12,27.55,9.81,38.14,11.5,44,11s7.07-3.15,15.58-2a413.76,413.76,0,0,1,41.33,15.83c12.88,5.71,25,11.83,37,17.89,23.88,12.13,47,24.15,73.2,32.64-10.87-.51-11.22,1.79-4.54,6s20.49,10.18,38.25,15.92c4.45,1.41,9.1,2.9,14,4.21,2.45.67,4.91,1.37,7.44,2l7.71,1.86,3.91.92,3.81.8,7.69,1.61c2.57.53,5.15,1.09,7.73,1.59l7.76,1.46c20.63,3.9,40.86,7,56.85,9.29,20.61,3.25,32.76,4.07,40.73,4A55.86,55.86,0,0,0,1506.3,718a61.24,61.24,0,0,1,16.5-2c4.25-.05,9.62.18,16.62.63,3.51.23,7.43.55,11.82,1s9.27.86,14.69,1.44c21.33,5.12-.84,5.33-21.39,5.48-10.28.09-20.14.13-23.9,1s-1.43,2.54,12.75,5.77q20.25.71,40.43,1.15c26-2.89,46.91-7.93,77.67-9.28,18.13,1.31,45.41,3,46,5.14-35.8-.36-25.31,5.45,12.07,10.92,17.61-1,22-1.26,30.49-2.8-36.27-9.47-17-8.4,17.9-5.8s85.36,6.18,111.32,2.93c18.88-.68,34.26-1.11,47-1s22.87.46,31.24,1.16a175,175,0,0,1,36.1,6.6c9.65,2.66,19.22,5.51,35.65,7.48s39.73,3,76.79,1.88c-11.33-3.26-10.86-5.22-3-6.38s23-1.56,41.09-1.73l58.65-.3c19.52-.21,37.55-.67,49.64-1.81,41.07.43,56,3.93,84.66,7.88,11.29-1.36,43-2,47.8-4.46-11.46-8.36-41-16.46-83-24.26s-96.6-15.33-158-22.81C2130.45,696,2127.55,696.29,2127.64,696.64Z"/></g><g class="cls-9"><path class="cls-10" d="M1782.23,417.06c-4.6,3.23-10.28,6.68-16.12,9.95s-11.84,6.36-17.23,8.75c-10.76,4.81-18.81,7-17.45,2.88l-5.75-.84c4.28-2.25,11.77-6.43,20.23-11s17.67-9.54,25.53-13.33C1787,405.79,1796.82,402.76,1782.23,417.06Z"/><path class="cls-8" d="M1800.09,436.53c-17.9,8.31-5.78-.72-4-4.31l11.7-6.67,11.61-6.8C1827.89,416.85,1809.49,430.13,1800.09,436.53Z"/><path class="cls-10" d="M1818,489.61l7.74-3a199.66,199.66,0,0,0-25,12.4c-1-1.08,1.36-4.16,5.77-7.81a80,80,0,0,1,8-5.76,97.78,97.78,0,0,1,10.08-5.7C1822.75,483.4,1809.32,491.46,1818,489.61Z"/><path class="cls-10" d="M1444.43,629.86c-.72,5.2,6,7.84,17.2,8.27s26.64-1.44,43.19-5.28c-1.42,6.22-2.91,12.39-4.42,18.58-12.74,2.58-29.78,10.34-48.23,19.31-4.61,2.24-9.3,4.57-14,7l-14.26,7-7.09,3.5c-2.36,1.16-4.73,2.25-7.06,3.36-4.67,2.19-9.27,4.33-13.73,6.33-6.29,4.41,2.5,1.84,8.62.46s9.59-1.55-7.48,7.71c-4.86-.22-3.39-4.8-11.45-2.88A78.7,78.7,0,0,0,1370.37,714c-3.43,3.07-5.87,5.88-9.6,9a76.82,76.82,0,0,1-17.33,10.56c-4.31,2-9.5,4.26-15.87,6.74s-14,5-23,7.9l-26.16,1.68c-61.21,20.87-123.59,41.7-185.63,60.16-31,9.22-61.91,17.84-92.49,25.53q-22.93,5.78-45.6,10.81-11.32,2.5-22.57,4.81l-11.19,2.24-11,2.14c-9.39,6.11-29.1,12.53-50.93,19.26s-45.93,13.8-63.73,20.84l-2-4c-4.83,3.15-10.86,5.54-17.57,7.49a210.24,210.24,0,0,1-21.9,4.61c-7.72,1.22-15.66,2.27-23.31,3.46a205.06,205.06,0,0,0-21.8,4.1c-8.4.33-16.74.69-25.11.95-5.32-2.57,11.87-6.83,27.22-11.5,7.65-2.38,14.9-4.75,18.7-6.94s4.21-4.1-1.7-5.42c-26.09,2.92-47.12,9.7-67.62,15.76-5.15,1.44-10.24,2.86-15.36,4.18-2.56.64-5.1,1.33-7.69,1.85s-5.19,1-7.8,1.5-5.25.86-7.91,1.22-5.33.68-8.06.81a151,151,0,0,1-16.77.08l-4,.29-3.73.2c-2.4.14-4.62.3-6.69.45-4.14.32-7.66.68-10.73,1.06a112.91,112.91,0,0,0-14,2.34c-7.45,1.76-12.83,4-26.24,5.79-6.7,4.69,9,3.84,6.41,9-12.21.94-23,1.43-32.65,1.35-4.83,0-9.39-.12-13.71-.29s-8.39-.49-12.27-.83c-7.77-.71-14.78-1.57-21.33-2.67S445,928.22,438.93,927c-24.05-5-46.5-10.14-88.85-9.69-3.13,3.61-71,11.62-8,17.94l30.12-4.17c6.8,1.72,13.64,3.37,20.48,5-11.69.07-28.21-.2-41.21.2s-22.45,1.35-20,3.89c-15.18-8.39-55-5.27-82.85-3S204.8,941,237,929.07c39.28,4.75,50.75,4.21,76.5-2-44.63-1.54-86.38-4.54-126.07-6.84-9.92-.55-19.73-1.16-29.4-1.59s-19.21-.9-28.78-1.22c-19.07-.67-37.73-1.12-56.07-1.16l-21.55,7.35c-1.55-7.18-37.3-12-72.37-13.86-15.1,1.57-34.53,1-29.88,4.55-6.81,4.36,127.83,2.65,64.95,15.35-81.63-3-167.9-9.56-220.22-20,38.21-1.72,65.62.24,106-9.42,68.39-4.83,139.62-5.35,210.33-6.14l105.21-1.25c34.68-.55,68.82-1.54,102-3.9,4.82,5.12,39.94,7.52,29.34,12.48,6.14,1.87,17.73,1.88,28.91,2.38s22,1.31,26.59,4.91L422,907.5l19.86-1.09,40.51-2c6.81-.26,13.66-.69,20.51-1l10.3-.47c3.43-.15,6.87-.37,10.3-.55l20.62-1.08,20.58-1.25A1014.1,1014.1,0,0,0,718.71,878c-7.06-1.68-7.24-3.81-3.21-6.21s12.27-5.15,22.1-8.09c19.67-5.92,45.72-12.86,57.53-18.74,25-.81,64.77-14.22,94.55-22.07,2.71-3,21.08-8.43,15.72-10.78-5.45,1.78-10.08,3.07-14.32,4.07s-8.08,1.79-12,2.46c-7.78,1.31-15.71,2.36-27.21,4.75,3.43-5.77,15.6-9,31.21-11.59,7.78-1.37,16.46-2.49,25.28-3.85s17.78-2.8,26.26-4.77l-16.43,9.35c28.17-6.76,59.95-10.32,90.74-15s60.63-10.47,84.7-21.51l-22.61,1.26-22.59,1.16c30.81-10,66.18-17.18,99.21-25.26s63.67-17,84.67-29.6c-10.48,2.53-22.52,6-34.69,9.76l-18.25,5.53c-6,1.81-11.89,3.51-17.45,5.08-11.13,3.13-21,5.45-28.28,6.35s-11.83.16-12.33-2.88c.16-1.72,3.3-3.82,8.28-6.06a171.72,171.72,0,0,1,19.29-7c7.51-2.33,15.71-4.64,23.51-6.56s15.14-3.63,21-4.66a420.66,420.66,0,0,0,70.16-19.07c10.79-4,21.3-8.12,31.47-12.62,5.09-2.23,10.16-4.38,15.13-6.69l14.81-6.87c4.92-2.24,9.75-4.63,14.6-6.91l14.5-6.8c9.61-4.6,19.3-8.85,29-13.09C1402.67,642.84,1422.64,635.32,1444.43,629.86Z"/><path class="cls-10" d="M1310.12,665.18c-9.59,3.86-17.39,7-23.72,9.87-3.17,1.43-6,2.8-8.5,4.07s-4.77,2.43-6.76,3.56a88.76,88.76,0,0,0-16.21,11.77c-8.26,7-16.17,14-55,25.13,3.86-4.64-4-5.29-16-4.07a311,311,0,0,0-41.31,7.83c-23.92,10.74-54.74,16.29-76.89,22.2-15.49,2.62-15.34-5.55,14.17-13.53,19-1.68,38.74-5.75,58.54-11.28,9.93-2.71,19.84-5.87,29.79-9.11,5-1.66,9.91-3.37,14.86-5.09l7.43-2.59,7.38-2.67c19.7-7,39.08-14.46,57.89-20.79S1292.62,668.65,1310.12,665.18Z"/><path class="cls-8" d="M1390.82,671.05c-9.54,4.55-16.25,6.46-21.39,7.33a48.91,48.91,0,0,1-12.36.34,38.33,38.33,0,0,0-12,.6c-4.94,1-11.23,3.46-20.52,8,6.69-6.84,11.93-9.05,20-11.31s18.88-4.68,36.4-12.37c-6.13,4.33-12.35,8.51-18.55,12.79C1371.82,674.69,1381.36,673,1390.82,671.05Z"/><path class="cls-10" d="M1059.5,758.37a433.51,433.51,0,0,1-53.63,11.33c-19,2.77-35.39,3.58-37.32-.39-4,.28,1.49-5.58-12.78-.46,11.83-1.53,34.66-6.2,56-9.51a281,281,0,0,1,29.5-3.32C1049.76,755.64,1056.34,756.23,1059.5,758.37Z"/><path class="cls-8" d="M1183.44,760.07c-7.06,2.84-14.31,5.38-22.57,8s-17.56,5.31-28.71,8.43C1146.38,771,1163.16,762.37,1183.44,760.07Z"/><path class="cls-10" d="M1029.49,782.63c6.66,5-21.73,7.12-29.16,9l-16.23,1.18C998.41,787.7,1016.73,782.24,1029.49,782.63Z"/><path class="cls-10" d="M800,821.21c-19.16,3.74-9.89-.84-1.48-5s16-7.93-6.54-2.51l25.58-7.77L829.71,813Z"/><path class="cls-10" d="M740.47,827.42a95.33,95.33,0,0,1-16.62,6.19c-3.18.87-6.65,1.7-10.53,2.42s-8.16,1.32-13,1.88l9.51-5.9c3.33-1.49,7.31-1.76,12.29-2.06A89.08,89.08,0,0,0,740.47,827.42Z"/><path class="cls-10" d="M795.23,836.71c-17.6,7-16.18,1.39-28.28,2.4C773.06,834.57,813.39,831,795.23,836.71Z"/><path class="cls-10" d="M620.8,935.47c4.34-2.64,9.94-4.65,16.46-6.3,1.62-.42,3.32-.78,5-1.19s3.5-.8,5.32-1.18c3.64-.76,7.47-1.47,11.44-2.16l6.06-1,6.18-1.14,12.75-2.36c4.33-.79,8.62-1.8,13-2.8s8.66-2.09,12.92-3.31c-8.53,2.42-15.82,4.65-22.56,6.8s-13,4-19.48,5.81c-3.2,1-6.51,1.75-9.93,2.58s-7,1.61-10.79,2.38c-1.9.38-3.84.79-5.87,1.13s-4.15.65-6.33,1C630.6,934.3,625.9,934.9,620.8,935.47Z"/><path class="cls-10" d="M1998.62,250.18c14-8.16,26.94-22,34-30.87l-8.22,3.21Z"/><path class="cls-10" d="M1816.35,383.29c-4.56,8.49-1.34,7.91,6.86,3.82,4.07-2.06,9.46-4.92,15.6-8.09a207.45,207.45,0,0,1,20.65-9.45q6.6-4.11,13-8.61c2.15-1.5,4.31-3,6.41-4.57s4.16-3.19,6.22-4.81c4.13-3.25,8.25-6.54,12.28-9.93s7.92-6.93,11.85-10.41c2-1.75,4-3.46,5.88-5.24l5.72-5.36c3.82-3.58,7.61-7.06,11.49-10.6,7.91-7.36,15.9-14.5,24.11-21.21l16.44-20.54c-10.24,7.51-22.3,16.56-35.32,26.51l-9.93,7.63c-1.71,1.34-3.31,2.51-5,3.75s-3.28,2.46-4.94,3.71l-10,7.6L1897.42,325C1869.74,345.38,1840.08,365.67,1816.35,383.29Z"/><path class="cls-8" d="M1813.67,440.1a179.8,179.8,0,0,0,22.11-12c7.32-4.64,14.52-9.79,21.42-14.86s13.34-10.35,19.34-15,11.33-9,16-12.32c-8.16,5.22-16.8,11-25.79,16.53-4.47,2.8-8.94,5.69-13.46,8.46l-13.45,8.22c-4.4,2.73-8.78,5.33-13,7.84l-12.26,7.28c-7.87,4.58-15,8.64-20.87,12C1791.9,449.9,1806.06,443,1813.67,440.1Z"/><path class="cls-10" d="M2321.52-11.59c-22.42,15.83-50.05,33.54-77,53.32s-53.21,41.58-72.94,65c5.72-4,10.2-6.79,14.21-9.21s7.54-4.45,11.47-6.78,8.25-4.91,13.8-8.51,12.31-8.18,21.23-14.35a73.68,73.68,0,0,1-7.62,10.21,87.28,87.28,0,0,1-8.93,8.8,124.55,124.55,0,0,1-10.06,7.73c-3.49,2.47-7.12,4.84-10.85,7.16s-7.56,4.6-11.45,6.9-7.79,4.69-11.72,7.13-7.87,5-11.76,7.69-7.7,5.57-11.45,8.65c26.28-17.88-2.72,12.4-22.91,30.26-20.74,15-46.4,35.73-73.4,58.38s-55.39,47.15-81.77,69.5c-5,5.64-13.7,13.44-23.7,21.92l-7.7,6.48-7.81,6.31-7.81,6.3c-1.3,1-2.56,2.1-3.85,3.11l-3.85,3c-5.07,3.93-9.83,7.7-14,11.17s-7.89,6.44-10.59,9.07c-5.41,5.25-7.12,8.73-2.56,9.18-2,1.58-4.06,3-6,4.29s-3.77,2.51-5.54,3.63c-3.55,2.23-6.8,4.11-9.83,5.73a128.48,128.48,0,0,1-16.5,7.06c-2.53.91-5,1.74-7.5,2.6s-5.08,1.66-7.74,2.62a153.69,153.69,0,0,0-17.94,7.78,231.77,231.77,0,0,1-27.23,20,291.07,291.07,0,0,1-28.48,15.79c-19.35,9.43-39.2,17-59.34,24.83s-40.5,15.85-60.83,26.17a320.2,320.2,0,0,0-30.41,17.54,283.83,283.83,0,0,0-29.35,21.91c.81-4.65-9.28-.6-21.67,5.74s-27.16,14.75-35.65,19.07l-34.42,18.5c-6.49,3.45-13.12,7.07-19.6,10.63s-12.84,7-18.69,10.41c-23.46,13.36-39.42,24.32-26.73,25.79a58.14,58.14,0,0,0,11.79-3,133.86,133.86,0,0,0,13-5.63c2.27-1.1,4.57-2.28,6.92-3.52s4.7-2.6,7.11-4c4.8-2.74,9.75-5.66,14.79-8.64,20.13-12.07,41.66-25.35,63-32.08,18.21-6.08,23.23-6.45,20.54-3.31s-13,9.79-25.65,17.34c-25.14,15.26-59.33,33.94-57.17,39.58a17.44,17.44,0,0,1,7.15-3.27c2.64-.65,5.63-1.08,9.23-1.88a70.91,70.91,0,0,0,12.87-4.15,102.5,102.5,0,0,0,17.9-10.28c-7.57,4.87-12.73,8.52-16.07,11.13s-4.8,4.28-4.93,5.28c-.26,2,4.83,1.3,10.91.12,12.12-2.44,28.33-6.82,13.76,5.27l13.41-5.76,11.59-5.09,18.71-8.12c5.37-2.3,10-4.2,14.07-5.79s7.65-2.93,11-4a147.14,147.14,0,0,1,19.13-4.82c3.38-.65,7-1.3,11.25-2l14.44-2.54c20.42-13.51,26.52-20.74,28.53-26.21s0-9.12,4.73-15.16c21.28-15.68,42.81-25.46,63.72-34.57s41.32-17.59,60.38-30.61c-10.28,16.9,8.22,10.57,35.14-4.22,6.71-3.76,14-7.94,21.37-12.51l11.22-7.07c3.76-2.4,7.55-4.79,11.25-7.31l11-7.43,5.38-3.65c1.77-1.21,3.5-2.45,5.21-3.65l9.89-7c3.17-2.25,6.22-4.33,9-6.41,7.37-5.16,13-9.46,17.46-13.12a92.61,92.61,0,0,0,9.72-9.55,34.58,34.58,0,0,0,7.11-12.49,36.36,36.36,0,0,1,7.49-13c1.2-1.41,2.61-3,4.29-4.64.84-.84,1.74-1.72,2.72-2.65s2-1.88,3-2.89c4.36-4,10-8.8,17.18-14.55,17-8.26,4.6,6-6.71,19.41-1.4,1.69-2.8,3.35-4.12,4.94s-2.61,3.19-3.76,4.61a34.22,34.22,0,0,0-4.77,7.08c-1.36,3.38,1.61,3.59,13-2.45L2007,347.87c11.94-19.54,19.09-37.9,35.57-58.57,11.73-10,29.3-25,31.61-23.17-21.14,21.82-9.47,21.32,17.46,4,9.39-11.77,11.72-14.71,15.27-21.5-30.35,12.12-18,1.4,5.12-16.95,11.58-9.17,25.89-20.2,38.95-31.22s24.9-22,31.51-31.16c5.51-5.83,10.61-11,15.36-15.59s9.1-8.65,13.16-12.2a184.39,184.39,0,0,1,21-16.06,88.66,88.66,0,0,1,29.14-12.28c8.63-2.14,17.28-4.13,29.75-10.49a199.85,199.85,0,0,0,22-13.53c4.3-3,8.93-6.45,14-10.34s10.6-8.28,16.59-13.25c-20.62,3.92-5.36-10.06,19.15-28.22,6.16-4.5,12.84-9.32,19.7-14.15l20.6-14.43c6.75-4.69,13.2-9.27,18.91-13.56s10.76-8.17,14.59-11.63c7.34-4.61,13.75-8.09,19.52-11a158.69,158.69,0,0,1,15.93-7c10-3.73,19.16-6.31,31-10,7.1-6.59,29.69-20.68,31.51-25.69-7.1-2.76-17.5-3.53-30.74-2.54s-29.2,4-47.39,8.69c-9.15,2.28-18.74,5.18-28.92,8.33-5.09,1.57-10.25,3.33-15.55,5.14s-10.73,3.72-16.24,5.73c-22,8.13-45.72,17.79-70.41,28.93C2323-13.75,2321.16-12,2321.52-11.59Z"/></g></g><g class="cls-2"><g class="cls-11"><path class="cls-12" d="M2283.31,890.57c721.44-573.23,911,147.35,1395.22-284.2S4592,432.61,4592,432.61"/><path class="cls-13" d="M2062.6,750.55c152.74-119.68,389.18-264,685.19-272.43,195.3-5.55,239.87,53.1,635.59,136.21C3808.88,703.7,3991,751.9,4222,640.7c162.36-78.15,323.24-207.36,378.5-298.8"/><path class="cls-14" d="M1900.64,528.26c265.57-137.65,593.18-245.07,900.74-149.4C3167,492.59,3240,811.07,3593.66,901.75c195.86,50.23,412.72,30,809.49-224.09"/><g class="cls-6"><path class="cls-7" d="M3253.7,436.71c-3.64,1.16-.38,5.93,7.16,12.6s19.34,15.25,33,23.9l-14.41,2.8c-20.48-13.41-65.18-31.07-99.86-43.75-7-1.67.85,1.95,6,4.68,2.58,1.38,4.51,2.51,3.63,2.58s-4.54-1-13.18-3.7c-3.42-2.56.11-3.56-6.85-6.89a91,91,0,0,0-17-3.41c-4.16-.43-7.43-.48-11.78-1s-9.76-1.7-18.38-3.71c-4.3-1.05-9.36-2.41-15.46-4.18l-4.77-1.41c-1.65-.5-3.38-1-5.2-1.49-3.62-1-7.54-2.08-11.79-3.28l-10.9-4.91c-1.83-.81-3.64-1.66-5.48-2.43l-5.53-2.27-22.39-4.91c-1.87-.43-3.76-.75-5.65-1.09l-5.66-1-11.35-2c-3.78-.66-7.56-1.37-11.36-2L2995,388.15l-11.46-1.63c-3.82-.54-7.63-1.1-11.48-1.47l-23-2.5c-3.84-.47-7.7-.69-11.55-1l-11.56-.9-11.54-.91-11.57-.59-11.55-.6c-3.85-.18-7.69-.46-11.54-.52l-23.05-.65c-3.83-.15-7.67-.16-11.5-.18l-11.48-.09-11.44-.11c-3.81,0-7.62.07-11.42.1l-22.73.18c-15.12.43-30.12.55-45,1.15l-11.14.32-5.55.14-5.54.23q-11.06.45-22,.78c-20.18,5.78-81.14,9.31-115.86,16.94l-1.18-2.36c-9.85,3.54-23.42,5.35-37.49,7.39s-28.62,4.4-40.32,8.18l-5.45,1-5.38,1.16-5.4,1.16-5.32,1.34c-2.31-.22.13-1.85,4.87-4.07,2.41-1.05,5.38-2.25,8.6-3.51s6.79-2.4,10.21-3.64c13.8-4.69,26.69-8.44,16-9.16a176.18,176.18,0,0,0-32.81,8.66c-5,1.73-9.64,3.86-14.23,5.86s-8.83,4.27-13.07,6.59c-17,9.27-32.38,19.56-51.21,29.09-8.72,5.33-14.87,9.49-19.53,12.87s-7.83,6-10.55,8.35c-5.44,4.77-9.07,8.65-19.16,16.74-3.9,5.92,8.25-2.89,7.75,1.06l-13.17,9.73q-6.21,4.53-11.79,8.43c-7.38,5.34-14.06,9.87-20.2,13.94s-11.68,7.71-17,11-10.26,6.43-15.2,9.44c-2.46,1.52-4.93,3-7.37,4.54l-7.37,4.73c-2.49,1.62-5,3.28-7.6,5l-3.93,2.68-4,2.89c-5.41,4-11.24,8.32-17.51,13.51q-4.7,3.9-9.84,8.36l-5.27,4.65-5.47,5.06c-.4,1.79-11.85,14.59-17.07,22.29-2.65,3.82-3.81,6.3-1.42,5.37a34.18,34.18,0,0,0,6.51-4.19c1.61-1.21,3.51-2.7,5.73-4.49s4.82-3.83,7.74-6.24l9.77-10.65,9.92-10.52,8.29-5.41,8.36-5.31-6.89,5.94c-2.44,2.12-5,4.4-7.55,6.69-5.12,4.61-10.42,9.26-14.88,13.6-9,8.58-15.22,15.16-12.48,14.64a66.26,66.26,0,0,0-12.45,8.43c-2.36,1.92-4.86,4-7.37,6.36s-5.12,4.81-7.74,7.4-5.29,5.27-7.94,8-5.23,5.58-7.8,8.38l-7.53,8.29c-2.43,2.72-4.74,5.41-6.95,7.93l-11.5,13.15a74.15,74.15,0,0,1-6.81,7.17c-2.62,2.12-1.13-1.77,7-15.4,7.11-6.37,12.84-11.71,17.81-16.31s9.06-8.6,12.72-12.43,7-7.43,10.25-11.37,6.57-8.2,10.44-13.09c-4,3.61-7.84,7.29-11.72,10.91s-7.75,7.18-11.53,10.79c-7.55,7.23-15.09,14.26-22.35,21.38l-10.89,10.55-10.63,10.53c-7.09,6.93-13.89,14-20.7,20.84s-13.35,13.84-19.89,20.67-12.83,13.72-19.07,20.57c-12.48,13.72-24.47,27.31-35.87,41-3.34,6.28-6.71,12.52-10,18.82-1-.37-3.31.93-6.5,3.48a153.65,153.65,0,0,0-11.8,11.12,469.59,469.59,0,0,0-30.82,35.85c-8,12.28-18.85,27.58-14.61,25-.88,3.38,17-21.73,32.47-40.22,7.66-9.3,14.6-17,17.54-19.21s1.94,1.19-5.89,14.24c-24.72,30.49-48.93,62.64-69.7,93l-4.22,6c-1.42,1.94-2.85,3.93-4.26,5.79l-4.17,5.5-4.06,5.28c-5.32,6.91-10.26,13.42-14.57,19.71a152.57,152.57,0,0,0-10.91,18.13,80.67,80.67,0,0,0-6.26,16.55,71.62,71.62,0,0,1,5.75-22.31,189.36,189.36,0,0,1,10.45-20.7c3.88-6.85,8.06-13.76,12.34-21.32,2.14-3.77,4.3-7.74,6.42-11.93,1-2.1,2.12-4.34,3.11-6.49s2-4.36,3-6.63q12.3-21.71,26.32-43c9.34-14.15,19.17-28.13,29.37-41.94,20.39-27.61,42.33-54.44,64.68-80.74s45.12-52.08,68-77,45.81-49.17,68.29-72.61c1.37-.29,4-1.93,7.12-4.07s6.67-4.81,9.94-7.08c6.53-4.57,11.64-7.85,8.84-3.31a104.22,104.22,0,0,0,9.67-7.55c3.79-3.16,8-6.79,12.12-10.31s8.31-6.88,12-9.53,7-4.6,9.33-5.26c18.36-16.91,38.21-33.81,59-50.19l15.74-12.17c5.32-4,10.68-7.95,16-11.91,10.76-7.9,21.66-15.69,32.54-23.24,21.81-15.06,43.92-29,66.25-40.08l8.38-4c2.82-1.23,5.59-2.51,8.39-3.66l4.2-1.7c1.39-.57,2.78-1.13,4.2-1.62l8.41-3.06c2.79-1,5.61-1.84,8.39-2.75,1.39-.45,2.77-.92,4.16-1.34l4.17-1.2c2.78-.79,5.51-1.63,8.25-2.35l8.18-2.11c-6.48-.19-6.57-1.43-2.6-3.35,1-.48,2.24-1,3.69-1.56s3.16-1.07,5-1.64,3.9-1.17,6.08-1.79,4.51-1.15,6.94-1.75c9.7-2.44,21.08-4.59,31.56-6.58s20.1-3.61,26.28-5.14c12,.09,28.12-1.16,45-2.74,8.44-.78,17.08-1.66,25.48-2.52s16.56-1.58,24.05-2.23c1.6-.75,7-1.7,11.52-2.49s8-1.69,5.63-2.57c-11.11,1.11-18.69,1.67-26.38,1.9s-15.49.26-26.91,1c2.21-1.57,6.36-2.63,11.9-3.35s12.47-1,20.18-1.3c3.85-.12,7.9-.25,12.07-.3l12.82-.07c8.69,0,17.57-.34,26.1-.57-2.94.64-5.88,1.24-8.82,1.91l-8.78,2.06c3.53-.21,7.11-.41,10.72-.54s7.27-.14,11-.18c7.36-.05,14.85-.09,22.39.07,15.09.48,30.41,1,45.52,1.94l11.29.57c1.88.1,3.75.16,5.61.28l5.57.35c7.4.46,14.7.82,21.85,1.05,3.58.07,7.11.3,10.61.41s6.94.21,10.34.24c6.81.11,13.43-.14,19.8-.25l-5.35-1-5.36-.91L2868.55,356l-10.77-1.81-5.4-.89-5.4-.77c31.7-.19,67,3.29,99.95,7.69,8.23,1.17,16.33,2.4,24.22,3.47s15.54,2.28,22.91,3.31q5.54.76,10.84,1.42l5.23.6c1.73.17,3.42.44,5.1.64,6.69.84,13,1.45,18.94,1.76-10.31-2.41-22.38-5-34.8-6.84l-18.53-2.9-17.74-2.3c-5.63-.75-10.92-1.54-15.68-2.24s-9-1.26-12.5-1.94c-7-1.34-11.05-2.83-10.58-4.56.69-.87,4.28-1.21,9.66-1.16,2.68,0,5.82.15,9.25.35l5.36.36c1.84.16,3.74.38,5.68.6,7.77.89,16.17,2,24.06,3.23l2.93.46,2.87.54,5.48,1.07c3.54.72,6.81,1.41,9.67,2.07l9.23,2.07c1.53.34,3.06.64,4.57,1l4.52,1.09q9,2.13,17.82,4l8.76,1.84,8.61,2q8.58,1.95,17,3.72c5.63,1.1,11.14,2.48,16.63,3.74l16.34,3.71c5.43,1.12,10.73,2.61,16,3.91l15.81,4c5.27,1.25,10.41,2.86,15.56,4.34l15.38,4.58c10.23,3,20.28,6.7,30.2,10.52A408,408,0,0,1,3253.7,436.71Z"/></g></g></g><g class="cls-2"><g class="cls-15"><path class="cls-16" d="M2006,768.2c404.59-572.94,510.43,147.57,782-283.78S3335.28,311,3335.28,311"/><path class="cls-17" d="M1912.17,613.32c85.65-119.62,218.23-263.88,384.11-272.2,109.45-5.49,134.4,53.16,356.12,136.36,238.41,89.47,375.7,137.73,505.22,26.61,91-78.1,146-207.25,177-298.66"/><path class="cls-18" d="M1905.15,563.43c148.86-60.06,332.48-106.9,504.81-65,204.84,49.78,245.72,188.93,443.87,228.64,109.75,22,266.56,13.25,489-97.65"/><g class="cls-6"><path class="cls-7" d="M2597.69,324.27c-1.29.38-1.49,1.46-.82,3.06a32.42,32.42,0,0,0,4.36,6.3,114.48,114.48,0,0,0,8.1,8.71c1.6,1.59,3.35,3.17,5.11,4.89s3.61,3.45,5.49,5.25c-3.3.31-6.59.73-9.82,1.13a92.18,92.18,0,0,0-11.26-8.39l-3.49-2.26-1.83-1.14c-.63-.37-1.28-.71-1.93-1.07-2.6-1.41-5.31-2.84-8.1-4.28l-4.22-2.17c-1.43-.71-2.84-1.49-4.33-2.11l-8.89-3.89-4.42-1.92-2.19-1c-.73-.32-1.48-.57-2.21-.86l-8.58-3.31c-4.48-1.09.46,1.44,3.71,3.3s4.83,3.07-6.2-.6c-2.11-1.83.23-2.58-4.16-5-10.2-2.59-13-1.84-18.64-2.37a67.31,67.31,0,0,1-11.86-1.83c-1.37-.31-2.87-.68-4.51-1.1s-3.46-.74-5.43-1.2-4.11-1-6.43-1.53l-3.63-.92-1.93-.49-2-.42-14.3-5.65a349.6,349.6,0,0,0-59-3.53c-5,.14-9.92.17-14.89.59l-7.44.49c-2.48.17-5,.3-7.44.6l-14.84,1.56-14.78,2c-2.46.3-4.9.77-7.35,1.17l-7.35,1.23c-4.81.77-9.93,1.72-14.83,2.6-9.87,1.79-19.47,3.6-28.76,5.7-18.58,4.17-35.86,9.64-51.29,17.4A45.61,45.61,0,0,1,2241,337c-.88.65-1.74,1.42-2.68,2.18s-1.94,1.55-3,2.36c-4,3.26-8.6,7.28-13.36,11.94a224.83,224.83,0,0,0-26,30.42l-1.78-.77c-3,6.14-8.86,13.08-15.21,20.32s-13.12,14.62-18.08,21.43l-10.43,11c-3,1.42,3.16-7.51,8.64-15.72s10.37-15.67,4.42-11.68c-2.73,3-5.25,6-7.61,9s-4.46,5.93-6.49,8.84-4,5.79-5.74,8.66l-5.23,8.52c-6.83,11.23-13.14,22-22.26,32.68-15.59,22.16-12,20.82-20.09,35.48-.33,2.33.78,1.42,2.08.26s2.84-2.55,3.29-1.23c-3.89,6.47-7.36,12.15-10.64,17.14s-6.17,9.43-9,13.36-5.36,7.47-7.86,10.72-4.9,6.27-7.24,9.26-4.65,5.94-7,9-4.75,6.37-7.2,10-5,7.65-7.76,12.24-5.54,9.78-8.61,15.73c.44,2.49-15.83,42.12,4.63,8,2.33-5.89,4.78-11.71,7.17-17.58,2.63-3.45,5.34-6.86,8-10.26-3.53,6.38-8.43,15.52-12.08,22.8s-5.9,12.82-4.23,11.94c-7.68,6.83-17.52,30-24.21,46.36-3.34,8.2-5.92,14.67-7.18,16.51s-1.21-1,.82-11.29c6.26-10.89,10.2-17.87,13.08-24.22a143.18,143.18,0,0,0,7.27-19.75l-19.21,36.37q-9.33,17.76-18,34.64c-11.56,22.55-22.09,44.22-31.16,65.61-.77,4.61-1.59,9.2-2.31,13.81-3.24-.29-13.78,19.88-22.25,40.47-2.7,9.2-7,20.72-4.6,18.46.14,2.33,7.19-16.62,13.56-31.07,3.16-7.23,6.13-13.34,7.67-15.23s1.65.47-.71,10.18c-5,11.86-9.91,23.93-14.73,35.85l-3.55,8.92c-.6,1.5-1.19,3-1.79,4.47s-1.25,3.14-1.89,4.65c-2.54,6.08-5.13,11.81-7.59,17.33s-4.8,10.83-7,16-4.08,10.08-5.83,14.84a186.36,186.36,0,0,0-7.39,25.93,117.87,117.87,0,0,1,1.64-16.1c.94-5.12,2-10.06,3.23-15.07,2.43-10,5.26-20.27,7.89-33,1.69-5.19,3.44-10.41,5.12-15.72l5-15.84c3.44-10.54,7.05-21.11,10.94-31.63,7.7-21.06,16.25-42,25.18-62.7s18.23-41.14,27.38-61.28,18.18-39.95,26.74-59.35c3.38-1.79,14.5-21.26,13.34-14.28,2.51-3.11,6-9.6,9.48-15.79s7.19-12,9.94-13.81c1.79-3.68,3.66-7.35,5.58-11s3.88-7.41,5.85-11.16,4.08-7.44,6.15-11.2l3.13-5.62q1.6-2.81,3.23-5.61c8.58-15,17.88-29.89,27.29-44.46s19.21-28.63,28.82-42,19.15-26,28.24-37.63c-7.17,4.86-2.53-2.8,5.12-13.42,3.83-5.3,8.4-11.33,12.61-16.88s8.07-10.62,10.32-14.13c6-5.12,13.24-12.78,21.2-20.45s16.73-15.24,25.08-20.43c.67-.95,3.59-3.07,5.95-4.92s4.28-3.25,2.6-3.24c-1.59,1-3.1,1.74-4.44,2.6s-2.62,1.6-3.84,2.31l-1.79,1-1.69,1.05-3.31,2a112.71,112.71,0,0,0-14.7,10.25c.51-1.77,2.28-4.07,5.15-6.54a68,68,0,0,1,11.24-7.75c9-5.22,20.52-9.87,31.11-13.75-1.72,1-3.36,2.18-5,3.26l-2.48,1.64-2.42,1.75a141.33,141.33,0,0,1,27.38-9c9.61-2.2,19.5-3.69,29.28-4.94s19.47-2.3,28.75-3.7c9.25-1.22,18-3,26.14-4.74l-7.12-.17c-2.38-.07-4.75,0-7.13,0-4.75.05-9.54.06-14.3.15,5.06-1,10.33-1.86,15.69-2.69l4-.6,4.08-.45,8.25-.84c5.51-.62,11.09-.83,16.64-1.15,2.77-.12,5.53-.34,8.29-.39l8.21-.13,8.09-.17,7.91.08c5.21.06,10.27-.08,15.13.1s9.54,0,14,0,8.58,0,12.47-.32c-3.44-.47-7.18-.89-11.08-1.28-1.95-.23-3.94-.31-6-.4l-6.12-.26c-8.22-.48-16.57-.17-24-.24-1.86,0-3.67.05-5.4.09l-5,.09c-3.15,0-6,0-8.3-.17-4.66-.21-7.45-.73-7.34-2.09.34-.72,2.63-1.44,6.12-2.05s8.19-.92,13.33-1.21l3.93-.21c1.33,0,2.67,0,4,0,2.7,0,5.41.05,8,.11s5.18.11,7.56.29,4.56.42,6.49.64c16.67,1.73,32.24,3.89,47.24,5.76,14.93,2.34,29.33,4.5,43.22,7.9l10.38,2.5c3.42,1,6.79,2,10.16,3.05l5,1.59c1.67.55,3.37,1,5,1.69q4.92,1.89,9.81,3.88a170.21,170.21,0,0,1,19.08,9.15l4.67,2.57c1.54.89,3,1.9,4.54,2.87Q2593.26,321.12,2597.69,324.27Z"/><path class="cls-7" d="M2339.45,281.9c-2.15.36-4.65.74-7.39,1.13l-8.72,1.26c-6.13.84-12.8,1.69-19,2.43-12.43,1.47-23.13,2.79-24.2,1.18-1.34.19-1-.46-1.58-.75a3,3,0,0,0-1.81,0,28.71,28.71,0,0,0-5,1.5c3.95-.87,9.75-2.14,16.33-3.38s13.92-2.38,20.94-3.17,13.72-1.34,19.07-1.45a58.18,58.18,0,0,1,7,.23A12.51,12.51,0,0,1,2339.45,281.9Z"/><path class="cls-7" d="M2318.27,292.28c1.88,1.09-1.68,1.87-6.31,2.5-2.32.34-4.9.62-7.21.92s-4.33.57-5.54.82l-5.15.49c-1.72.15-3.44.34-5.16.56C2298.22,294.65,2310.27,292.06,2318.27,292.28Z"/><path class="cls-7" d="M2182.48,352.69c-4.43,4.62-5.69,5.56-5.46,4.68s2-3.55,3.7-6.1,3.4-4.95,3.32-5.33c-.05-.18-.53.14-1.65,1.22s-2.92,2.91-5.47,5.76c3.74-4.53,7.67-9,11.71-13.43,2.59-.58,5.12-1.15,7.7-1.66C2191.51,342.67,2186.92,347.64,2182.48,352.69Z"/><path class="cls-7" d="M2154.79,380.15a105.21,105.21,0,0,1-6.37,9.61c-2.56,3.44-5.71,7.38-9.94,12.16l3-6.52a32.59,32.59,0,0,1,5.27-6.28A98.4,98.4,0,0,0,2154.79,380.15Z"/><path class="cls-7" d="M2183.25,360.84c-3.57,4.92-5.44,6.71-7.14,7.93a34.16,34.16,0,0,0-6,4.6c1-2.18,6.08-7.8,10.16-11.55S2187.16,356.09,2183.25,360.84Z"/><path class="cls-7" d="M2132.18,471.38a43.94,43.94,0,0,1,4.4-9.37c2-3.44,4.48-7.24,7.3-11.16l8.95-12.4c3.15-4.25,6.32-8.64,9.31-13.11-3,4.47-5.47,8.34-7.74,11.94s-4.26,7-6.39,10.37C2143.76,454.43,2139.29,461.5,2132.18,471.38Z"/></g><g class="cls-9"><path class="cls-10" d="M2703.68,459.9c.78,3,5,3.48,11,2.08a66,66,0,0,0,10.18-3.41,122.16,122.16,0,0,0,11.62-5.75l1.75,11a57.86,57.86,0,0,0-10.06,7.19c-3.57,3.06-7.31,6.7-11.19,10.55-1.94,1.93-3.88,3.93-5.84,6l-5.93,6.06c-3.91,4.06-7.89,8-11.66,11.59-4.62,6.84,16.18-11.13,2.46,4.38-2.6.63-2.86-2.14-6.65.17-6,7.07-6,10.3-8.55,14.91s-7.32,10.79-23.63,23c-4.37,1.8-8.86,3.45-13.25,5.15-13.67,10.85-27.65,21.72-42.14,32.13-3.59,2.64-7.28,5.16-11,7.71s-7.41,5-11.15,7.49-7.5,4.85-11.25,7.2-7.54,4.63-11.31,6.92c-30.3,18.13-61.48,33.34-92.21,44.49-4.42,4.43-14.48,9.62-25.59,15-5.55,2.68-11.36,5.4-16.86,8.09-2.76,1.36-5.42,2.7-7.95,4-1.26.66-2.49,1.33-3.67,2s-2.22,1.3-3.26,2l-1.47-2.26c-4.2,4.27-11.17,7.1-18.75,9.75-3.79,1.32-7.71,2.57-11.52,3.93a89.12,89.12,0,0,0-10.63,4.43l-12.83,3.11c-3.18-1,5.09-5.3,12.32-9.55s13.58-8.35,7-8.91c-13.21,4.07-23.07,10.4-32.77,16.27-2.4,1.49-4.83,2.91-7.28,4.29s-4.89,2.71-7.48,3.87a84.23,84.23,0,0,1-8,3.21,71,71,0,0,1-8.73,2.19c-2.78,1-5.26,1.71-7.35,2.46s-3.89,1.41-5.43,2.05a53.16,53.16,0,0,0-7.14,3.25c-1.85,1-3.42,2.06-5.45,3.11a70.66,70.66,0,0,1-8,3.64c-1.56,1.76-.18,2.13,1.48,2.4s3.61.49,3.26,2.2c-3.29,1.12-6.53,1.88-9.56,2.64-1.52.37-3,.71-4.44,1s-2.89.51-4.27.74c-2.78.44-5.4.81-7.89,1.09s-4.94.3-7.22.37a86.76,86.76,0,0,1-12.13-.44c-1.83-.16-3.6-.35-5.33-.55s-3.42-.5-5.1-.76l-10-1.55c-3.4-.54-6.91-1-10.72-1.35s-7.9-.71-12.49-.79-9.64-.13-15.37.1c-.81,1.09-10.4,3.16-15.51,5.17-2.56,1-4,2.08-2.68,3.11s5.43,2.08,14.06,2.84c5.45-.92,10.93-2,16.38-3,3.74,1,7.54,1.75,11.33,2.63-3.19.13-7.08.33-11,.44s-8,.28-11.54.49c-7.08.36-12.25,1.09-10.9,2.62a23.25,23.25,0,0,0-8.44-2.56,85.79,85.79,0,0,0-11.54-.64c-4.17,0-8.54.23-12.8.49s-8.44.64-12.19,1c-15,1.25-23.59,2-6.19-5.07,21.08,3.16,27.39,2.79,41.31-1.13-24.2-.72-46.58-2.92-67.77-4.74-10.57-.91-20.88-1.78-30.92-2.34-5-.32-10-.51-14.89-.67s-9.89-.21-14.77-.24l-11.5,4.52c-.83-4.42-19.91-7.36-38.63-8.54-8.06,1-18.43.59-15.95,2.78-3.63,2.69,68.23,1.67,34.67,9.46-43.57-1.86-89.62-5.92-117.55-12.34,20.41-1,35,.17,56.59-5.76,36.5-2.93,74.54-3.31,112.25-3.67,18.84-.09,37.64.28,56.15.24s36.76-.5,54.42-2.16c2.57,3.18,21.36,4.25,15.76,7.42,3.31,1.11,9.53.88,15.54,1s11.83.32,14.42,2.37q5.19-.71,10.46-1.35l10.64-1.45c3.57-.42,7.16-1.05,10.77-1.55,1.81-.27,3.6-.49,5.43-.8l5.52-1a316.93,316.93,0,0,0,43.34-11.13c14.07-4.62,27.66-9.93,40.54-15.3s25.07-10.83,36.33-15.93c-15.79-1.29,24.88-17.38,36.42-25.53,13.29-1.94,33.29-12.08,48.3-18.78,1.13-2,10.25-6.54,7.1-7.55-10.72,5.8-15.49,6-27.25,10.17,2.4-7.34,24.66-10.34,41.67-17.73l-7.54,6.86c14.15-6.19,30.56-11,46.26-16.66s30.66-12.28,41.51-21.52c-3.92,1.11-7.81,2.23-11.74,3.26s-7.82,2.1-11.75,3.07c14.69-9,32.08-17.21,47.79-26.21s29.79-18.69,37.88-29c-9.75,6.06-21.88,15.22-32.23,21.82s-18.85,10.56-20.45,7.18c-.23-1,1-2.63,3.16-4.54,1.08-.95,2.38-2,3.86-3s3.06-2.25,4.77-3.41,3.51-2.32,5.35-3.46,3.65-2.34,5.46-3.43,3.57-2.13,5.25-3.06,3.2-1.82,4.6-2.54a169.52,169.52,0,0,0,32-21.39q3.51-3,6.9-5.94t6.55-6.11l3.2-3,3.12-3.1,6.16-6.15C2668,488.5,2683.09,472.48,2703.68,459.9Z"/></g></g></g></svg>