<svg id="Layer_1" data-name="Layer 1" xmlns="http://www.w3.org/2000/svg" xmlns:xlink="http://www.w3.org/1999/xlink" viewBox="0 0 375 667"><defs><style>.cls-1,.cls-12,.cls-13,.cls-14,.cls-6,.cls-7,.cls-8{fill:none;}.cls-2{opacity:0.12;}.cls-3{opacity:0.49;}.cls-4{fill:#f7c2a3;}.cls-5{clip-path:url(#clip-path);}.cls-12,.cls-6{stroke:#a5d8ff;}.cls-12,.cls-13,.cls-14,.cls-6,.cls-7,.cls-8{stroke-miterlimit:10;}.cls-6{stroke-width:7.94px;}.cls-13,.cls-7{stroke:#c28cae;}.cls-7{stroke-width:8.29px;}.cls-14,.cls-8{stroke:#f7c2a3;}.cls-8{stroke-width:8.48px;}.cls-9{opacity:0.53;}.cls-10{fill:#fd5070;}.cls-11{clip-path:url(#clip-path-2);}.cls-12{stroke-width:5.95px;}.cls-13{stroke-width:6.2px;}.cls-14{stroke-width:4.19px;}.cls-15{fill:#fff;}</style><clipPath id="clip-path"><rect class="cls-1" x="477.3" y="15.56" width="797.13" height="1045.84"/></clipPath><clipPath id="clip-path-2"><rect class="cls-1" x="-13.5" y="-20.29" width="393.36" height="693.94"/></clipPath></defs><g class="cls-2"><g class="cls-3"><path class="cls-4" d="M-118.19-129.58c-22.42,15.83-50.05,33.54-77,53.32s-53.21,41.58-72.93,65c5.72-4,10.2-6.79,14.2-9.21s7.55-4.45,11.47-6.78,8.26-4.91,13.8-8.51,12.31-8.19,21.24-14.35A74.54,74.54,0,0,1-215-39.93a87.28,87.28,0,0,1-8.93,8.8A122.65,122.65,0,0,1-234-23.4c-3.49,2.47-7.12,4.83-10.85,7.15s-7.57,4.6-11.45,6.91S-264.12-4.66-268-2.21s-7.88,5-11.77,7.69-7.7,5.57-11.44,8.65C-265-3.75-294,26.53-314.17,44.39c-20.74,15-46.4,35.73-73.41,58.38s-55.38,47.15-81.76,69.5c-5,5.64-13.71,13.43-23.71,21.92l-7.7,6.48-7.81,6.31-7.81,6.3c-1.29,1-2.55,2.1-3.85,3.11l-3.85,3c-5.06,3.93-9.83,7.7-14,11.17s-7.89,6.44-10.59,9.07c-5.41,5.25-7.12,8.73-2.57,9.18-2,1.58-4.06,3-6,4.29s-3.77,2.51-5.54,3.63c-3.54,2.23-6.79,4.11-9.83,5.73a128.4,128.4,0,0,1-16.49,7.06c-2.53.91-5,1.74-7.5,2.6s-5.08,1.66-7.74,2.62a154.5,154.5,0,0,0-18,7.78,232,232,0,0,1-27.22,20A293.33,293.33,0,0,1-678,318.31c-19.35,9.43-39.2,17-59.33,24.83s-40.5,15.85-60.83,26.17a320.34,320.34,0,0,0-30.42,17.54,286,286,0,0,0-29.35,21.91c.82-4.65-9.28-.6-21.66,5.74s-27.16,14.75-35.65,19.07l-34.42,18.5c-6.49,3.45-13.12,7.07-19.61,10.63s-12.84,7-18.69,10.41c-23.45,13.36-39.42,24.31-26.73,25.79a58.23,58.23,0,0,0,11.8-3,134.92,134.92,0,0,0,13-5.63c2.26-1.1,4.57-2.28,6.91-3.52s4.71-2.6,7.11-4c4.81-2.75,9.76-5.66,14.8-8.64,20.12-12.07,41.66-25.35,63-32.08,18.21-6.08,23.23-6.46,20.54-3.32s-13,9.8-25.65,17.35c-25.14,15.26-59.33,33.94-57.17,39.58a17.4,17.4,0,0,1,7.14-3.27c2.65-.65,5.63-1.09,9.23-1.88a70.67,70.67,0,0,0,12.87-4.15,102.14,102.14,0,0,0,17.9-10.28c-7.57,4.86-12.73,8.51-16.06,11.13s-4.8,4.28-4.93,5.28c-.26,2,4.82,1.3,10.91.11,12.11-2.43,28.33-6.82,13.76,5.28l13.4-5.76,11.6-5.09,18.71-8.12c5.37-2.31,10-4.2,14.06-5.79s7.65-2.93,11-4a147.41,147.41,0,0,1,19.12-4.82c3.39-.66,7-1.3,11.25-2l14.45-2.54c20.41-13.51,26.52-20.74,28.53-26.21s0-9.12,4.72-15.16c21.28-15.68,42.81-25.46,63.72-34.57s41.33-17.59,60.38-30.61c-10.28,16.9,8.22,10.57,35.15-4.22,6.7-3.76,14-7.94,21.37-12.52l11.22-7.06c3.76-2.4,7.54-4.79,11.25-7.32l11-7.42,5.38-3.65c1.77-1.21,3.49-2.45,5.2-3.66l9.9-7c3.16-2.24,6.21-4.32,9-6.41,7.36-5.15,13-9.45,17.46-13.11a91.3,91.3,0,0,0,9.71-9.56,34.46,34.46,0,0,0,7.12-12.48,36.21,36.21,0,0,1,7.49-13c1.2-1.41,2.61-2.95,4.29-4.64.83-.84,1.74-1.72,2.71-2.65s2-1.88,3-2.89c4.36-4,10-8.8,17.17-14.55,17-8.26,4.61,6-6.7,19.41l-4.13,4.94-3.76,4.6a34.78,34.78,0,0,0-4.76,7.09c-1.36,3.38,1.6,3.59,13-2.45l23.73-24.71c11.94-19.54,19.09-37.9,35.57-58.57,11.72-10,29.3-25,31.61-23.17-21.15,21.82-9.48,21.31,17.45,4,9.4-11.76,11.73-14.7,15.28-21.49-30.35,12.12-18.05,1.39,5.11-17,11.59-9.17,25.9-20.2,39-31.22s24.9-22,31.51-31.16c5.51-5.83,10.61-11,15.36-15.59s9.1-8.66,13.16-12.2a184.4,184.4,0,0,1,21-16.06A88.83,88.83,0,0,1-178.58-4.78c8.64-2.15,17.28-4.13,29.76-10.49a198.91,198.91,0,0,0,22-13.53c4.31-3,8.94-6.45,14-10.34s10.6-8.28,16.58-13.25c-20.61,3.92-5.36-10.06,19.16-28.22,6.15-4.5,12.84-9.32,19.69-14.15l20.6-14.43c6.76-4.69,13.2-9.28,18.91-13.57s10.77-8.16,14.6-11.62c7.33-4.61,13.75-8.09,19.52-11a160.21,160.21,0,0,1,15.93-7c10-3.72,19.15-6.31,30.95-10,7.1-6.59,29.7-20.68,31.51-25.69-7.1-2.76-17.49-3.53-30.73-2.54s-29.2,4-47.4,8.69c-9.15,2.28-18.73,5.18-28.91,8.33-5.1,1.57-10.25,3.33-15.55,5.14s-10.73,3.72-16.25,5.73c-22,8.13-45.72,17.79-70.41,28.92C-116.75-131.74-118.55-129.95-118.19-129.58Z"/></g></g><g class="cls-2"><g class="cls-5"><path class="cls-6" d="M-156.4,772.58c721.44-573.23,911,147.35,1395.21-284.2s913.44-173.76,913.44-173.76"/><path class="cls-7" d="M-377.11,632.56c152.73-119.68,389.18-264,685.18-272.43,195.3-5.55,239.87,53.1,635.6,136.21,425.5,89.36,607.58,137.57,838.6,26.37,162.36-78.16,323.24-207.36,378.5-298.8"/><path class="cls-8" d="M-539.07,410.27C-273.51,272.62,54.11,165.2,361.67,260.87,727.24,374.6,800.32,693.08,1153.94,783.76c195.87,50.23,412.73,30,809.5-224.09"/><g class="cls-9"><path class="cls-10" d="M814,318.72c-3.64,1.15-.38,5.93,7.15,12.6s19.34,15.25,33,23.9L839.74,358c-20.48-13.41-65.18-31.07-99.86-43.75-7-1.67.84,2,6,4.68,2.58,1.38,4.51,2.51,3.64,2.58s-4.55-1-13.19-3.7c-3.41-2.56.11-3.56-6.84-6.89a91,91,0,0,0-17-3.41c-4.16-.43-7.43-.48-11.79-1s-9.75-1.7-18.37-3.71c-4.3-1.05-9.37-2.41-15.46-4.18l-4.77-1.41c-1.65-.51-3.38-1-5.2-1.5-3.63-1-7.55-2.07-11.79-3.28l-10.91-4.9c-1.82-.81-3.64-1.66-5.47-2.43l-5.53-2.28-22.4-4.9c-1.86-.43-3.75-.75-5.64-1.09l-5.66-1-11.35-2c-3.79-.66-7.56-1.38-11.37-2l-11.44-1.63-11.46-1.63c-3.82-.54-7.64-1.1-11.48-1.47l-23.05-2.51c-3.83-.46-7.7-.69-11.55-1l-11.55-.9-11.55-.91-11.57-.6-11.55-.59c-3.85-.19-7.68-.46-11.54-.52l-23.05-.65c-3.83-.15-7.66-.16-11.49-.18L394,259.1,382.53,259c-3.81,0-7.62.07-11.42.09l-22.74.19c-15.11.43-30.11.55-45,1.15l-11.13.32-5.55.14-5.54.23q-11.06.45-22,.78C239,267.66,178,271.2,143.28,278.83l-1.18-2.36c-9.85,3.54-23.42,5.35-37.49,7.39S76,288.26,64.29,292l-5.45,1-5.38,1.17-5.4,1.16-5.32,1.34c-2.31-.22.12-1.86,4.87-4.08,2.4-1,5.38-2.24,8.6-3.5s6.79-2.4,10.21-3.64c13.8-4.69,26.69-8.44,16-9.16A175.3,175.3,0,0,0,49.65,285c-5,1.73-9.65,3.86-14.23,5.86s-8.84,4.27-13.08,6.59C5.39,306.7-10,317-28.86,326.52c-8.73,5.33-14.88,9.49-19.53,12.87s-7.83,6-10.55,8.35c-5.45,4.77-9.08,8.65-19.16,16.74-3.9,5.92,8.24-2.9,7.75,1l-13.18,9.74q-6.19,4.53-11.78,8.42c-7.39,5.34-14.06,9.88-20.2,13.95s-11.69,7.71-17,11-10.26,6.43-15.2,9.44c-2.46,1.52-4.92,3-7.37,4.54l-7.37,4.73c-2.48,1.62-5,3.28-7.59,5l-3.94,2.68-4,2.89c-5.41,4-11.24,8.32-17.52,13.51-3.13,2.6-6.4,5.37-9.83,8.36l-5.28,4.65-5.47,5.06c-.39,1.79-11.84,14.59-17.07,22.29-2.64,3.82-3.81,6.29-1.42,5.37a33.86,33.86,0,0,0,6.51-4.19c1.62-1.21,3.52-2.7,5.74-4.49s4.82-3.84,7.74-6.24l9.77-10.66,9.92-10.51,8.29-5.42,8.36-5.3-6.89,5.94c-2.45,2.12-5,4.4-7.55,6.69-5.13,4.6-10.42,9.26-14.88,13.59-9,8.59-15.22,15.17-12.49,14.65a66.59,66.59,0,0,0-12.45,8.43c-2.35,1.92-4.85,4-7.37,6.35s-5.11,4.82-7.73,7.41-5.29,5.27-7.95,8-5.23,5.58-7.79,8.38l-7.54,8.29c-2.43,2.72-4.74,5.4-6.95,7.93l-11.49,13.15a75.44,75.44,0,0,1-6.81,7.17c-2.63,2.12-1.14-1.77,7.05-15.4,7.11-6.37,12.84-11.71,17.81-16.31s9.06-8.6,12.72-12.43,7-7.43,10.24-11.38,6.58-8.19,10.45-13.08c-4,3.6-7.85,7.29-11.73,10.91s-7.75,7.18-11.52,10.79c-7.55,7.23-15.1,14.25-22.36,21.38l-10.88,10.55L-305,561.94c-7.09,6.93-13.88,14-20.7,20.84s-13.35,13.84-19.88,20.67-12.84,13.72-19.07,20.57c-12.48,13.71-24.47,27.31-35.87,41-3.35,6.27-6.71,12.52-10,18.81-1-.36-3.32.94-6.5,3.49a153.35,153.35,0,0,0-11.8,11.11c-9.15,9.45-20.36,22.47-30.83,35.85-8,12.29-18.85,27.58-14.6,25.06-.88,3.38,17-21.73,32.46-40.22,7.66-9.3,14.61-17,17.55-19.21s1.94,1.19-5.9,14.24c-24.71,30.49-48.93,62.64-69.69,93-1.42,2-2.82,4-4.22,6s-2.86,3.93-4.26,5.79l-4.17,5.5q-2.06,2.65-4.06,5.28c-5.32,6.91-10.26,13.42-14.58,19.71A153.14,153.14,0,0,0-542,867.52a80.38,80.38,0,0,0-6.26,16.56,71.88,71.88,0,0,1,5.74-22.31,188.46,188.46,0,0,1,10.45-20.7c3.89-6.85,8.07-13.77,12.35-21.32,2.14-3.77,4.3-7.74,6.42-11.93,1-2.1,2.12-4.34,3.11-6.49s2-4.36,3-6.63q12.3-21.71,26.32-43c9.33-14.14,19.16-28.13,29.36-41.93,20.39-27.62,42.34-54.44,64.69-80.74s45.11-52.08,68-77,45.82-49.17,68.29-72.61c1.38-.29,4-1.93,7.13-4.08s6.66-4.8,9.94-7.07c6.52-4.57,11.64-7.85,8.84-3.31a106,106,0,0,0,9.67-7.55c3.79-3.16,8-6.79,12.11-10.31s8.32-6.88,12-9.53,7-4.6,9.32-5.27c18.37-16.9,38.22-33.8,59-50.18l15.74-12.17c5.31-4,10.68-7.95,16-11.91,10.76-7.9,21.65-15.69,32.54-23.24,21.8-15.06,43.91-29.05,66.25-40.08l8.38-4c2.81-1.22,5.59-2.5,8.39-3.65l4.19-1.7c1.39-.57,2.79-1.13,4.21-1.62l8.4-3.06c2.8-1,5.62-1.84,8.4-2.76,1.39-.44,2.77-.91,4.16-1.33l4.17-1.2c2.77-.79,5.5-1.63,8.25-2.35l8.18-2.11c-6.48-.2-6.58-1.43-2.6-3.35,1-.48,2.23-1,3.69-1.56s3.15-1.07,5-1.64,3.9-1.17,6.08-1.79,4.51-1.15,6.94-1.76c9.69-2.43,21.08-4.58,31.55-6.57s20.1-3.61,26.29-5.14c12,.09,28.12-1.17,45-2.74,8.45-.78,17.09-1.66,25.48-2.52s16.57-1.58,24.06-2.23c1.6-.75,7-1.7,11.51-2.49s8-1.69,5.64-2.57c-11.11,1.11-18.69,1.67-26.39,1.9s-15.49.26-26.9,1c2.21-1.57,6.36-2.63,11.89-3.35s12.48-1,20.18-1.31c3.86-.11,7.9-.24,12.08-.29l12.82-.07c8.69-.05,17.57-.34,26.09-.57-2.94.64-5.88,1.24-8.81,1.91l-8.79,2.06c3.54-.21,7.11-.41,10.73-.54s7.27-.14,10.95-.18c7.37-.05,14.85-.09,22.4.07,15.09.48,30.41,1,45.52,1.93l11.29.58c1.87.1,3.74.16,5.6.28l5.57.35c7.4.46,14.7.82,21.86,1.05,3.57.07,7.11.29,10.6.41s7,.2,10.35.24c6.8.11,13.43-.14,19.8-.25l-5.35-1-5.37-.92L428.83,238l-10.77-1.81-5.39-.89-5.4-.77c31.69-.19,67,3.29,99.94,7.69,8.24,1.17,16.33,2.4,24.23,3.47S547,248,554.35,249c3.68.51,7.3,1,10.83,1.41l5.24.61c1.73.17,3.42.44,5.09.64,6.7.84,13,1.45,19,1.75-10.31-2.4-22.39-5-34.8-6.83l-18.53-2.9-17.74-2.31c-5.64-.74-10.93-1.53-15.69-2.23s-9-1.26-12.5-1.94c-7-1.35-11-2.83-10.57-4.56.69-.87,4.28-1.21,9.65-1.16,2.69,0,5.82.15,9.25.35l5.36.36c1.85.15,3.75.38,5.69.6,7.77.89,16.17,2,24.06,3.22l2.93.47,2.86.54,5.49,1.07c3.54.71,6.81,1.41,9.67,2.06l9.23,2.08c1.53.34,3.06.64,4.57,1l4.52,1.08q9,2.15,17.81,4l8.76,1.84,8.62,2q8.58,2,17,3.71c5.64,1.11,11.15,2.49,16.63,3.75l16.35,3.71c5.43,1.12,10.72,2.6,16,3.91l15.82,4c5.27,1.25,10.4,2.85,15.56,4.34l15.38,4.58c10.23,3,20.27,6.7,30.2,10.52A408.47,408.47,0,0,1,814,318.72Z"/><path class="cls-10" d="M423,225.48c-3.3-.07-7.16-.29-11.37-.41s-8.8-.28-13.56-.49l-29.22-1.5c-4.73-.27-9.28-.58-13.45-.94-2.09-.18-4.08-.37-5.95-.57s-3.63-.34-5.25-.52c-6.47-.75-10.69-1.73-11.18-3-4-.31,2.69-3-12.25-1.74,5.89.25,14.61.37,24.53.51l3.78,0,3.87.14,7.95.31c5.36.21,10.82.45,16.18.73C398.53,219.51,418.19,221.82,423,225.48Z"/><path class="cls-10" d="M388.26,233.78c1.26,1,.5,1.47-1.47,1.69a79,79,0,0,1-8.73,0c-7.15-.22-15.89-.89-19.64-.87l-7.86-.79c-2.62-.25-5.24-.42-7.87-.63,7.4-.71,15.79-.93,23.83-1S382.26,232.56,388.26,233.78Z"/><path class="cls-10" d="M160.86,235.42c-19.3,1.58-9.47-.81-.49-3s17.08-4-5.9-1.68c8.8-1.24,17.58-2.35,26.34-3.42l10.22,4.8Q176,233.63,160.86,235.42Z"/><path class="cls-10" d="M101.19,239.05c-10.79,3.4-21.91,6-41.6,10.14l10.14-4.87c3.54-1.33,7.62-1.84,12.69-2.52,2.54-.33,5.33-.6,8.43-1,1.56-.22,3.19-.47,4.91-.77S99.29,239.42,101.19,239.05Z"/><path class="cls-10" d="M153.33,244.33c-18.19,3.65-15.83.44-27.76,1,1.67-.68,5.41-1.3,9.79-1.81s9.38-.76,13.59-.89C157.37,242.46,162.59,243,153.33,244.33Z"/><path class="cls-10" d="M-5,328.27c5.75-6.13,16.18-12.67,28.6-18.67,1.55-.78,3.14-1.44,4.75-2.18s3.24-1.5,4.9-2.15l5-2.07c1.71-.67,3.5-1.3,5.26-2l5.33-2,5.47-1.91,5.48-2,5.55-1.87L60,295.33c-1.69.65-3.31,1.31-4.89,1.93C52,298.53,49,299.68,46.24,301s-5.43,2.45-8,3.69l-3.74,1.88c-1.24.61-2.48,1.23-3.73,1.92-2.48,1.34-5,2.59-7.62,4.06l-4,2.16L15,317C9.18,320.2,2.71,323.85-5,328.27Z"/></g><g class="cls-3"><path class="cls-4" d="M848.65,551.33c.38,6.47,15.94,7.27,33.08,3.36l-.36,11.52c-6.61,1.3-15,5.67-23.83,11-4.42,2.63-9,5.52-13.44,8.36s-8.92,5.61-13.14,8.09c-5.52,5.48,17.33-6.31,1.69,5.13-2.59-.14-2.43-3-6.41-1.8-6.81,5.39-7.32,8.61-10.28,12.58s-8.44,8.7-25,17.14l-13,2.22c-3.42,2-6.81,4.12-10.2,6.22q-2.55,1.59-5.09,3.19l-5.2,3.28L736.7,655c-13.92,8.89-27.89,17.84-42.08,26.34-28.33,17-57.42,32.47-87,43.11-2,2.27-5.47,4.71-9.76,7.17s-9.36,5.11-14.79,7.63-11.08,5.17-16.53,7.65c-2.72,1.26-5.36,2.52-7.86,3.78s-4.89,2.45-7,3.68l-1.45-2.54A26.74,26.74,0,0,1,541.7,757a83,83,0,0,1-11,3.3c-1.94.47-3.91.91-5.87,1.35L519,762.86a82,82,0,0,0-10.72,3l-12.63,1.21c-3-1.54,5.26-4.8,12.62-8.11s13.84-6.78,7.46-8.37a81.78,81.78,0,0,0-9.3,2.19c-2.93.86-5.71,1.83-8.39,2.88-5.34,2.14-10.27,4.52-15.1,6.84-9.65,4.64-19,8.93-30.46,9.66-21.33,4.9-18,7.37-30.62,12.53-2.57,3.75,5,1.55,4.53,5.18-23.39,7.47-36.69,7.43-49.25,7.19s-24.4-.83-45,5.06c-.92,2.73-32.62,17-.86,12.63l14-6.64,10.82.61c-11.37,3-32.35,8-29.12,10.63-4.41-1.7-11.33-.7-18.8,1.38-3.74,1-7.6,2.34-11.36,3.72s-7.44,2.82-10.65,4.13c-6.47,2.62-11.55,4.7-13.36,4.67s-.33-2.34,6.37-8.33c9.8-1.14,16.22-2.17,21.52-3.87s9.55-4,15.29-7.76c-11,2.5-21.77,4.69-32.12,6.74s-20.39,4-30.25,6c-19.74,4-38.59,8.1-56.68,12.82l-9.42,7.54c-1-2.22-6.11-3-13.19-2.77a209.66,209.66,0,0,0-25.07,2.58c-1.83.69-3.81,1.32-5.72,1.9s-3.75,1.07-5.27,1.55c-3,1-4.79,1.86-3.37,2.78-.72.89,3,.6,8.47-.12,2.75-.36,5.91-.9,9.21-1.41l9.88-1.53c6.36-1,11.91-1.53,14-.92s.83,2.56-6.57,6.52a464.4,464.4,0,0,1-62.64,8.18c-20.13,1.14-38.53.22-52.31-2.2,4.92-.72,9.49-1.25,13.9-1.77s8.63-1.27,12.87-2.07l3.19-.64c1.06-.25,2.12-.52,3.18-.8,2.14-.57,4.29-1.2,6.48-1.92a91.92,91.92,0,0,0,13.73-5.78C142.13,839,177,829.71,211.37,819.79c17.21-4.94,34.3-10,51.07-15.17s33.28-10.41,49.06-16.4c3.22,2.63,20.78-.47,16.45,4.14,6.62.75,22.65-6,28.34-2.51,24.61-8.8,51.82-16.48,78.48-23.93,13.34-3.69,26.52-7.39,39.21-11s24.82-7.27,36-10.95c-7.59-2-1.25-5.49,8.3-9.6,4.77-2.11,10.38-4.26,15.44-6.51a81.07,81.07,0,0,0,12.37-6.42,55.39,55.39,0,0,0,10.62-2.15c1.91-.55,3.88-1.19,5.88-1.89s4-1.53,6.06-2.36c8.17-3.27,16.43-7.37,23.56-10.53,1-2,9.55-6.52,6.44-7.73a56,56,0,0,1-12.5,5.43c-3.82,1.15-7.73,2.15-13.33,4,1-3.78,6.8-6.27,14.4-8.57l12.31-3.7a107.91,107.91,0,0,0,12.64-4.61c-2.29,2.33-4.56,4.69-6.87,7,13.31-6,29-10.47,43.88-15.9s29.09-11.57,39.21-20.6c-7.52,1.88-15.09,3.61-22.61,5.36,13.8-8.83,30.4-16.45,45.72-24.3s29.27-16,37.7-25.39c-5,2.33-10.45,5.52-16,8.81s-11.12,6.74-16.23,9.59c-10.18,5.77-18.37,9.35-20.09,5.63-1-4.33,20.94-16.64,32.11-21.22a173.71,173.71,0,0,0,17.2-8c5.5-2.91,10.69-6,15.71-9.17,10-6.29,19.3-12.91,28.44-19.27C808.68,569.15,826.37,557.47,848.65,551.33Z"/></g></g></g><g class="cls-2"><g class="cls-11"><path class="cls-12" d="M-433.72,650.21c404.59-572.94,510.43,147.57,782-283.78S895.57,193,895.57,193"/><path class="cls-13" d="M-527.55,495.33c85.66-119.62,218.24-263.88,384.12-272.2C-34,217.64-9,276.29,212.69,359.49,451.09,449,588.39,497.22,717.91,386.1c91-78.1,146-207.25,177-298.66"/><path class="cls-14" d="M-534.56,445.43c148.85-60.06,332.48-106.89,504.81-65C175.09,430.2,216,569.35,414.12,609.06c109.75,22,266.56,13.25,489-97.65"/><g class="cls-9"><path class="cls-10" d="M372.46,346.87c-12.39-8.19-32.52-23.24-27.65-23l-1.58-3c5.06,3.6,18.38,12.84,27.38,20,4.5,3.58,7.92,6.58,8.73,7.93S378.38,349.87,372.46,346.87Z"/><path class="cls-15" d="M368.74,358c-9.74-8.12-1.5-3,.84-2.46q7,5.25,13.84,10.57C386.9,370.25,374.87,362,368.74,358Z"/><path class="cls-10" d="M349,372.93l3.7,3.41a139.45,139.45,0,0,0-13.48-10.64c.37-1.26,8.78,3,16.38,9.27C353.3,374.48,345.45,368.91,349,372.93Z"/><path class="cls-10" d="M158,206.27c-1.3.39-1.49,1.47-.82,3.07a32.27,32.27,0,0,0,4.35,6.29,114.92,114.92,0,0,0,8.11,8.72c1.6,1.59,3.34,3.17,5.11,4.88s3.6,3.46,5.49,5.25c-3.3.32-6.59.74-9.82,1.14a92.93,92.93,0,0,0-11.26-8.4l-3.5-2.25-1.83-1.15c-.62-.36-1.27-.7-1.92-1.06-2.6-1.41-5.32-2.84-8.1-4.29l-4.23-2.16c-1.42-.72-2.83-1.5-4.33-2.11l-8.89-3.89-4.41-1.93-2.19-1c-.73-.31-1.48-.56-2.21-.85l-8.59-3.31c-4.48-1.09.47,1.44,3.72,3.3s4.83,3.07-6.2-.6c-2.11-1.83.22-2.59-4.16-5-10.2-2.59-13-1.85-18.65-2.37a68.28,68.28,0,0,1-11.86-1.83c-1.37-.31-2.86-.68-4.5-1.1s-3.46-.74-5.43-1.2-4.11-1-6.44-1.53L51.79,192l-1.92-.49-2-.42-14.3-5.65a349.6,349.6,0,0,0-59-3.53c-5,.14-9.93.17-14.89.59l-7.45.49c-2.47.17-4.95.3-7.43.6L-70,185.18l-14.78,2c-2.46.3-4.91.77-7.36,1.17l-7.34,1.23c-4.82.77-9.93,1.72-14.84,2.6-9.87,1.78-19.47,3.59-28.75,5.7-18.58,4.17-35.87,9.64-51.29,17.4A48.32,48.32,0,0,1-198.7,219c-.88.64-1.74,1.42-2.69,2.18s-1.93,1.55-3,2.36c-4,3.26-8.6,7.28-13.35,11.94a224.22,224.22,0,0,0-26,30.42l-1.79-.77c-3,6.14-8.85,13.08-15.21,20.32s-13.12,14.62-18.07,21.43L-289.23,318c-3,1.42,3.16-7.51,8.63-15.72s10.38-15.67,4.43-11.68c-2.74,3-5.26,6-7.61,9s-4.46,5.93-6.49,8.84-4,5.78-5.75,8.66l-5.22,8.52c-6.83,11.23-13.14,22-22.26,32.68-15.59,22.16-12,20.82-20.1,35.48-.32,2.33.78,1.42,2.08.25s2.84-2.54,3.3-1.22c-3.89,6.47-7.36,12.15-10.64,17.14s-6.17,9.42-9,13.36-5.36,7.46-7.86,10.72-4.91,6.27-7.25,9.26-4.64,5.94-7,9-4.75,6.36-7.2,10-5,7.65-7.76,12.24-5.53,9.78-8.6,15.73c.43,2.49-15.83,42.12,4.62,8,2.33-5.89,4.78-11.71,7.17-17.58,2.64-3.45,5.34-6.86,8-10.27-3.54,6.39-8.43,15.53-12.09,22.81S-401.66,506-400,505.14c-7.68,6.83-17.51,30-24.2,46.36-3.34,8.2-5.92,14.67-7.18,16.51s-1.22-1,.81-11.29c6.26-10.89,10.21-17.87,13.08-24.22a142.85,142.85,0,0,0,7.27-19.75q-9.88,18.72-19.21,36.37t-18,34.64C-459,606.31-469.51,628-478.59,649.37c-.77,4.61-1.58,9.2-2.3,13.81-3.24-.29-13.78,19.88-22.25,40.47-2.71,9.2-7.05,20.72-4.6,18.46.13,2.33,7.19-16.62,13.56-31.07,3.15-7.23,6.13-13.35,7.66-15.23s1.66.46-.71,10.18c-5,11.86-9.91,23.93-14.72,35.85l-3.55,8.92-1.79,4.47c-.64,1.55-1.26,3.14-1.9,4.64-2.54,6.09-5.13,11.82-7.58,17.33s-4.81,10.83-7,16-4.08,10.08-5.84,14.83A189.26,189.26,0,0,0-537,813.94a119.27,119.27,0,0,1,1.65-16.1c.94-5.12,2-10.06,3.23-15.07,2.43-10,5.26-20.28,7.89-33,1.69-5.19,3.44-10.41,5.12-15.72l5-15.84c3.44-10.54,7.05-21.11,10.93-31.63,7.7-21.06,16.26-42,25.19-62.71s18.23-41.13,27.38-61.27,18.18-39.95,26.74-59.35c3.38-1.79,14.5-21.26,13.34-14.28,2.51-3.11,6-9.6,9.48-15.79s7.19-12,9.94-13.81c1.78-3.68,3.66-7.35,5.58-11l5.84-11.16,6.15-11.2c1-1.87,2.09-3.74,3.13-5.63l3.24-5.6c8.57-15,17.87-29.89,27.28-44.46s19.22-28.63,28.83-42,19.14-26,28.24-37.63c-7.18,4.86-2.53-2.8,5.12-13.42,3.83-5.3,8.4-11.33,12.6-16.88s8.07-10.62,10.33-14.13c6-5.12,13.23-12.78,21.19-20.45s16.74-15.24,25.08-20.43c.68-1,3.59-3.08,6-4.92s4.28-3.26,2.59-3.24c-1.58,1-3.09,1.74-4.43,2.6s-2.62,1.6-3.84,2.31l-1.8,1-1.68,1.05-3.31,2a113.39,113.39,0,0,0-14.71,10.25c.52-1.77,2.29-4.07,5.16-6.54A67.61,67.61,0,0,1-213.33,202c9-5.22,20.52-9.88,31.11-13.75-1.72,1-3.37,2.18-5,3.26l-2.48,1.64-2.42,1.75a141.1,141.1,0,0,1,27.38-9c9.61-2.21,19.5-3.69,29.28-4.94s19.47-2.3,28.75-3.7c9.25-1.22,18-3,26.14-4.74l-7.13-.17c-2.38-.07-4.74,0-7.12,0-4.75,0-9.54.06-14.31.15,5.07-1,10.34-1.86,15.69-2.69l4-.6,4.09-.45,8.24-.84c5.52-.63,11.1-.84,16.64-1.15,2.78-.12,5.54-.34,8.29-.39l8.22-.13,8.08-.17,7.92.08c5.2.06,10.27-.08,15.13.1s9.53,0,14,0,8.59,0,12.48-.32c-3.44-.47-7.18-.89-11.08-1.28-1.95-.23-3.95-.31-6-.4L-9.56,164c-8.21-.48-16.56-.18-24-.24-1.87,0-3.67,0-5.41.09l-5,.08c-3.15,0-6,0-8.3-.16-4.67-.22-7.45-.73-7.35-2.09.35-.72,2.63-1.44,6.12-2.05s8.2-.92,13.34-1.21l3.92-.21c1.33,0,2.68,0,4,0,2.7,0,5.41,0,8,.11s5.18.1,7.55.29,4.57.42,6.49.64C6.57,161,22.13,163.12,37.14,165c14.93,2.34,29.33,4.5,43.22,7.9l10.38,2.5c3.41,1,6.78,2,10.16,3.05l5,1.59c1.67.55,3.38,1,5,1.69q4.94,1.89,9.81,3.88a170.35,170.35,0,0,1,19.09,9.15l4.67,2.57c1.54.89,3,1.9,4.53,2.87Q153.54,203.13,158,206.27Z"/><path class="cls-10" d="M76.31,164c-1.69-.51-3.35-.8-4.91-1.16l-4.48-.95c-2.85-.59-5.41-1.09-7.74-1.51-1.17-.2-2.27-.42-3.32-.55l-3-.33c-1.9-.19-3.6-.32-5.14-.42-3.08-.19-5.5-.2-7.58-.14-1,0-2,.07-2.91.17l-2.66.33c-6.93,1-13.4,1.14-39.83-.67,3.39-1.29-1.34-2.78-9.24-4.06-1-.16-2-.32-3.09-.47l-3.32-.31c-2.28-.19-4.68-.36-7.11-.51s-4.89-.25-7.3-.34-4.77,0-7,.09c-4.28.61-8.79,1-13.35,1.39s-9.2.86-13.78,1.19l-3.42.25-3.37.33-6.58.64c-4.29.43-8.4.78-12.11,1.4-5.12.46-7.47-.21-6-1.37a16.19,16.19,0,0,1,5.13-2c1.38-.37,3-.78,4.94-1.13s4.16-.64,6.69-.94c3.15,0,6.35-.07,9.57-.19s6.52-.11,9.83-.24,6.65-.26,10-.45l10.22-.33,5.16-.22c1.72-.07,3.45-.2,5.19-.19l10.47-.21,5.27-.14c1.75-.07,3.52,0,5.28,0l10.58.1c3.52,0,7,.21,10.56.4L18.4,152c3.48.25,6.93.71,10.35,1.09s6.83.78,10.18,1.28,6.64,1.21,9.9,1.86l4.84,1c1.6.35,3.19.66,4.75,1.12q4.68,1.29,9.16,2.68L72,162.47C73.47,163,74.92,163.4,76.31,164Z"/><path class="cls-15" d="M116.69,193.93c-12.54-4.93-16.09-7.4-19.56-10.12a33.43,33.43,0,0,0-6.45-4,75.35,75.35,0,0,0-13.76-4,34,34,0,0,1,14.65,2.82c2.51,1.07,5.39,2.37,9.11,3.9,1.86.76,3.93,1.58,6.28,2.46s4.87,2,7.78,3.15l-7-1.75-7.1-1.39,4.09,2.1,2,1.05,2,1.16Z"/><path class="cls-15" d="M371.25,365.22a242.48,242.48,0,0,0,26.09,19.59c9.11,6,18,11.18,24.19,15-10.33-6.72-21.66-15.21-32.19-23.26S369,361,362,355.85C359.69,355.35,367.51,361.68,371.25,365.22Z"/><path class="cls-10" d="M784,437.82c-17.09-.27-37.42-1.68-58.14-2.74s-41.81-1.89-60.63-.73c8.59,1.13,13,1.88,18.57,2.8s12.42,1.81,25.91,3c-20.58,4.28-41.62-3.25-65.8-5.31,19.68,2.9-6.5,3-23.44,1.55-4-.61-8.24-1.22-12.76-1.82s-9.25-1.36-14.19-2l-31.67-4.42c-22-3.1-45.2-6.81-66-11.92-2.3-.31-5.2-.93-8.53-1.67-1.67-.38-3.41-.86-5.24-1.34s-3.75-1-5.69-1.59l-5.95-1.81-6.06-2c-2-.65-4-1.39-6-2.12l-2.95-1.07-1.46-.52-1.34-.54c-7.06-2.73-13.35-5.87-17.57-7.74s-6.45-2.33-5.27-.09c-1.41-.79-2.72-1.57-4-2.37s-2.39-1.53-3.48-2.27c-2.16-1.52-4.08-2.89-5.77-4.27a101.41,101.41,0,0,1-8.38-7.55c-4.78-4.8-8.68-9.32-16.32-15.78-6.41-3.85-12.5-7.93-18.43-12.11S361.81,343,356.28,338.7c-11.07-8.52-21.53-17.26-32-26s-21-17.53-32.17-26.15l-4.21-3.23-4.25-3.2c-2.86-2.12-5.79-4.29-8.8-6.42-6-4.29-12.4-8.58-19.25-12.77,2.51,0-2.51-4.82-9.43-10.67s-15.82-12.69-20.81-16.62c-5.48-4.24-13-9.87-21.23-15.57-2.06-1.43-4.16-2.86-6.32-4.26s-4.28-2.81-6.48-4.14c-4.33-2.77-8.7-5.09-12.76-7.33-2-1.11-4-2.17-5.87-3.15l-2.74-1.42c-.88-.46-1.75-.89-2.61-1.25-3.43-1.49-6.36-2.67-8.61-3.4-4.49-1.46-6.21-1.14-3.63,1.86a62.72,62.72,0,0,0,6.65,4.65q1.88,1.17,4,2.34c1.35.85,2.75,1.7,4.2,2.57,2.91,1.72,6,3.47,9.28,5.26l5,2.72,5.06,3c13.61,8.06,27.54,17.63,37.68,27.91,8.79,8.78,10.45,11.34,8.11,10.26s-8.77-5.77-16.53-11.36-16.92-12-24.52-16.62-13.58-7.39-14.44-6.38a16.67,16.67,0,0,1,4.25,2.88c1.32,1.15,2.63,2.54,4.32,4.18a85.92,85.92,0,0,0,6.56,5.68,131.46,131.46,0,0,0,11,7.54c-9.7-6.35-13.92-8.32-14.92-8.18s1.11,2.55,3.76,5.34c5.29,5.65,12.56,13.09,2.16,7.49,10.11,8.28,17.24,14.61,22.7,19.54s9.17,8.53,12.2,11.7c6.08,6.36,9.25,11.07,17.88,22,13.05,9.35,18.71,11.61,22,12s4.39-1,8.84.61c14.54,8.72,26.52,17.85,37.91,26.84s22.17,17.73,34.33,25.54c-5.64-1.49-6.21-.16-3.5,3s8.67,8,16.11,13.92,16.53,12.84,25.8,19.48,18.78,12.89,26.69,17.53c10.14,6.16,17,8.75,21.45,10a35.52,35.52,0,0,0,5.47,1,31.36,31.36,0,0,0,3.66,0,30.82,30.82,0,0,1,3.74,0,46.92,46.92,0,0,1,5.47.78c1.16.22,2.45.52,3.92.89l5,1.31c1.86.5,3.94,1.11,6.26,1.8s4.93,1.4,7.8,2.26c11,4.91-1.05,3.26-12.3,1.21-5.62-1-11-2.14-13.18-2.05s-1.15,1.35,6.19,4.92c7.37,1.74,14.74,3.37,22.12,4.7,1.83.06,3.62.12,5.38.12l5.21-.07c3.43,0,6.81-.22,10.26-.32,6.89-.25,14-.45,22.45-.09,9.78,1.74,24.46,3.85,24.66,5.13-9.7-.77-13.22-.25-11.81,1.15s7.77,3.65,17.79,6c9.6.05,12,0,16.64-.62-19.14-7.08-8.73-5.74,9.95-2.92,9.38,1.31,20.86,3.13,31.79,4.16s21.29,1.63,28.37,1c10.25,0,18.58.13,25.48.45s12.37.72,16.88,1.32a83.91,83.91,0,0,1,19.41,4.64,97.34,97.34,0,0,0,19.18,5.09,153.83,153.83,0,0,0,16.6,1.63c6.78.39,15,.5,25,.32-12.2-4.23,1.1-4.72,20.7-4.72s45.54.52,58.63-.88c22.22.35,30.28,2.5,45.79,5,6.12-.82,23.27-1.24,25.87-2.72-6.19-5.14-22.16-10.14-44.88-15s-52.17-9.55-85.19-14.52C785.52,437.45,784,437.6,784,437.82Z"/></g><g class="cls-3"><path class="cls-4" d="M264,341.91c.78,3,5,3.48,11,2.07a64.53,64.53,0,0,0,10.17-3.41,116.49,116.49,0,0,0,11.62-5.75l1.75,11A58.2,58.2,0,0,0,288.45,353c-3.57,3.06-7.32,6.7-11.2,10.55-1.93,1.93-3.88,3.93-5.83,6l-5.93,6.06c-3.91,4.06-7.89,8-11.67,11.59C249.2,394,270,376,256.29,391.5c-2.6.64-2.86-2.13-6.66.17-6,7.08-6,10.31-8.55,14.92s-7.31,10.79-23.62,23c-4.37,1.8-8.86,3.45-13.26,5.15-13.66,10.85-27.64,21.72-42.13,32.13-3.59,2.64-7.28,5.16-11,7.71s-7.41,5-11.16,7.49-7.49,4.85-11.24,7.2-7.54,4.63-11.32,6.92c-30.29,18.13-61.47,33.33-92.21,44.49-4.41,4.43-14.47,9.61-25.58,15-5.55,2.67-11.37,5.39-16.87,8.09-2.75,1.36-5.41,2.7-7.94,4-1.26.66-2.49,1.33-3.67,2s-2.22,1.3-3.26,2l-1.47-2.26c-4.2,4.27-11.17,7.1-18.75,9.75-3.79,1.32-7.72,2.57-11.52,3.93a91,91,0,0,0-10.64,4.42l-12.82,3.12c-3.18-1,5.09-5.3,12.32-9.55s13.57-8.35,7-8.91c-13.21,4.07-23.07,10.4-32.77,16.27-2.41,1.49-4.84,2.91-7.28,4.29s-4.9,2.71-7.49,3.87a82.08,82.08,0,0,1-8,3.2,68.61,68.61,0,0,1-8.72,2.2c-2.79,1-5.26,1.71-7.36,2.46s-3.88,1.41-5.42,2.05a52,52,0,0,0-7.14,3.25c-1.86,1-3.43,2.06-5.45,3.11a72.37,72.37,0,0,1-8,3.64c-1.56,1.76-.18,2.13,1.48,2.39s3.61.49,3.26,2.21c-3.29,1.12-6.54,1.88-9.57,2.64-1.52.36-3,.71-4.43,1s-2.89.51-4.27.74c-2.78.44-5.4.81-7.9,1.09s-4.93.3-7.21.37a86.69,86.69,0,0,1-12.13-.44c-1.84-.16-3.61-.35-5.34-.55s-3.42-.5-5.09-.76l-10-1.55c-3.39-.54-6.9-1-10.71-1.36s-7.91-.7-12.49-.78-9.64-.13-15.37.09c-.81,1.1-10.4,3.17-15.51,5.17-2.56,1-4,2.09-2.68,3.12s5.42,2.08,14.06,2.84c5.44-.92,10.93-2,16.37-3,3.75.95,7.54,1.75,11.34,2.63-3.2.13-7.09.33-11,.44s-8,.28-11.55.49c-7.08.36-12.25,1.09-10.9,2.62a23.26,23.26,0,0,0-8.43-2.56,86,86,0,0,0-11.55-.64c-4.16,0-8.53.23-12.79.49s-8.45.64-12.2,1c-15,1.25-23.58,2-6.19-5.07,21.08,3.16,27.39,2.78,41.31-1.13-24.2-.72-46.57-2.93-67.76-4.75-10.58-.9-20.88-1.77-30.92-2.33-5-.32-10-.51-14.89-.67s-9.9-.21-14.77-.24L-425,624.57c-.82-4.42-19.9-7.37-38.62-8.55-8.06,1-18.43.59-15.95,2.79-3.64,2.69,68.23,1.67,34.66,9.46-43.57-1.86-89.61-5.92-117.54-12.34,20.4-1,35,.17,56.58-5.77,36.51-2.92,74.55-3.3,112.26-3.66,18.84-.09,37.63.28,56.15.24s36.76-.51,54.41-2.16c2.57,3.18,21.36,4.25,15.77,7.42,3.31,1.11,9.53.88,15.54,1s11.83.32,14.42,2.37c3.45-.47,6.94-.93,10.46-1.36l10.64-1.44c3.57-.43,7.15-1.05,10.76-1.55,1.81-.28,3.61-.49,5.44-.8l5.51-1a316.69,316.69,0,0,0,43.35-11.13c14.07-4.62,27.65-9.93,40.53-15.3S-85.55,572-74.28,566.89c-15.8-1.28,24.88-17.38,36.41-25.52,13.3-1.94,33.3-12.08,48.31-18.78,1.12-2,10.24-6.54,7.09-7.56-10.72,5.81-15.48,6-27.25,10.18C-7.32,517.87,15,514.87,32,507.48l-7.54,6.86c14.14-6.19,30.56-11,46.25-16.66s30.67-12.28,41.52-21.52c-3.92,1.11-7.81,2.23-11.74,3.26s-7.82,2.1-11.75,3.07c14.68-9,32.08-17.21,47.79-26.22s29.78-18.69,37.87-29c-9.74,6.06-21.88,15.22-32.23,21.82s-18.84,10.56-20.44,7.18c-.24-1,1-2.64,3.15-4.54,1.08-.95,2.39-2,3.86-3s3.07-2.25,4.77-3.41,3.52-2.33,5.35-3.47,3.65-2.33,5.46-3.42,3.58-2.13,5.25-3.06,3.21-1.83,4.6-2.54a170,170,0,0,0,32-21.39q3.52-3,6.9-5.94t6.55-6.11l3.21-3.05,3.12-3.1,6.16-6.15C228.27,370.51,243.37,354.49,264,341.91Z"/><path class="cls-4" d="M201.39,382.22C184.8,396.64,182,402,179.48,407.31a33.68,33.68,0,0,1-5.77,8.67,54.8,54.8,0,0,1-6.35,6,124.71,124.71,0,0,1-10.6,7.84c1-3.17-3.21-2.46-9.1,0-3,1.2-6.38,2.76-9.77,4.53L132.83,437c-1.66.9-3.26,1.82-4.75,2.72a68,68,0,0,1-8.36,6.44c-1.49,1-3,2-4.56,2.93s-3.16,1.85-4.75,2.74c-3.18,1.77-6.34,3.46-9.41,5s-5.94,3.11-8.59,4.54c-3.81,1.57-6,1.15-5.55-.63s3.7-4.85,10.6-8.8a110.29,110.29,0,0,0,14.22-5.64c2.35-1.11,4.62-2.33,6.92-3.59s4.6-2.54,6.84-4c4.5-2.84,9-5.81,13.35-9.07,2.19-1.62,4.4-3.19,6.54-4.89l6.43-5.08C168.83,406.06,184.71,391.49,201.39,382.22Z"/><path class="cls-15" d="M245,372.94a37.82,37.82,0,0,1-9.55,7.39,24.59,24.59,0,0,1-6.41,2.1,19.82,19.82,0,0,0-6.16,2.23c-2.35,1.34-5.09,3.66-8.87,7.71,1.91-4.89,4.13-7,7.85-9.47,1.85-1.24,4.06-2.63,6.71-4.6a92,92,0,0,0,9.53-8c-2.22,3.38-4.53,6.66-6.81,10C235.84,377.92,240.43,375.47,245,372.94Z"/><path class="cls-4" d="M91.28,469.54a170.06,170.06,0,0,1-26.34,12c-9.59,3.4-18.09,5.24-19.65,3.07-2.07.5,0-3.43-6.78.77,6-1.84,17.3-6.59,28-10.52A148.24,148.24,0,0,1,81.39,470C85.76,469,89.29,468.63,91.28,469.54Z"/><path class="cls-15" d="M156.6,455.31c-1.56,1.33-3.17,2.63-4.86,3.93s-3.52,2.54-5.45,3.87-4,2.69-6.24,4.15l-7.39,4.56c3.26-2.54,6.77-5.52,10.63-8.54a65.45,65.45,0,0,1,6.22-4.28A52.6,52.6,0,0,1,156.6,455.31Z"/><path class="cls-4" d="M79.33,486.89c2.15,1.14-.46,2.72-4.06,4.26s-8.21,2.93-10,3.86c-2.8.75-5.63,1.46-8.44,2.17C63.68,492.88,72.53,487.91,79.33,486.89Z"/><path class="cls-4" d="M613.7-122.4c-9.38,11.3-21.25,24.21-32.45,38.14S559.57-55.43,553-40.35c4.92-5.6,7.77-8.2,11.28-11.61s7.6-7.66,15.14-16.46c-2.29,9.19-7.84,16.1-14.43,22.83-3.26,3.38-6.77,6.71-10.25,10.26a101.22,101.22,0,0,0-9.87,11.55c11.33-12.75.8,7.15-7.11,19.24-17.5,21.05-41.44,57.12-62.07,87.84-3.36,7.36-13.33,21.2-21.17,32.92s-13.56,21.31-8.35,20.34a86.6,86.6,0,0,1-8.29,11,51.15,51.15,0,0,1-3.63,3.69c-1.17,1.06-2.3,2-3.43,2.91-2.24,1.79-4.44,3.4-6.74,5.31a75.38,75.38,0,0,0-7.58,7c-5.49,10.95-12.81,19.9-20.76,27.88-4.07,3.92-8.22,7.66-12.58,11.21s-8.74,7-13.29,10.39c-18,13.65-36.62,27.12-52.07,49.66-.74-5.51-19.34,13.61-27.07,20.81-4.11,4-9.65,9.39-15.35,15.33l-4.3,4.49c-1.39,1.47-2.77,2.95-4.14,4.41-2.7,2.91-5.29,5.82-7.68,8.54-9.54,10.92-15.52,19.43-8.46,18.35a29.59,29.59,0,0,0,5.59-3.43,60.74,60.74,0,0,0,5.66-5.06c3.84-3.79,7.73-8.4,11.8-13.2,2-2.37,4.17-4.89,6.37-7.37s4.45-5,6.78-7.28a82.11,82.11,0,0,1,14.78-12.09c17.74-11.2,10.71-3.08-.11,8.59L293.19,307c-2.85,3.14-5.57,6.31-7.9,9.16a58.6,58.6,0,0,0-5.35,7.43c-1.16,2-1.58,3.51-1,4.23,1.57-2.59,4.1-3.3,7.62-5.21s8-5,13.58-12.28c-12.37,14.94-8,13.55-2,10.58s13.81-7.38,8.48,1.18c17.06-13.95,25.05-20.05,31.45-23.9s11.36-5.28,22.71-9.76c17.89-19.87,7.94-19.31,10.75-27.25,8.64-11.35,18.23-19.66,27.63-27.66,4.64-4,9.33-7.92,13.63-12.19,2.18-2.12,4.29-4.29,6.33-6.56s3.91-4.71,5.72-7.25c-.79,5.47.89,6.6,4.21,4.8a32.1,32.1,0,0,0,6.06-4.7c2.3-2.23,4.88-5,7.63-8.14s5.55-6.73,8.45-10.45c1.43-1.88,2.92-3.76,4.32-5.73l4.19-5.94,4.1-5.89,3.75-5.57,6.71-10c21.62-30.35-1.33-16.16,21.74-48,15.67-13-16.4,37.05,3.12,19.14l8.28-16.26c2.79-12.08,3.18-23,8.35-36.17,4.6-6.81,11.51-17,13.15-16.25-7.58,14.34-1.18,12.75,10.51.29,3-7.51,3.72-9.37,4.39-13.5-14.6,10-9.8,2.75-.38-9.89,4.7-6.32,10.58-14,15.77-21.45s9.69-14.82,11.66-20.57q3-5.7,5.61-10.27c1.79-3.05,3.47-5.74,5.06-8.14a80.72,80.72,0,0,1,8.63-11.15,42.43,42.43,0,0,1,13.85-10c4.35-2.14,8.8-4.14,14.49-9a91.67,91.67,0,0,0,9.59-9.9c1.8-2.13,3.72-4.54,5.77-7.28s4.28-5.76,6.64-9.17c-10.62,4.42-4.87-5,5.17-17.84,5-6.38,11.1-13.63,16.7-20.37s10.69-13.07,13.53-17.83a94.16,94.16,0,0,1,16-14c2.36-1.61,4.68-3,7.1-4.46s5-2.86,7.87-4.56c2.61-4.5,12.23-14.9,12.27-17.94-4.38-.79-10.17-.09-17.19,1.93a112.24,112.24,0,0,0-11.32,4.1c-4.07,1.67-8.36,3.71-12.89,6-18.13,9.31-39.86,23.61-62.84,41.51C614.09-123.76,613.44-122.56,613.7-122.4Z"/></g></g></g></svg>