<svg id="Layer_1" data-name="Layer 1" xmlns="http://www.w3.org/2000/svg" xmlns:xlink="http://www.w3.org/1999/xlink" viewBox="0 0 767 1023"><defs><style>.cls-1,.cls-13,.cls-14,.cls-15,.cls-4,.cls-5,.cls-6{fill:none;}.cls-2{opacity:0.12;}.cls-3{clip-path:url(#clip-path);}.cls-13,.cls-4{stroke:#a5d8ff;}.cls-13,.cls-14,.cls-15,.cls-4,.cls-5,.cls-6{stroke-miterlimit:10;}.cls-4{strokeWidth:7.94px;}.cls-14,.cls-5{stroke:#c28cae;}.cls-5{strokeWidth:8.29px;}.cls-15,.cls-6{stroke:#f7c2a3;}.cls-6{strokeWidth:8.48px;}.cls-7{opacity:0.53;}.cls-8{fill:#fd5070;}.cls-9{fill:#fff;}.cls-10{opacity:0.49;}.cls-11{fill:#f7c2a3;}.cls-12{clip-path:url(#clip-path-2);}.cls-13{strokeWidth:5.95px;}.cls-14{strokeWidth:6.2px;}.cls-15{strokeWidth:4.19px;}</style><clipPath id="clip-path"><rect class="cls-1" x="-5.81" y="14.95" width="797.13" height="1045.84"/></clipPath><clipPath id="clip-path-2"><rect class="cls-1" x="-496.6" y="-20.9" width="393.36" height="693.94"/></clipPath></defs><g class="cls-2"><g class="cls-3"><path class="cls-4" d="M-639.51,772c721.44-573.23,911,147.35,1395.22-284.2S1669.14,314,1669.14,314"/><path class="cls-5" d="M-860.22,632C-707.48,512.27-471,367.92-175,359.52,20.27,354,64.84,412.62,460.56,495.73c425.5,89.36,607.59,137.56,838.6,26.36,162.36-78.15,323.24-207.35,378.5-298.79"/><path class="cls-6" d="M-1022.18,409.66C-756.61,272-429,164.59-121.44,260.26,244.13,374,317.21,692.47,670.84,783.15c195.86,50.23,412.72,30,809.49-224.09"/><g class="cls-7"><path class="cls-8" d="M696.75,452.73a247.38,247.38,0,0,1-34.3-12.89c-2.56-1.2-4.91-2.36-6.94-3.41s-3.73-2.06-5-2.9c-2.54-1.68-3.36-2.79-1.6-3l-3.32-3.6c4.29,1.87,12,5.08,20.49,8.59s17.86,7.18,25.51,10.22c3.82,1.52,7.22,2.86,9.89,4.05a28.7,28.7,0,0,1,5.46,2.76c.86.68.67,1.11-.92,1.18A48.25,48.25,0,0,1,696.75,452.73Z"/><path class="cls-9" d="M697.09,468.56c-17.72-7.06-3.58-3.35-.1-3.5,4.13,1.3,8.23,2.72,12.38,3.91l6.22,1.84,6.24,1.69c3.61,1.77.11,1.52-5.67.54-2.9-.49-6.32-1.31-9.72-2.07S699.75,469.25,697.09,468.56Z"/><path class="cls-8" d="M676.28,495l7.56,3.36c-7.62-3.29-18.71-7.65-26-10.35,0-1.81,14.45,1.95,29.51,7.56-1.83.07-6.48-1.14-9.74-1.82S672.56,492.85,676.28,495Z"/><path class="cls-8" d="M330.88,318.11c-3.64,1.15-.38,5.93,7.16,12.6S357.38,346,371,354.6l-14.41,2.81c-20.48-13.41-65.18-31.07-99.86-43.76-6.95-1.67.85,2,6,4.69,2.58,1.38,4.51,2.51,3.63,2.58s-4.54-1-13.18-3.7c-3.42-2.57.11-3.56-6.85-6.89a92,92,0,0,0-17-3.42c-4.16-.42-7.43-.47-11.78-1s-9.76-1.71-18.38-3.71c-4.3-1.05-9.36-2.41-15.46-4.18l-4.77-1.41c-1.65-.51-3.38-1-5.2-1.5-3.62-1-7.54-2.07-11.79-3.28l-10.9-4.9c-1.83-.81-3.64-1.66-5.48-2.43L140,282.21l-22.39-4.9c-1.87-.43-3.76-.75-5.65-1.1l-5.66-1-11.35-2c-3.78-.66-7.56-1.38-11.36-2l-11.45-1.64-11.46-1.62c-3.82-.54-7.63-1.1-11.48-1.48l-23-2.5c-3.84-.46-7.7-.69-11.55-1L3.09,262l-11.54-.9-11.57-.6-11.55-.6c-3.85-.18-7.69-.46-11.54-.51l-23-.65c-3.83-.16-7.67-.16-11.5-.18l-11.48-.09-11.44-.11c-3.81,0-7.62.07-11.42.09l-22.73.19c-15.12.43-30.12.55-45,1.15l-11.14.32-5.55.14-5.54.23q-11.06.45-22,.77c-20.18,5.78-81.14,9.32-115.86,16.94l-1.18-2.36c-9.85,3.54-23.42,5.36-37.49,7.4s-28.62,4.4-40.32,8.18l-5.45,1-5.38,1.16-5.4,1.17-5.32,1.34c-2.31-.22.13-1.86,4.87-4.08,2.41-1,5.38-2.24,8.6-3.51s6.79-2.4,10.21-3.63c13.8-4.69,26.69-8.44,16-9.17a175.39,175.39,0,0,0-32.81,8.67c-5,1.73-9.64,3.85-14.23,5.86s-8.83,4.27-13.07,6.59c-17,9.26-32.38,19.56-51.21,29.09-8.72,5.33-14.87,9.49-19.53,12.87s-7.83,6-10.55,8.35c-5.44,4.77-9.07,8.64-19.16,16.74-3.9,5.91,8.24-2.9,7.75,1.05-4.65,3.45-9,6.68-13.17,9.74s-8.06,5.82-11.79,8.42c-7.38,5.34-14.06,9.88-20.2,13.95s-11.68,7.71-17,11-10.26,6.43-15.2,9.44c-2.46,1.52-4.93,3-7.37,4.53l-7.37,4.74c-2.49,1.62-5,3.28-7.6,5l-3.94,2.68-4,2.89c-5.41,4-11.24,8.32-17.51,13.5q-4.7,3.9-9.84,8.37l-5.27,4.64-5.47,5.06c-.4,1.8-11.85,14.6-17.07,22.3-2.65,3.82-3.81,6.29-1.42,5.37a34.73,34.73,0,0,0,6.51-4.19c1.61-1.21,3.51-2.7,5.73-4.49s4.82-3.84,7.74-6.24l9.77-10.66L-678,460.5l8.29-5.42,8.36-5.3-6.89,5.94c-2.44,2.12-5,4.4-7.55,6.69-5.12,4.6-10.42,9.26-14.88,13.59-9,8.59-15.22,15.17-12.48,14.64a66.75,66.75,0,0,0-12.45,8.43c-2.36,1.93-4.86,4-7.37,6.36s-5.12,4.82-7.74,7.4-5.29,5.28-7.94,8-5.23,5.58-7.8,8.38l-7.53,8.29c-2.43,2.72-4.74,5.4-7,7.93l-11.5,13.14a73.4,73.4,0,0,1-6.81,7.18c-2.62,2.12-1.13-1.77,7-15.4,7.11-6.37,12.84-11.71,17.81-16.32s9.06-8.59,12.72-12.43,7-7.42,10.25-11.37,6.57-8.2,10.44-13.09c-4,3.61-7.84,7.3-11.72,10.91s-7.75,7.18-11.53,10.79c-7.55,7.24-15.09,14.26-22.35,21.39l-10.89,10.55-10.63,10.53c-7.1,6.93-13.89,14-20.7,20.84s-13.35,13.84-19.89,20.67-12.83,13.71-19.07,20.57c-12.48,13.71-24.47,27.31-35.87,41-3.34,6.28-6.71,12.53-10,18.82-1-.36-3.31.93-6.5,3.49a155.22,155.22,0,0,0-11.8,11.11c-9.15,9.45-20.36,22.47-30.82,35.85-8,12.29-18.85,27.58-14.61,25-.88,3.39,17-21.72,32.47-40.22,7.66-9.3,14.6-17,17.54-19.2s1.94,1.19-5.89,14.24c-24.72,30.48-48.93,62.63-69.7,93l-4.22,6c-1.42,1.94-2.85,3.93-4.26,5.78l-4.17,5.5-4.06,5.29c-5.32,6.91-10.26,13.42-14.57,19.7a153.37,153.37,0,0,0-10.91,18.13,81.1,81.1,0,0,0-6.26,16.55,71.63,71.63,0,0,1,5.75-22.3,189.5,189.5,0,0,1,10.45-20.71c3.88-6.84,8.06-13.76,12.34-21.31,2.14-3.77,4.3-7.74,6.42-11.93,1-2.1,2.12-4.34,3.11-6.49s2-4.37,3-6.63q12.3-21.71,26.32-43c9.34-14.15,19.17-28.13,29.37-41.93,20.39-27.62,42.33-54.44,64.68-80.74s45.12-52.08,68-77,45.81-49.17,68.29-72.61c1.37-.29,4-1.93,7.12-4.08s6.67-4.81,9.94-7.07c6.53-4.57,11.64-7.85,8.84-3.31a104.59,104.59,0,0,0,9.67-7.56c3.79-3.15,8-6.78,12.12-10.3s8.31-6.88,12-9.53,7-4.6,9.33-5.27c18.36-16.9,38.21-33.8,59-50.18l15.74-12.17c5.32-4,10.68-7.95,16-11.91,10.76-7.9,21.66-15.69,32.54-23.24,21.81-15.06,43.92-29.05,66.25-40.09l8.38-4c2.82-1.22,5.59-2.5,8.39-3.65l4.2-1.7c1.39-.58,2.78-1.13,4.2-1.63l8.41-3.06c2.79-1,5.61-1.83,8.39-2.75,1.39-.44,2.77-.91,4.16-1.33l4.17-1.21c2.78-.78,5.51-1.62,8.25-2.34l8.18-2.11c-6.48-.2-6.57-1.44-2.6-3.35,1-.48,2.24-1,3.69-1.56s3.16-1.07,5-1.64,3.9-1.17,6.08-1.79,4.51-1.16,6.94-1.76c9.7-2.43,21.08-4.58,31.56-6.57s20.1-3.61,26.28-5.14c12,.09,28.12-1.17,45-2.74,8.44-.78,17.08-1.66,25.48-2.52s16.56-1.58,24.05-2.23c1.6-.75,7-1.7,11.52-2.49s8-1.69,5.63-2.57c-11.11,1.1-18.69,1.67-26.38,1.9s-15.49.26-26.91,1c2.21-1.56,6.36-2.62,11.9-3.34s12.47-1.06,20.18-1.31c3.85-.12,7.9-.24,12.07-.3l12.82-.07c8.69,0,17.57-.33,26.1-.56-2.94.64-5.88,1.23-8.82,1.91l-8.78,2.06c3.53-.21,7.11-.42,10.72-.54s7.27-.15,11-.18c7.36-.05,14.85-.09,22.39.07,15.09.48,30.41,1,45.52,1.93l11.29.58c1.88.1,3.75.15,5.61.27l5.57.36c7.4.46,14.7.82,21.85,1,3.58.08,7.11.3,10.61.41s6.94.21,10.34.25c6.81.11,13.43-.14,19.8-.25l-5.35-1-5.36-.91-10.75-1.8L-65,235.59l-5.4-.9-5.4-.77c31.7-.18,67,3.3,100,7.7,8.23,1.17,16.33,2.4,24.22,3.47s15.54,2.28,22.91,3.3q5.54.78,10.84,1.42l5.23.6c1.73.18,3.42.45,5.1.65,6.69.84,13,1.45,18.94,1.75-10.31-2.4-22.38-5-34.8-6.83L58,243.08l-17.74-2.31c-5.63-.74-10.92-1.53-15.68-2.23s-9-1.26-12.5-1.94c-7-1.35-11-2.83-10.58-4.56.69-.88,4.28-1.21,9.66-1.16,2.68,0,5.82.15,9.25.35l5.36.35c1.84.16,3.74.39,5.68.61,7.77.88,16.17,2,24.06,3.22l2.93.46,2.87.54,5.48,1.08c3.54.71,6.81,1.41,9.67,2.06l9.23,2.08c1.53.34,3.06.64,4.57,1l4.52,1.08q9,2.14,17.82,4l8.76,1.83,8.61,2q8.58,2,17,3.72c5.63,1.11,11.14,2.49,16.63,3.75L180,262.75c5.43,1.12,10.73,2.6,16,3.91l15.81,4c5.27,1.24,10.41,2.85,15.56,4.34l15.38,4.58c10.23,3,20.28,6.7,30.2,10.52A408,408,0,0,1,330.88,318.11Z"/><path class="cls-8" d="M205.68,258.49a301.08,301.08,0,0,0-42.45-9.79,101.84,101.84,0,0,0-19.69-1.21,120.27,120.27,0,0,1-19-1l-7.26-.93c-2.69-.36-5.66-.81-9-1.34s-7-1.18-11-1.93l-6.4-1.22c-2.24-.41-4.6-.77-7.08-1.2,5.3-1.08-1.61-3.94-13.22-7.1-2.9-.79-6.09-1.6-9.46-2.4-1.68-.43-3.41-.77-5.18-1.12l-5.35-1c-7.22-1.34-14.65-2.55-21.33-3.49-6.52-.23-13.35-.51-20.27-1.06s-13.93-1.3-20.86-1.76l-20.28-1.74-4.83-.41-4.71-.28c-3.08-.17-6.07-.33-8.93-.45-7.77-.75-11.08-2.24-8.62-3.39,1.23-.57,3.91-1,8.2-1.31,2.15-.13,4.69-.21,7.67-.21s6.36,0,10.19.33c37.56,6,80.09,9.55,122.08,15.61,2.63.32,5.24.76,7.85,1.19l7.83,1.27,15.55,2.58,3.86.66,3.83.77,7.62,1.58q7.58,1.59,15,3.25c2.47.58,4.95,1.07,7.38,1.73l7.23,2q7.19,2,14.14,4A271.18,271.18,0,0,1,205.68,258.49Z"/><path class="cls-9" d="M267.63,301.27c-19.39-7-24.82-10.87-30.25-14.61a56.31,56.31,0,0,0-9.94-5.7,108.7,108.7,0,0,0-20.78-6.61c2.24,0,4.26.19,6.16.41.94.11,1.86.24,2.76.4s1.75.38,2.61.6a85.24,85.24,0,0,1,10.54,3.65c7.66,3.16,17.68,7.31,35.45,13.93-3.56-.88-7.11-1.75-10.7-2.55s-7.12-1.69-10.72-2.38C251.16,292.5,259.42,296.88,267.63,301.27Z"/><path class="cls-9" d="M54.22,255.08c-7.33-.49-14.69-1.2-23-2.13l-6.42-.74c-2.22-.24-4.51-.42-6.89-.65L2.5,250.1c3.66.14,7.53.22,11.58.33l6.21.19c2.11.07,4.27.15,6.44.36A187.13,187.13,0,0,1,54.22,255.08Z"/><path class="cls-8" d="M740.82,458c-4.34.53-5.63,1.07-5,1.82s3.51,1.66,7.81,2.82l7.48,1.93,9.19,2.25,10.37,2.67c3.61.95,7.31,2,11.06,3.15,20.18,3.87,41.17,5.9,62.18,7.42s42.09,2.51,62.63,4.4l25.27-.94c-24.55-2.89-58.25-6.62-92.75-11.07S769.26,462.6,740.82,458Z"/><path class="cls-9" d="M704.53,476.89c3.65,1.32,7.43,2.71,11.39,3.8q3,.85,6,1.68c2,.5,4.1,1,6.16,1.43,4.13,1,8.35,1.68,12.54,2.44l6.28,1.08,6.25.93c8.27,1.26,16.32,2.17,23.67,3.11s14,1.67,19.61,2.44c-18.67-3.12-40-7-59.82-11.36-2.48-.53-4.93-1.05-7.33-1.64s-4.77-1.11-7.1-1.71c-4.63-1.24-9.13-2.39-13.37-3.69-8.5-2.46-16.06-5-22.28-7.2-1.78.07.89,1.49,4.92,3.3,2,.93,4.37,1.89,6.69,2.81Z"/><path class="cls-8" d="M1362.44,498.91c-52.57-.4-125.36-5.93-183.15-.84,13.33,1,20.15,1.83,28.82,2.77,4.35.46,9.15.93,15.48,1.42s14.18.95,24.6,1.45a121.31,121.31,0,0,1-23.88,2.35c-8.08,0-16.29-.52-24.7-1.31s-17-1.81-25.84-2.73-17.91-1.63-27.28-1.95c30.56,2.56-9.73,4.34-35.89,3.8-24.69-1.9-56.66-3.67-90.82-5.7-17.11-1-34.66-2.17-52.29-3.37s-35.17-2.45-52-3.77c-7.28,0-18.65-.7-31.37-1.8s-26.79-2.59-39.5-4c-25.43-2.74-45.5-5.12-39.25-.64-20.29-2.6-31.52-5.86-41.38-9.07-4.91-1.67-9.49-3.33-14.65-5.05-2.58-.89-5.3-1.79-8.29-2.7l-9.71-2.85c-21.51-2.75-41.56-9.46-60.56-17.56s-37.13-17.85-55.75-27.62L601,412.39c-4.77-2.42-9.58-4.85-14.43-7.2-9.71-4.73-19.63-9.29-29.86-13.62a502.9,502.9,0,0,0-65.86-22.8c3.56-.88-6.07-5.5-18.7-10.82s-28.21-11.42-36.8-15.11c-9.42-3.9-22-9.21-35.33-15S372.46,316,359.9,311c-25.12-10.19-43.76-16.07-35.22-8.17,12.08,8,32,16,53.58,24.57,10.77,4.3,21.94,8.69,32.76,13.31s21.29,9.37,30.79,14.58c16.42,8.81,20.14,11.55,16.28,10.93s-15.2-4.68-28.65-9.81C402.64,346.23,367.39,331,365.37,334c5.22,1.61,8.57,4.42,14.52,8.25s14.49,8.67,30.13,14.06c-16.49-6.09-23.22-8.13-24.64-7.7s2.49,3.24,7.4,6.48c9.79,6.51,23.65,14.69,6.11,9.65,18.22,8.89,31.62,15.07,41.86,19.93s17.4,8.33,23.33,11.5c11.86,6.35,18.89,11.43,36.4,22.9,22.89,7.92,31.64,9.29,36.53,8.86s5.82-2.61,12.87-1.68a340.24,340.24,0,0,1,34.31,12.89c10.71,4.66,20.84,9.64,30.8,14.57,19.92,9.83,39.22,19.58,61,26.27-4.52-.13-6.84.26-7.32,1.11s.83,2.22,3.64,3.88c5.6,3.39,17.14,8.14,31.91,12.69,3.67,1.19,7.62,2.2,11.65,3.31,2,.57,4.11,1,6.21,1.53s4.26,1,6.35,1.47l12.67,2.6c4.26.86,8.56,1.61,12.83,2.4,17.1,3.05,33.86,5.53,47.1,7.34,4.27.68,8.1,1.14,11.54,1.57s6.52.77,9.25,1c5.48.45,9.64.61,12.93.58a47.94,47.94,0,0,0,13-1.78,50.8,50.8,0,0,1,13.65-1.72c3.52,0,8,.1,13.77.47s13,1,22,1.91c17.67,4.14-.68,4.38-17.69,4.56-8.51.08-16.67.17-19.78.86s-1.16,2.12,10.58,4.7q16.77.54,33.47.85c21.54-2.43,38.8-6.61,64.27-7.75,15,1,37.65,2.47,38.12,4.12-14.83,0-20.07,1-17.73,2.75,1.17.86,4.24,1.87,9,2.94s11.07,2.14,18.82,3.21c14.59-.81,18.21-1.12,25.25-2.41-30.09-7.54-14.09-6.84,14.79-4.84s70.72,4.65,92.2,1.94c15.63-.68,28.36-1,38.92-1s18.94.32,25.87.89a146,146,0,0,1,29.9,5.38c8,2.19,15.91,4.56,29.51,6.14,6.8.8,15,1.42,25.38,1.75s22.85.3,38.19-.09c-18.73-5.42,1.56-6.39,31.53-6.6s69.65.38,89.69-1.47c34,.47,46.35,3.35,70.11,6.64,9.36-1.1,35.63-1.64,39.61-3.62-19-13.78-97.81-26.59-199.56-39.14C1364.76,498.39,1362.36,498.62,1362.44,498.91Z"/></g><g class="cls-10"><path class="cls-11" d="M518.42,421.79c-8.07,8.33-24.22,19.81-24.23,14.74l-3.32-.3C498.57,430.21,529.74,403.63,518.42,421.79Z"/><path class="cls-9" d="M531.74,433.1c-8.46,5.47-3.33-.28-3-2.51l10.66-8.67C543.84,420.63,535.77,429,531.74,433.1Z"/><path class="cls-11" d="M551.06,464.66l3.69-2a70.56,70.56,0,0,0-11.41,8c-1.5-1.24,2.92-7.64,9.54-12.14C552.53,460.83,546.64,466,551.06,464.66Z"/><path class="cls-11" d="M365.54,550.72c.38,6.47,15.95,7.27,33.09,3.36l-.36,11.51c-6.62,1.31-15,5.68-23.83,11-4.43,2.63-9,5.52-13.45,8.36s-8.92,5.61-13.13,8.09c-5.52,5.48,17.32-6.31,1.68,5.13-2.59-.14-2.43-3-6.41-1.8-6.81,5.39-7.31,8.61-10.28,12.58s-8.44,8.69-25,17.14l-13,2.22c-3.42,2-6.8,4.12-10.2,6.22l-5.09,3.18L274.38,641l-20.79,13.34c-13.92,8.89-27.89,17.84-42.07,26.34-28.33,17-57.42,32.46-87,43.1-2,2.28-5.46,4.71-9.75,7.18s-9.37,5.11-14.8,7.62-11.08,5.18-16.53,7.66c-2.71,1.26-5.36,2.52-7.86,3.78s-4.89,2.45-7.05,3.68L67,751.17a26.87,26.87,0,0,1-8.44,5.18,83.49,83.49,0,0,1-11,3.3c-1.94.47-3.91.91-5.88,1.35l-5.82,1.25a81.73,81.73,0,0,0-10.73,3l-12.63,1.2c-3-1.53,5.26-4.8,12.63-8.1S39,751.62,32.63,750a81.6,81.6,0,0,0-9.29,2.19c-2.94.86-5.72,1.82-8.39,2.88-5.35,2.14-10.27,4.52-15.1,6.84-9.66,4.64-19,8.92-30.47,9.66-21.32,4.9-18,7.37-30.62,12.53-2.57,3.74,5,1.55,4.53,5.18-23.39,7.47-36.69,7.43-49.25,7.19s-24.4-.83-45,5c-.92,2.73-32.62,17-.86,12.64l14-6.64,10.83.61c-11.37,3-32.35,8-29.12,10.63-4.41-1.7-11.34-.7-18.8,1.37-3.74,1-7.61,2.35-11.37,3.73s-7.44,2.82-10.64,4.13c-6.47,2.61-11.55,4.7-13.37,4.66s-.33-2.33,6.37-8.33c9.81-1.13,16.22-2.17,21.52-3.86s9.55-4,15.29-7.76c-11,2.5-21.77,4.69-32.11,6.74s-20.39,4-30.26,6c-19.73,4-38.59,8.1-56.68,12.82l-9.41,7.54c-1-2.22-6.12-3-13.19-2.77a209.61,209.61,0,0,0-25.08,2.58c-1.82.68-3.81,1.32-5.71,1.9s-3.76,1.06-5.27,1.55c-3,1-4.8,1.86-3.38,2.78-.71.89,3,.6,8.48-.12,2.74-.36,5.9-.9,9.2-1.41l9.88-1.54c6.36-1,11.92-1.52,14-.91s.83,2.56-6.57,6.52a465.8,465.8,0,0,1-62.64,8.18c-20.12,1.13-38.53.22-52.31-2.21,4.92-.71,9.49-1.24,13.91-1.76s8.62-1.28,12.87-2.07l3.18-.64c1.06-.25,2.12-.52,3.19-.8,2.13-.57,4.28-1.2,6.48-1.92a92.89,92.89,0,0,0,13.72-5.78c33.86-9.07,68.67-18.37,103.1-28.28,17.2-4.95,34.29-10,51.07-15.17s33.27-10.42,49.06-16.4c3.22,2.63,20.78-.47,16.44,4.14,6.63.75,22.66-6,28.35-2.51,24.6-8.8,51.81-16.48,78.47-23.93,13.34-3.69,26.53-7.39,39.21-11s24.82-7.26,36-10.94c-7.59-2-1.25-5.49,8.31-9.6,4.76-2.11,10.37-4.26,15.43-6.51s9.62-4.47,12.37-6.43a54.27,54.27,0,0,0,10.62-2.14c1.92-.56,3.89-1.19,5.89-1.9s4-1.52,6-2.35c8.17-3.27,16.43-7.38,23.56-10.53,1-2,9.56-6.52,6.44-7.73a56,56,0,0,1-12.5,5.43c-3.81,1.15-7.73,2.15-13.33,4,1-3.78,6.8-6.26,14.4-8.56l12.31-3.7a106.61,106.61,0,0,0,12.64-4.61c-2.28,2.33-4.56,4.69-6.87,7,13.31-6,29-10.47,43.88-15.9s29.09-11.57,39.22-20.61c-7.52,1.89-15.1,3.61-22.62,5.37,13.81-8.83,30.41-16.45,45.72-24.31s29.28-16,37.71-25.38c-5,2.33-10.46,5.51-16,8.81s-11.13,6.74-16.23,9.59c-10.19,5.77-18.38,9.35-20.1,5.63-1-4.33,20.94-16.64,32.11-21.22a176.2,176.2,0,0,0,17.21-8c5.49-2.91,10.68-6,15.7-9.17,10-6.29,19.3-12.91,28.45-19.27C325.58,568.54,343.27,556.86,365.54,550.72Z"/><path class="cls-11" d="M297.39,573.72c-9.28,5.49-14.73,9.57-18.24,12.92a36.79,36.79,0,0,0-6.63,8.42,32.38,32.38,0,0,1-6.44,8.08c-3.42,3.12-8.58,6.81-17.48,11.85,1.08-3.2-3.12-3-9.09-1.24a90.52,90.52,0,0,0-9.81,3.65c-3.43,1.45-6.85,3.08-9.83,4.7-5,4.4-11.23,8-17.38,11.41s-12.33,6.21-17.36,9c-3.67,1.46-5.89.89-5.51-1s3.36-4.94,10-8.72c18.7-5.24,36.72-17.06,54.24-29.09l6.56-4.52c2.2-1.5,4.33-3,6.6-4.46,4.49-3,9-5.89,13.45-8.54s9-5.07,13.45-7.19A108.09,108.09,0,0,1,297.39,573.72Z"/><path class="cls-9" d="M341.6,576.12c-18.2,11.26-16.19-1.62-33.16,11.14,5-9.08,10.09-5.93,26.89-15.8l-8.25,8.2Z"/><path class="cls-11" d="M184.46,651.07a154.19,154.19,0,0,1-25.05,11.45,77,77,0,0,1-12.26,3.34c-3.38.54-5.84.32-6.67-.86-2,.45-.24-3.64-6.53.57,2.84-.9,7-2.42,11.59-4.27s9.86-3.9,15-5.78a109.23,109.23,0,0,1,14.3-4.42C179,650.17,182.44,650,184.46,651.07Z"/><path class="cls-9" d="M248.17,641.59a107.88,107.88,0,0,1-10,6.91c-3.72,2.33-7.93,4.83-13,7.75,3.1-2.33,6.38-5.2,10.1-7.9A46.53,46.53,0,0,1,248.17,641.59Z"/><path class="cls-11" d="M173.83,668.81c4.33,2.6-9.74,6.28-13.21,8l-8.06,2C158.93,674.45,167.27,669.63,173.83,668.81Z"/><path class="cls-11" d="M62.88,705.36c-9.38,2.76-5.15-.37-1.33-3.21s7.22-5.39-3.62-1.52L70,695.22l7,4.32C72.37,701.58,67.61,703.43,62.88,705.36Z"/><path class="cls-11" d="M33,710.12a38.49,38.49,0,0,1-7.9,4.27,66.52,66.52,0,0,1-11.72,3.2l4.33-4.05c1.57-1.06,3.6-1.26,6.15-1.51A35.46,35.46,0,0,0,33,710.12Z"/><path class="cls-11" d="M62.16,715.5c-8.32,4.77-8.21,1.1-14.32,1.92,1.33-1.54,7.08-3,11.43-3.56S66.51,713.47,62.16,715.5Z"/><path class="cls-11" d="M-15.89,784.16c7.12-7.75,25.66-10,42-17.14-8.15,3.5-13.79,6.54-19.83,9.3A123.27,123.27,0,0,1-15.89,784.16Z"/><path class="cls-11" d="M624.34,326.19a48.73,48.73,0,0,0,11-7.79,75.93,75.93,0,0,0,8.1-8.11l-4.76,1.09L635.05,315c-1.22,1.16-2.4,2.49-3.59,3.72Z"/><path class="cls-11" d="M532,400.44c-2.53,10.48,7-1.66,22.48-8.78,17.29-13.16,31.37-31.69,48.19-45.39l7.92-11.12c-10.68,7.45-25,18.15-39.36,29.81S542.59,389.23,532,400.44Z"/><path class="cls-9" d="M539.87,434.93c14-8.36,26.79-25.3,35.61-33-15.46,12.16-34.9,28.53-45.55,37.18C529.56,441.37,536.18,436.87,539.87,434.93Z"/><path class="cls-11" d="M806.4,213.78c-6,3.19-12.82,6.41-20,9.8s-14.66,6.94-22.14,10.78a246.48,246.48,0,0,0-21.93,12.53,132.65,132.65,0,0,0-19.26,15c13-5.65,14.19-4.28,34.07-13.53-5.26,7.55-12.8,11.25-21.18,14.45-4.19,1.59-8.61,3-13,4.64a87.87,87.87,0,0,0-13.19,6.11c15-6.48-1.79,7-13.31,14.75-5.93,2.83-12.49,6.63-19.56,10.8-1.76,1.06-3.57,2.09-5.37,3.25l-5.47,3.54c-3.69,2.43-7.49,4.86-11.29,7.51l-11.44,8.27-2.88,2.1L637.6,326l-5.67,4.52-5.65,4.52c-1.83,1.5-3.52,3-5.28,4.44l-10.27,8.71c-9.81,12-50.8,40.53-40.07,42.05-15.84,14.42-22.11,11.62-35.34,20.62-14.84,19-33.76,29.46-52.86,40.26l-7.17,4.08-7.06,4.09c-2.3,1.33-4.59,2.7-6.85,4.13-1.13.71-2.25,1.44-3.37,2.19l-3.4,2.22q-3.41,2.25-6.71,4.77c-1.11.84-2.2,1.72-3.3,2.6s-2.21,1.76-3.31,2.68a136.84,136.84,0,0,0-12.85,12.53c-.16-2.85-5.07-.61-11,2.88s-12.94,8.24-17.09,10.62c-8.74,5.59-23.86,14.66-35.11,22.57-5.67,3.93-10.33,7.6-12.71,10.42s-2.48,4.78,1.06,5.33c7.79-1,16.77-7.43,26.38-14.42,4.85-3.46,9.75-7.17,14.9-10.34a69,69,0,0,1,15.79-7.71c9.18-3.2,11.88-3.28,10.78-1.42s-5.94,5.69-12,10c-12,8.71-28.58,19.37-26.75,23,2-2.08,4.59-2,8.35-2.76s8.62-2.49,15.17-8.1c-14.41,11.18-10.08,11.12-3.7,10s14.74-3.37,8.1,3.74c19.08-9.19,27.69-13.65,34.57-16a60.51,60.51,0,0,1,10-2.59c1.81-.33,3.78-.64,6-1l7.75-1.43c2.49-2.09,4.51-3.94,6.15-5.59a34.65,34.65,0,0,0,3.78-4.49,13.34,13.34,0,0,0,2.69-6.35c.33-3.39-1.33-5.59.35-9.36a105.26,105.26,0,0,1,14.37-13c4.83-3.72,9.77-7,14.66-10.07,9.78-6.24,19.37-12,27.47-20.37-5.08,21,35.71-17.82,56.22-35.64,13.57-11.15,14-15.17,14.72-19.34s1.6-8.46,16.19-20c9-3.61,3.1,4-2.21,11.11s-10,13.87,1.41,8.52l11.42-12.92c2.6-5.35,4.56-10.66,6.87-16,1.15-2.66,2.38-5.33,3.82-8a65.42,65.42,0,0,1,5-7.86c5.8-4.87,15.17-11.54,16.49-10.16-10.93,10.39-4.24,11.44,9.79,4.72,1.15-1.47,2.16-2.61,3-3.59s1.5-1.8,2.07-2.56a27.46,27.46,0,0,0,2.82-4.53c-8.26,1.42-10.81,1-9.67-.75s5.95-4.88,12.21-8.75c3.16-1.9,6.76-3.9,10.42-6.06s7.4-4.46,11.08-6.67c7.31-4.49,13.87-9.27,17.7-13.66,12.49-10.45,21.29-15.63,28-18.33A37.38,37.38,0,0,1,772,280.92c4.75.09,9.52.35,16.45-1.55a70,70,0,0,0,12.24-4.79,163.62,163.62,0,0,0,17.09-9.8c-11.32-.76-2.77-7,10.73-14.64,6.74-3.84,14.72-8.07,22-12.18s13.94-8.16,18-11.56a87.52,87.52,0,0,1,19-7.37c5.35-1.39,10.33-2.1,16.69-3.44,3.67-3.47,15.34-10.89,16-13.88-4.14-2.2-9.94-3.41-17.06-3.79-1.78-.09-3.64-.13-5.58-.13s-4,0-6.11.11c-4.23.16-8.76.51-13.56,1-19.28,2-43.1,6.49-69.63,12.81C807.18,212.67,806.21,213.5,806.4,213.78Z"/></g></g></g><g class="cls-2"><g class="cls-12"><path class="cls-13" d="M-916.82,649.6c404.59-572.95,510.43,147.57,782-283.78S412.46,192.36,412.46,192.36"/><path class="cls-14" d="M-1010.65,494.71C-925,375.1-792.42,230.84-626.54,222.52c109.45-5.5,134.4,53.16,356.12,136.36C-32,448.34,105.28,496.61,234.8,385.49c91-78.1,146-207.25,177-298.66"/><path class="cls-15" d="M-1017.67,444.82c148.86-60.06,332.48-106.89,504.81-65C-308,429.59-267.14,568.74-69,608.45c109.75,22,266.56,13.25,489-97.65"/><g class="cls-7"><path class="cls-8" d="M42.57,416.45c9.52,3,21.31,3.87,28.31,3.94l-5-2C58.08,417.86,50.3,417.23,42.57,416.45Z"/><path class="cls-8" d="M-83.1,360.75c-5.6-1.64-4.32,0,.17,3.86s12.11,9.86,19.42,16.67A128.08,128.08,0,0,0-29.86,399.1c.73.24,1.4.49,2.17.74l2.38.73,4.75,1.46,9.53,2.74,19,5.11c2.65.3,5.28.62,7.94.85s5.3.53,8,.71c-7.51-2.07-16.37-4.57-25.82-7.67l-7.19-2.43c-2.44-.82-4.87-1.75-7.36-2.63s-4.94-1.89-7.45-2.83l-1.88-.72c-.64-.24-1.12-.47-1.68-.71l-3.3-1.4c-4.42-2-8.92-4.4-13.41-6.94s-9-5.36-13.42-8.26C-66.5,372.12-75.13,366.07-83.1,360.75Z"/><path class="cls-8" d="M300.9,437.21c-17.08-.27-37.41-1.68-58.14-2.74s-41.81-1.9-60.63-.73c8.59,1.13,13,1.87,18.57,2.8s12.42,1.81,25.91,3c-20.58,4.28-41.62-3.25-65.8-5.31,19.68,2.9-6.5,3-23.44,1.55-4-.61-8.24-1.22-12.75-1.83s-9.26-1.35-14.2-2L78.75,427.5c-22-3.1-45.19-6.81-66-11.92-2.31-.31-5.21-.93-8.54-1.67-1.66-.38-3.41-.86-5.24-1.34s-3.75-1-5.68-1.59l-6-1.82-6.06-2c-2-.66-4-1.4-6-2.12l-3-1.07-1.46-.52-1.34-.54c-7.05-2.74-13.34-5.87-17.57-7.74s-6.45-2.33-5.27-.09c-1.41-.79-2.72-1.57-3.95-2.37s-2.39-1.53-3.48-2.27c-2.16-1.53-4.07-2.89-5.76-4.27A98.33,98.33,0,0,1-75,378.59c-4.77-4.8-8.68-9.31-16.32-15.77-6.41-3.85-12.49-7.94-18.43-12.11s-11.59-8.36-17.12-12.62c-11.06-8.52-21.53-17.26-32-26s-21-17.53-32.17-26.15l-4.22-3.23-4.24-3.21c-2.87-2.11-5.79-4.29-8.81-6.41-6-4.29-12.4-8.58-19.24-12.77,2.5,0-2.51-4.83-9.43-10.67s-15.82-12.7-20.81-16.63c-5.49-4.23-13-9.86-21.24-15.56-2.05-1.43-4.16-2.86-6.31-4.26s-4.29-2.81-6.48-4.14c-4.33-2.78-8.71-5.09-12.77-7.34-2-1.1-4-2.16-5.87-3.14l-2.74-1.42c-.88-.46-1.75-.89-2.61-1.25-3.42-1.5-6.36-2.67-8.6-3.4-4.5-1.46-6.22-1.15-3.64,1.86a62.72,62.72,0,0,0,6.65,4.65c1.25.78,2.58,1.56,4,2.34s2.75,1.7,4.21,2.56c2.91,1.73,6,3.48,9.28,5.27l5,2.72,5.07,3c13.61,8,27.53,17.62,37.68,27.91,8.78,8.78,10.44,11.33,8.1,10.26s-8.77-5.77-16.53-11.36-16.91-12-24.52-16.62-13.58-7.39-14.43-6.38a16.67,16.67,0,0,1,4.25,2.88c1.31,1.15,2.63,2.53,4.31,4.18a86.63,86.63,0,0,0,6.57,5.68,132.2,132.2,0,0,0,11,7.54c-9.71-6.35-13.93-8.32-14.92-8.18s1.1,2.55,3.76,5.34c5.28,5.65,12.56,13.08,2.16,7.49,10.11,8.28,17.24,14.61,22.69,19.54s9.17,8.53,12.2,11.7c6.08,6.36,9.26,11.07,17.88,22,13.06,9.35,18.72,11.61,22,12s4.39-1,8.85.6c14.53,8.73,26.51,17.86,37.9,26.85s22.17,17.73,34.33,25.54c-5.64-1.49-6.21-.16-3.5,3s8.68,8,16.11,13.92,16.53,12.84,25.81,19.48,18.77,12.89,26.69,17.53c10.14,6.16,17,8.74,21.44,10a35.52,35.52,0,0,0,5.47,1,29.14,29.14,0,0,0,3.66,0,31,31,0,0,1,3.74,0,48.91,48.91,0,0,1,5.48.77c1.15.23,2.44.52,3.91.9l5,1.31c1.87.5,3.94,1.1,6.27,1.8s4.92,1.39,7.79,2.26c11,4.91-1.05,3.26-12.3,1.21-5.62-1-11-2.14-13.18-2.05s-1.15,1.35,6.2,4.92c7.37,1.74,14.73,3.37,22.12,4.69,1.83.07,3.61.12,5.37.13l5.21-.07c3.43,0,6.82-.22,10.26-.33,6.89-.24,14.05-.44,22.45-.08,9.78,1.74,24.46,3.85,24.66,5.13-9.7-.77-13.22-.25-11.81,1.15s7.78,3.65,17.79,6c9.6,0,12,0,16.65-.62-19.15-7.08-8.73-5.74,9.94-2.93,9.38,1.32,20.86,3.14,31.79,4.17s21.3,1.62,28.38,1c10.25,0,18.58.12,25.47.45s12.37.72,16.88,1.31a84.36,84.36,0,0,1,19.41,4.65,97.44,97.44,0,0,0,19.18,5.08,151,151,0,0,0,16.6,1.64c6.78.39,15,.5,25,.32-12.2-4.23,1.11-4.72,20.7-4.73s45.54.53,58.63-.88c22.22.36,30.28,2.51,45.8,5,6.11-.82,23.26-1.24,25.86-2.72-6.19-5.15-22.16-10.14-44.88-15s-52.17-9.55-85.18-14.52C302.41,436.84,300.85,437,300.9,437.21Z"/></g><g class="cls-10"><path class="cls-11" d="M.56,57.38c6.24-6.1,10.8-15.19,13.05-20.86l-4,2.7Z"/><path class="cls-11" d="M130.6-123c-9.38,11.3-21.26,24.21-32.45,38.14S76.46-56,69.9-41c4.92-5.6,7.76-8.21,11.28-11.61S88.77-60.24,96.31-69C94-59.84,88.47-52.93,81.89-46.2c-3.27,3.38-6.78,6.71-10.25,10.25A101.08,101.08,0,0,0,61.77-24.4c11.33-12.74.79,7.16-7.12,19.25C37.15,15.9,13.21,52-7.42,82.69c-3.35,7.36-13.32,21.2-21.16,32.92s-13.57,21.31-8.36,20.33a86.8,86.8,0,0,1-8.29,11c-1.25,1.38-2.45,2.62-3.62,3.69s-2.31,2-3.43,2.9c-2.25,1.8-4.44,3.4-6.74,5.32a75.38,75.38,0,0,0-7.59,7c-5.49,11-12.81,19.9-20.75,27.87-4.08,3.93-8.23,7.67-12.58,11.22s-8.75,7-13.29,10.39c-18,13.65-36.62,27.11-52.08,49.66-.73-5.52-19.33,13.61-27.06,20.8-4.12,4.05-9.65,9.4-15.36,15.34l-4.3,4.49-4.14,4.41c-2.7,2.91-5.29,5.82-7.68,8.54-9.53,10.92-15.52,19.43-8.46,18.35a29,29,0,0,0,5.59-3.43,62.1,62.1,0,0,0,5.67-5.06c3.83-3.79,7.73-8.41,11.79-13.2,2-2.37,4.17-4.9,6.37-7.38s4.45-4.95,6.78-7.27a82.11,82.11,0,0,1,14.78-12.09c17.75-11.2,10.72-3.08-.11,8.59l-8.48,9.24c-2.84,3.14-5.57,6.31-7.9,9.16a58.9,58.9,0,0,0-5.35,7.43c-1.15,2-1.58,3.51-1,4.23,1.57-2.59,4.1-3.3,7.62-5.21s8-5,13.59-12.29c-12.37,14.95-8,13.56-2,10.59s13.81-7.38,8.48,1.18c17.06-13.95,25.05-20.05,31.45-23.9s11.36-5.28,22.71-9.76c17.89-19.87,7.94-19.31,10.76-27.26,8.63-11.34,18.23-19.65,27.62-27.65,4.64-4.06,9.33-7.92,13.64-12.2,2.17-2.11,4.29-4.28,6.33-6.55s3.9-4.72,5.71-7.25c-.78,5.47.9,6.6,4.21,4.8A31.5,31.5,0,0,0-48,207c2.3-2.22,4.88-5,7.63-8.13s5.55-6.73,8.45-10.45c1.43-1.88,2.92-3.76,4.32-5.73l4.19-5.94,4.11-5.89c1.27-1.9,2.52-3.77,3.74-5.58l6.72-10c21.61-30.35-1.33-16.16,21.73-48,15.67-13-16.4,37.05,3.13,19.14l8.28-16.27c2.78-12.07,3.17-23,8.35-36.16,4.59-6.81,11.51-17,13.14-16.26C38.21,72,44.62,70.42,56.3,58c3-7.51,3.72-9.37,4.4-13.5-14.61,10-9.81,2.75-.39-9.89,4.7-6.32,10.59-14,15.78-21.45S85.77-1.7,87.75-7.45c2-3.81,3.84-7.22,5.6-10.28s3.47-5.74,5.06-8.13A80.72,80.72,0,0,1,107-37a42.43,42.43,0,0,1,13.85-10c4.36-2.14,8.81-4.15,14.49-9A91.65,91.65,0,0,0,145-65.9c1.81-2.13,3.72-4.55,5.77-7.28s4.29-5.76,6.65-9.17c-10.63,4.42-4.88-5,5.16-17.84,5-6.39,11.1-13.63,16.71-20.38s10.68-13.06,13.53-17.82a94.16,94.16,0,0,1,16-14c2.37-1.61,4.68-3,7.11-4.46s5-2.86,7.86-4.56c2.61-4.5,12.24-14.9,12.27-18-4.37-.78-10.16-.08-17.18,1.94a111.49,111.49,0,0,0-11.33,4.1c-4.07,1.67-8.36,3.71-12.89,6-18.12,9.31-39.86,23.61-62.83,41.51C131-124.37,130.33-123.17,130.6-123Z"/></g></g></g></svg>