<svg id="Layer_1" data-name="Layer 1" xmlns="http://www.w3.org/2000/svg" viewBox="0 0 1194.42 684.77"><defs><style>.cls-1,.cls-10,.cls-11,.cls-12,.cls-13,.cls-15,.cls-16,.cls-17,.cls-18,.cls-19,.cls-2,.cls-20,.cls-21,.cls-23,.cls-24,.cls-25,.cls-26,.cls-4,.cls-5,.cls-6,.cls-7,.cls-9{fill:#fff;}.cls-1,.cls-10,.cls-11,.cls-12,.cls-13,.cls-14,.cls-15,.cls-16,.cls-17,.cls-18,.cls-19,.cls-2,.cls-20,.cls-21,.cls-22,.cls-23,.cls-24,.cls-25,.cls-26,.cls-27,.cls-3,.cls-4,.cls-5,.cls-7,.cls-8,.cls-9{stroke:#fff;}.cls-1,.cls-10,.cls-11,.cls-12,.cls-13,.cls-14,.cls-15,.cls-16,.cls-17,.cls-18,.cls-19,.cls-2,.cls-20,.cls-21,.cls-22,.cls-23,.cls-24,.cls-25,.cls-26,.cls-27,.cls-3,.cls-4,.cls-5,.cls-6,.cls-7,.cls-8,.cls-9{stroke-miterlimit:10;}.cls-1{stroke-width:12.02px;}.cls-2{stroke-width:8.56px;}.cls-14,.cls-22,.cls-27,.cls-3,.cls-8{fill:none;}.cls-3{stroke-width:8.02px;}.cls-4{stroke-width:8.46px;}.cls-5{stroke-width:8.5px;}.cls-6{stroke:#000;stroke-width:3px;}.cls-7{stroke-width:9.04px;}.cls-8{stroke-width:8.47px;}.cls-9{stroke-width:8.93px;}.cls-10{stroke-width:8.98px;}.cls-11{stroke-width:11.95px;}.cls-12{stroke-width:7.97px;}.cls-13{stroke-width:7.54px;}.cls-14{stroke-width:7.07px;}.cls-15{stroke-width:7.46px;}.cls-16{stroke-width:7.49px;}.cls-17{stroke-width:6.65px;}.cls-18{stroke-width:11.56px;}.cls-19{stroke-width:12.14px;}.cls-20{stroke-width:12.41px;}.cls-21{stroke-width:8.64px;}.cls-22{stroke-width:8.09px;}.cls-23{stroke-width:8.54px;}.cls-24{stroke-width:8.58px;}.cls-25,.cls-27{stroke-width:12.17px;}.cls-26{stroke-width:7.16px;}</style></defs><path class="cls-1" d="M1103.78,655.82c-13,3-35.55-57.06-39.27-55.48-4.86,2.07,21.43,89.51,18,121-1.14,10.76-16.84,7.59-19.61,1.7-10.88-22.94-17-85.32-22.94-85.77a9.62,9.62,0,0,1-.2-2.19,10.82,10.82,0,0,1-.15,2.39c-5.94.45-14.68,62.87-25.55,85.82-2.77,5.89-18.47,9-19.62-1.71-3.44-31.51,22.86-119,18-121-3.72-1.59-26.26,58.44-39.27,55.47s-10.8-14.5-9.69-17.14c25.27-59.25,52.83-79.19,52.83-79.19l21.28.41v-.21l23.09-.44s27.57,19.94,52.8,79.19C1114.62,641.32,1116.83,652.85,1103.78,655.82Z" transform="translate(-17.79 -63.37)"/><path class="cls-1" d="M1013.11,538.17c0-14.83,11.19-26.89,24.95-26.89s25,12.06,25,26.89-11.19,26.92-25,26.92S1013.11,553,1013.11,538.17Z" transform="translate(-17.79 -63.37)"/><path class="cls-2" d="M941,682.66l-14,1.88a1.75,1.75,0,0,1-1.94-1.53l-11.82-92.66a1.76,1.76,0,0,1,1.49-2l14-1.88a1.74,1.74,0,0,1,1.94,1.53l11.83,92.66A1.78,1.78,0,0,1,941,682.66Z" transform="translate(-17.79 -63.37)"/><path class="cls-3" d="M937.36,635.77a1099.49,1099.49,0,0,1,206.75,2.43" transform="translate(-17.79 -63.37)"/><path class="cls-2" d="M1184.46,697.23l-13.68-3.39a1.78,1.78,0,0,1-1.28-2.14l21.33-90.85a1.74,1.74,0,0,1,2.09-1.31l13.68,3.39a1.79,1.79,0,0,1,1.28,2.14l-21.34,90.85A1.73,1.73,0,0,1,1184.46,697.23Z" transform="translate(-17.79 -63.37)"/><path class="cls-4" d="M1165.43,691.36,1152,688a1.79,1.79,0,0,1-1.28-2.15l21.07-89.73a1.73,1.73,0,0,1,2.09-1.31l13.48,3.34a1.79,1.79,0,0,1,1.27,2.15l-21.07,89.73A1.73,1.73,0,0,1,1165.43,691.36Z" transform="translate(-17.79 -63.37)"/><path class="cls-5" d="M1144.06,686.74l-13.56-3.36a1.78,1.78,0,0,1-1.28-2.14L1150.4,591a1.75,1.75,0,0,1,2.09-1.31l13.57,3.36a1.8,1.8,0,0,1,1.28,2.15l-21.19,90.21A1.73,1.73,0,0,1,1144.06,686.74Z" transform="translate(-17.79 -63.37)"/><path class="cls-4" d="M921.16,684.19,907.41,686a1.75,1.75,0,0,1-1.94-1.53L893.79,593a1.79,1.79,0,0,1,1.49-2L909,589.14a1.75,1.75,0,0,1,1.94,1.53l11.68,91.52A1.79,1.79,0,0,1,921.16,684.19Z" transform="translate(-17.79 -63.37)"/><path class="cls-5" d="M899.61,687.75l-13.84,1.86a1.74,1.74,0,0,1-1.94-1.53l-11.74-92a1.76,1.76,0,0,1,1.49-2l13.84-1.87a1.76,1.76,0,0,1,1.94,1.54l11.74,92A1.78,1.78,0,0,1,899.61,687.75Z" transform="translate(-17.79 -63.37)"/><path class="cls-6" d="M-372.68-135.39" transform="translate(-17.79 -63.37)"/><path class="cls-7" d="M88,612.2l-1.17.16A8.8,8.8,0,0,1,77,604.74L66.2,521.5a8.85,8.85,0,0,1,7.54-9.91l1.17-.16A8.8,8.8,0,0,1,84.72,519l10.8,83.25A8.85,8.85,0,0,1,88,612.2Z" transform="translate(-17.79 -63.37)"/><path class="cls-8" d="M91,562.17a1190.79,1190.79,0,0,1,220.21,2.54" transform="translate(-17.79 -63.37)"/><path class="cls-7" d="M347.44,624.93l-1.15-.28A8.86,8.86,0,0,1,339.84,614l19.48-81.62a8.77,8.77,0,0,1,10.56-6.52l1.15.28a8.87,8.87,0,0,1,6.45,10.66L358,618.41A8.76,8.76,0,0,1,347.44,624.93Z" transform="translate(-17.79 -63.37)"/><path class="cls-9" d="M327.17,618.77l-.94-.23a8.87,8.87,0,0,1-6.45-10.66L339,527.43a8.77,8.77,0,0,1,10.55-6.51l.94.22a8.87,8.87,0,0,1,6.45,10.66l-19.21,80.45A8.76,8.76,0,0,1,327.17,618.77Z" transform="translate(-17.79 -63.37)"/><path class="cls-10" d="M304.42,613.93l-1-.25A8.86,8.86,0,0,1,296.94,603l19.32-80.95a8.78,8.78,0,0,1,10.56-6.52l1,.25a8.88,8.88,0,0,1,6.45,10.66l-19.33,81A8.77,8.77,0,0,1,304.42,613.93Z" transform="translate(-17.79 -63.37)"/><path class="cls-9" d="M66.88,613.8l-1,.13a8.8,8.8,0,0,1-9.81-7.62l-10.64-82A8.84,8.84,0,0,1,53,514.35l1-.12a8.79,8.79,0,0,1,9.81,7.61l10.64,82A8.84,8.84,0,0,1,66.88,613.8Z" transform="translate(-17.79 -63.37)"/><path class="cls-10" d="M43.92,617.53l-1.05.14a8.79,8.79,0,0,1-9.81-7.61L22.35,527.49a8.85,8.85,0,0,1,7.54-9.91l1.05-.14a8.78,8.78,0,0,1,9.8,7.62l10.72,82.56A8.85,8.85,0,0,1,43.92,617.53Z" transform="translate(-17.79 -63.37)"/><path class="cls-11" d="M173,535.94c0-14.53,11.27-26.36,25.13-26.36s25.18,11.83,25.18,26.36S212,562.35,198.11,562.35,173,550.52,173,535.94Z" transform="translate(-17.79 -63.37)"/><path class="cls-12" d="M104.31,554.34c0-6.78,5.12-12.27,11.4-12.27s11.42,5.49,11.42,12.27c0,.2,0,.4,0,.61l-22.78-.13A3.85,3.85,0,0,1,104.31,554.34Z" transform="translate(-17.79 -63.37)"/><path class="cls-12" d="M268.58,554.31c0-6.78,5.13-12.28,11.4-12.28s11.43,5.5,11.43,12.28a4,4,0,0,1,0,.6l-22.77-.12A2.58,2.58,0,0,1,268.58,554.31Z" transform="translate(-17.79 -63.37)"/><path class="cls-11" d="M219.08,604.28c-.4,2.79,1,10.4,3.19,20.59L243.94,677l-2.15,46.56-11.2,6.89-9.92-6,1.72-46.16-19.84-33.18-9-.88-9.08.84-18.52,33.22,1.71,46.16-9.92,6-11.19-6.89L144.32,677l19.91-52.1v0c2.19-10.19,3.55-17.76,3.15-20.55,0-1.51-.16-2.43-.6-2.63a4.16,4.16,0,0,0-.75-.24c-7.33-2-64.21,11.15-64-41.46,0-13.43,20.43-2.43,21.23.24,8.24,27.36,40,6.09,45.05,3.58a18.69,18.69,0,0,1,8.48-2.07l16.41.08h1.12l15.29-.08a18.61,18.61,0,0,1,8.49,2.07c5.09,2.51,36.8,23.78,45.05-3.58.83-2.67,21.19-13.67,21.26-.24.2,52.61-56.67,39.47-64,41.46a4.31,4.31,0,0,0-.76.24C219.24,601.85,219,602.77,219.08,604.28Z" transform="translate(-17.79 -63.37)"/><path class="cls-11" d="M168.41,536.52c0-14.53,11.27-26.36,25.13-26.36s25.17,11.83,25.17,26.36-11.27,26.41-25.17,26.41S168.41,551.1,168.41,536.52Z" transform="translate(-17.79 -63.37)"/><path class="cls-13" d="M106.51,151.31l-1,.13a7.34,7.34,0,0,1-8.19-6.35l-9-69.48a7.38,7.38,0,0,1,6.29-8.27l1-.13a7.33,7.33,0,0,1,8.18,6.35l9,69.48A7.39,7.39,0,0,1,106.51,151.31Z" transform="translate(-17.79 -63.37)"/><path class="cls-14" d="M109,109.55a994.23,994.23,0,0,1,183.8,2.13" transform="translate(-17.79 -63.37)"/><path class="cls-13" d="M323.06,161.93l-1-.23a7.4,7.4,0,0,1-5.39-8.9L333,84.68a7.33,7.33,0,0,1,8.81-5.44l1,.23a7.4,7.4,0,0,1,5.39,8.9l-16.27,68.12A7.31,7.31,0,0,1,323.06,161.93Z" transform="translate(-17.79 -63.37)"/><path class="cls-15" d="M306.14,156.79l-.78-.19a7.4,7.4,0,0,1-5.39-8.9l16-67.14a7.32,7.32,0,0,1,8.81-5.44l.78.19a7.41,7.41,0,0,1,5.39,8.9l-16,67.14A7.33,7.33,0,0,1,306.14,156.79Z" transform="translate(-17.79 -63.37)"/><path class="cls-16" d="M287.15,152.75l-.86-.2a7.41,7.41,0,0,1-5.38-8.9L297,76.08a7.3,7.3,0,0,1,8.8-5.43l.86.2a7.41,7.41,0,0,1,5.39,8.9L296,147.32A7.31,7.31,0,0,1,287.15,152.75Z" transform="translate(-17.79 -63.37)"/><path class="cls-15" d="M88.89,152.64l-.79.11a7.33,7.33,0,0,1-8.19-6.35L71,77.91a7.37,7.37,0,0,1,6.28-8.27l.8-.1a7.34,7.34,0,0,1,8.19,6.35l8.88,68.48A7.38,7.38,0,0,1,88.89,152.64Z" transform="translate(-17.79 -63.37)"/><path class="cls-16" d="M69.73,155.76l-.87.11a7.33,7.33,0,0,1-8.19-6.35L51.73,80.61A7.39,7.39,0,0,1,58,72.34l.88-.12a7.34,7.34,0,0,1,8.18,6.36L76,147.49A7.39,7.39,0,0,1,69.73,155.76Z" transform="translate(-17.79 -63.37)"/><path class="cls-17" d="M130.44,105.65c0-5.65,4.27-10.24,9.51-10.24s9.53,4.59,9.53,10.24a4.35,4.35,0,0,1,0,.51l-19-.11A2.61,2.61,0,0,1,130.44,105.65Z" transform="translate(-17.79 -63.37)"/><path class="cls-17" d="M248.5,103.79c0-5.66,4.27-10.25,9.51-10.25s9.54,4.59,9.54,10.25a4.18,4.18,0,0,1,0,.5l-19-.1A2.75,2.75,0,0,1,248.5,103.79Z" transform="translate(-17.79 -63.37)"/><path class="cls-18" d="M222.41,210.77c-.38,2.7,1,10.06,3.09,19.93l21,50.42-2.08,45.07-10.84,6.67L224,327l1.66-44.68-19.19-32.11-8.75-.85-8.79.81L171,282.36,172.61,327l-9.6,5.82-10.83-6.67-2.12-45.07,19.27-50.42v0c2.12-9.86,3.43-17.19,3-19.89,0-1.46-.16-2.35-.58-2.54a4,4,0,0,0-.73-.23c-7.1-1.93-39.5-36.85-39.27-87.78,0-13,16.06-7.93,16.83-5.35,8,26.48,19.78,59.13,24.67,56.7a18.09,18.09,0,0,1,8.21-2l15.89.07h1.07l14.81-.07a18,18,0,0,1,8.21,2c4.93,2.43,20.15-31,28.12-57.47.81-2.58,14.08-8.4,14.16,4.59.19,50.93-33.45,85.29-40.55,87.21-.31.08-.07,2.25-.23,2.33C222.57,208.42,222.37,209.31,222.41,210.77Z" transform="translate(-17.79 -63.37)"/><path class="cls-18" d="M173.37,145.2c0-14.07,10.91-25.52,24.32-25.52s24.37,11.45,24.37,25.52-10.91,25.56-24.37,25.56S173.37,159.31,173.37,145.2Z" transform="translate(-17.79 -63.37)"/><path class="cls-19" d="M593.69,110.39c0-15,11.27-27.22,25.14-27.22S644,95.38,644,110.39s-11.28,27.26-25.18,27.26S593.69,125.44,593.69,110.39Z" transform="translate(-17.79 -63.37)"/><path class="cls-20" d="M685.92,236.18c-2.23.49-4.78-.83-7.41-3.42,0-6.45.08-10.56.08-10.56L672,224.66C660.7,207.89,648.94,178.9,646.35,180s3.07,24.22,8.73,51L672,224.66a48.53,48.53,0,0,0,6.5,8.1c-.16,20.81-.48,65.95-.6,75.94-.2,20.44-21.28-4.11-21.28-4.11L658,251l-38.33,17.92L581.37,251l1.36,53.57s-21.12,24.55-21.32,4.11c-.08-9.82-.39-53.61-.55-74.87a47.06,47.06,0,0,0,7.33-8.84l17,6.38c5.62-26.81,11.19-50.08,8.68-51.11s-14.38,28-25.69,44.73l-7.41-2.79s0,4.56.08,11.63c-2.31,2-4.55,3-6.54,2.59-13.11-3-10.87-14.68-9.76-17.35,25.46-60,53.23-80.17,53.23-80.17l7.09.12a23.44,23.44,0,0,0,30-.24l7.61-.13s27.77,20.19,53.19,80.18C696.83,221.5,699.06,233.17,685.92,236.18Z" transform="translate(-17.79 -63.37)"/><path class="cls-21" d="M520.07,288l-13.7,1.86a2,2,0,0,1-2.16-1.71l-11.87-93.44A2,2,0,0,1,494,192.5l13.7-1.85a2,2,0,0,1,2.16,1.71l11.87,93.44A2,2,0,0,1,520.07,288Z" transform="translate(-17.79 -63.37)"/><path class="cls-22" d="M516.6,240.53A1101.76,1101.76,0,0,1,724.9,243" transform="translate(-17.79 -63.37)"/><path class="cls-21" d="M765.37,302.71l-13.44-3.35a2,2,0,0,1-1.41-2.39l21.4-91.61a1.93,1.93,0,0,1,2.32-1.46l13.44,3.34a2,2,0,0,1,1.42,2.4l-21.41,91.6A1.94,1.94,0,0,1,765.37,302.71Z" transform="translate(-17.79 -63.37)"/><path class="cls-23" d="M746.19,296.76,733,293.47a2,2,0,0,1-1.42-2.4l21.15-90.48a1.92,1.92,0,0,1,2.32-1.46l13.23,3.29a2,2,0,0,1,1.42,2.4l-21.15,90.47A1.93,1.93,0,0,1,746.19,296.76Z" transform="translate(-17.79 -63.37)"/><path class="cls-24" d="M724.67,292.08l-13.32-3.31a2,2,0,0,1-1.41-2.39l21.25-91a1.93,1.93,0,0,1,2.32-1.46l13.32,3.31a2,2,0,0,1,1.42,2.4l-21.26,91A1.92,1.92,0,0,1,724.67,292.08Z" transform="translate(-17.79 -63.37)"/><path class="cls-23" d="M500.1,289.57l-13.49,1.82a2,2,0,0,1-2.16-1.71L472.73,197.4a2,2,0,0,1,1.66-2.22l13.49-1.83a2,2,0,0,1,2.16,1.71l11.72,92.28A2,2,0,0,1,500.1,289.57Z" transform="translate(-17.79 -63.37)"/><path class="cls-24" d="M478.39,293.17,464.81,295a2,2,0,0,1-2.16-1.71l-11.78-92.78a2,2,0,0,1,1.65-2.22l13.59-1.84a1.93,1.93,0,0,1,2.15,1.71L480.05,291A2,2,0,0,1,478.39,293.17Z" transform="translate(-17.79 -63.37)"/><path class="cls-25" d="M579.8,636.83l11.56-35.57a10.67,10.67,0,0,1,.44-1.11l1.6-3.43a9.78,9.78,0,0,1,8-5.62l5.6-.49A9.79,9.79,0,0,1,617.59,599L619,609.73a9.82,9.82,0,0,1-.2,3.7h0a11.14,11.14,0,0,0,10.95,13.84l63.35-.78a9.83,9.83,0,0,1,4.66,1.12l58.86,30.79a9.78,9.78,0,0,1,4.67,5.33l17.59,48.38a13.52,13.52,0,0,1-8.82,17.57h0a17.32,17.32,0,0,1-21.38-11l-14-41.45a9.81,9.81,0,0,0-5.45-5.87L702.48,660a9.78,9.78,0,0,0-4-.78L594.17,661A9.8,9.8,0,0,1,585,655.1l-4.87-11.38A9.8,9.8,0,0,1,579.8,636.83Z" transform="translate(-17.79 -63.37)"/><ellipse class="cls-25" cx="535.4" cy="574.41" rx="28.31" ry="26.35"/><path class="cls-25" d="M644.94,543.53c0,25.18-20.63,45.59-46.08,45.59-1.41,0-2.8-.06-4.18-.19a45.8,45.8,0,0,1-41.91-45.4c0-25.18,20.64-45.59,46.09-45.59S644.94,518.35,644.94,543.53Z" transform="translate(-17.79 -63.37)"/><ellipse class="cls-26" cx="581.07" cy="480.16" rx="16.64" ry="15.49"/><rect class="cls-25" x="527.13" y="628.76" width="21.75" height="49.93"/><rect class="cls-25" x="641.32" y="628.76" width="21.75" height="49.93"/><rect class="cls-25" x="503.9" y="611.95" width="182.9" height="17.8"/><polyline class="cls-27" points="442.47 512.29 457.31 528.23 457.86 676.61"/><line class="cls-27" x1="473.21" y1="511.46" x2="457.31" y2="528.23"/></svg>