<svg xmlns="http://www.w3.org/2000/svg" xmlns:xlink="http://www.w3.org/1999/xlink" viewBox="0 0 912.99 400"><defs><style>.cls-1,.cls-10,.cls-11,.cls-12,.cls-7,.cls-8,.cls-9{fill:none;}.cls-2{isolation:isolate;}.cls-3{fill:#333;}.cls-13,.cls-4{fill:#cf6582;}.cls-5{fill:#9e005d;}.cls-6{clip-path:url(#clip-path);}.cls-10,.cls-11,.cls-12,.cls-7,.cls-8,.cls-9{stroke:#fff;stroke-miterlimit:10;}.cls-7{stroke-width:6.29px;}.cls-8{stroke-width:5.9px;}.cls-9{stroke-width:6.22px;}.cls-10{stroke-width:6.25px;}.cls-11{stroke-width:5.55px;}.cls-12{stroke-width:9.65px;}.cls-13{mix-blend-mode:color-burn;}</style><clipPath id="clip-path"><ellipse class="cls-1" cx="197.06" cy="224.48" rx="141.27" ry="142.58"/></clipPath></defs><g class="cls-2"><g id="Layer_1" data-name="Layer 1"><path class="cls-3" d="M414.27,152.94v75c0,2.74.73,4.8,2.19,6.16a8.88,8.88,0,0,0,6.3,2H457.3l.85,13.45q-9.63.85-20,1.06t-20.59.22q-10.77,0-15.79-5.53t-5-14V152.94Z"/><path class="cls-3" d="M483.06,151.24q5.1,0,5.1,5.09v7.93c0,3.4-1.7,5.09-5.1,5.09h-7.64c-3.4,0-5.1-1.69-5.1-5.09v-7.93q0-5.09,5.1-5.09Zm4.67,30.15v69.5h-17v-69.5Z"/><path class="cls-3" d="M551.14,181.39v11.89H501V182.09l12.89-.7Zm-16-32.28q2.4,0,6.3.15t8,.35a48.44,48.44,0,0,1,6.94.78L555,161.85H541.23c-4,0-6.74.81-8.35,2.41s-2.4,4.3-2.4,8.07v78.56H513.35V170.2a27.33,27.33,0,0,1,2.12-11.32,15.16,15.16,0,0,1,6.94-7.22Q527.21,149.11,535.15,149.11Z"/><path class="cls-3" d="M606.91,180v11.89H556.8V180.68l13.59-.71Zm-20.67-19.82v68.37c0,2.93.64,5,1.92,6.23s3.46,1.84,6.58,1.84h9.62l1.84,12a50.83,50.83,0,0,1-5.8,1.28c-2.27.37-4.48.63-6.65.77s-4,.22-5.52.22q-9.06,0-14.09-4.89t-5-14.08V160.15Z"/><path class="cls-3" d="M869.76,151.52l-.71,13.87H828.29L827,187.33l12.73,1.28a59.75,59.75,0,0,1,15.5,3,27.7,27.7,0,0,1,10.19,6.08,21.93,21.93,0,0,1,5.6,9.28,42.7,42.7,0,0,1,1.69,12.66,48.41,48.41,0,0,1-1.41,11.75,25.22,25.22,0,0,1-5,10.05,24.1,24.1,0,0,1-10,6.94q-6.43,2.55-16.63,2.55c-4.24,0-9.08-.27-14.51-.78a166,166,0,0,1-16.63-2.48l1.7-13.73q6.8.85,13.45,1.49t11.61.63q8.21,0,12.45-1.91a10.66,10.66,0,0,0,5.8-5.66,25.86,25.86,0,0,0,1.7-9.27,19.1,19.1,0,0,0-1.2-8.78,10.34,10.34,0,0,0-4.67-5,25.72,25.72,0,0,0-8.57-2.41q-5.37-.71-13-1.13l-9.76-1a7,7,0,0,1-4.32-2.26,6.09,6.09,0,0,1-1.49-4.53l2.41-42.61Z"/><path class="cls-4" d="M749.85,192.29l16.34,28.48-18,29.7-15-.13,19-29.7L735,192.16Zm22.43,23.43-.09,9.6-15.88-.14.09-9.6Zm21.53-23-17.55,28.17,18.46,30-14.81-.14-17.75-30L779,192.55Z"/><path class="cls-3" d="M716.37,151.52l-.7,13.87H674.9l-1.27,21.94,12.74,1.28a59.83,59.83,0,0,1,15.5,3,27.86,27.86,0,0,1,10.19,6.08,21.91,21.91,0,0,1,5.59,9.28,42.68,42.68,0,0,1,1.7,12.66,48.41,48.41,0,0,1-1.42,11.75,25.2,25.2,0,0,1-5,10.05,24.23,24.23,0,0,1-10,6.94q-6.45,2.55-16.64,2.55c-4.24,0-9.08-.27-14.5-.78a166.19,166.19,0,0,1-16.64-2.48l1.7-13.73q6.79.85,13.45,1.49t11.61.63q8.2,0,12.45-1.91a10.68,10.68,0,0,0,5.81-5.66,26.1,26.1,0,0,0,1.69-9.27,19.1,19.1,0,0,0-1.2-8.78,10.34,10.34,0,0,0-4.67-5,25.73,25.73,0,0,0-8.56-2.41q-5.39-.71-13-1.13l-9.76-1a7,7,0,0,1-4.32-2.26,6.13,6.13,0,0,1-1.49-4.53l2.41-42.61Z"/><circle class="cls-5" cx="201.05" cy="195.78" r="167.92"/><g class="cls-6"><path class="cls-7" d="M121.18,223.8l-.82.1a6.12,6.12,0,0,1-6.83-5.3l-7.52-58a6.16,6.16,0,0,1,5.25-6.9l.82-.11a6.12,6.12,0,0,1,6.83,5.3l7.52,58A6.17,6.17,0,0,1,121.18,223.8Z"/><path class="cls-8" d="M123.26,189a828.92,828.92,0,0,1,153.34,1.77"/><path class="cls-7" d="M301.85,232.66l-.8-.2a6.16,6.16,0,0,1-4.49-7.42l13.56-56.83a6.11,6.11,0,0,1,7.35-4.54l.8.19a6.18,6.18,0,0,1,4.5,7.42L309.2,228.12A6.11,6.11,0,0,1,301.85,232.66Z"/><path class="cls-9" d="M287.73,228.37l-.65-.16a6.18,6.18,0,0,1-4.49-7.42l13.37-56a6.12,6.12,0,0,1,7.35-4.54l.65.16a6.17,6.17,0,0,1,4.5,7.42l-13.38,56A6.11,6.11,0,0,1,287.73,228.37Z"/><path class="cls-10" d="M271.89,225l-.71-.17a6.18,6.18,0,0,1-4.5-7.42L280.14,161a6.1,6.1,0,0,1,7.35-4.53l.71.17a6.17,6.17,0,0,1,4.5,7.42l-13.46,56.37A6.1,6.1,0,0,1,271.89,225Z"/><path class="cls-9" d="M106.48,224.91l-.66.09A6.12,6.12,0,0,1,99,219.7l-7.42-57.14a6.17,6.17,0,0,1,5.25-6.9l.67-.09a6.13,6.13,0,0,1,6.83,5.3L111.73,218A6.16,6.16,0,0,1,106.48,224.91Z"/><path class="cls-10" d="M90.5,227.51l-.73.09a6.11,6.11,0,0,1-6.83-5.3l-7.46-57.49a6.15,6.15,0,0,1,5.24-6.9l.73-.1a6.12,6.12,0,0,1,6.83,5.3l7.46,57.5A6.15,6.15,0,0,1,90.5,227.51Z"/><path class="cls-11" d="M141.14,185.7c0-4.72,3.57-8.54,7.94-8.54S157,181,157,185.7c0,.14,0,.28,0,.42L141.16,186A1.94,1.94,0,0,1,141.14,185.7Z"/><path class="cls-11" d="M239.64,184.15c0-4.72,3.57-8.55,7.94-8.55s8,3.83,8,8.55a3,3,0,0,1,0,.42l-15.86-.09A1.83,1.83,0,0,1,239.64,184.15Z"/><path class="cls-12" d="M217.88,273.41c-.32,2.25.8,8.39,2.57,16.63L238,332.1l-1.74,37.6-9,5.57-8-4.86,1.38-37.28-16-26.79-7.3-.71-7.33.68-15,26.82,1.39,37.28-8,4.86-9-5.57-1.77-37.6L173.59,290v0c1.77-8.23,2.87-14.34,2.54-16.59,0-1.22-.12-2-.48-2.12a3.33,3.33,0,0,0-.61-.2c-5.92-1.6-32.95-30.74-32.76-73.23,0-10.84,13.4-6.62,14.05-4.47,6.65,22.1,16.49,49.34,20.58,47.31a15.09,15.09,0,0,1,6.85-1.67l13.25.06h.9l12.35-.06a15,15,0,0,1,6.85,1.67c4.12,2,16.81-25.85,23.47-47.95.67-2.15,11.74-7,11.8,3.83.16,42.49-27.91,71.16-33.82,72.77-.26.06-.07,1.87-.2,1.94C218,271.45,217.85,272.19,217.88,273.41Z"/><path class="cls-12" d="M177,218.7c0-11.74,9.1-21.29,20.3-21.29s20.32,9.55,20.32,21.29S208.48,240,197.26,240,177,230.47,177,218.7Z"/><circle class="cls-13" cx="199.18" cy="223.71" r="139.77"/></g></g></g></svg>