<svg xmlns="http://www.w3.org/2000/svg" xmlns:xlink="http://www.w3.org/1999/xlink" viewBox="0 0 1248.89 400"><defs><style>.cls-1,.cls-10,.cls-11,.cls-12,.cls-13,.cls-8,.cls-9{fill:none;}.cls-2{isolation:isolate;}.cls-3{fill:#9e005d;}.cls-4{fill:#29abe2;}.cls-5{clip-path:url(#clip-path);}.cls-6{fill:#a5d8ff;}.cls-7{mix-blend-mode:hard-light;}.cls-10,.cls-11,.cls-12,.cls-13,.cls-8,.cls-9{stroke:#ccc;stroke-miterlimit:10;}.cls-8{stroke-width:6.29px;}.cls-9{stroke-width:5.9px;}.cls-10{stroke-width:6.22px;}.cls-11{stroke-width:6.25px;}.cls-12{stroke-width:5.55px;}.cls-13{stroke-width:9.65px;}.cls-14{fill:#333;}</style><clipPath id="clip-path"><ellipse class="cls-1" cx="189.51" cy="219.48" rx="141.27" ry="142.58"/></clipPath></defs><g class="cls-2"><g id="Layer_1" data-name="Layer 1"><circle class="cls-3" cx="193.5" cy="190.79" r="167.92"/><circle class="cls-4" cx="192.94" cy="201.07" r="155.67"/><g class="cls-5"><circle class="cls-6" cx="191.63" cy="218.72" r="139.77"/><g class="cls-7"><path class="cls-8" d="M113.63,218.8l-.82.11a6.13,6.13,0,0,1-6.83-5.3l-7.52-58a6.16,6.16,0,0,1,5.25-6.9l.81-.11a6.12,6.12,0,0,1,6.83,5.3l7.52,58A6.15,6.15,0,0,1,113.63,218.8Z"/><path class="cls-9" d="M115.71,184a828.92,828.92,0,0,1,153.34,1.77"/><path class="cls-8" d="M294.3,227.66l-.8-.19A6.19,6.19,0,0,1,289,220l13.57-56.83a6.11,6.11,0,0,1,7.35-4.54l.8.19a6.18,6.18,0,0,1,4.49,7.43l-13.56,56.83A6.12,6.12,0,0,1,294.3,227.66Z"/><path class="cls-10" d="M280.18,223.37l-.65-.16a6.16,6.16,0,0,1-4.49-7.42l13.37-56a6.11,6.11,0,0,1,7.35-4.54l.65.16a6.18,6.18,0,0,1,4.49,7.43l-13.37,56A6.1,6.1,0,0,1,280.18,223.37Z"/><path class="cls-11" d="M264.34,220l-.72-.18a6.18,6.18,0,0,1-4.49-7.42L272.59,156a6.11,6.11,0,0,1,7.35-4.54l.71.17a6.18,6.18,0,0,1,4.49,7.43l-13.45,56.37A6.11,6.11,0,0,1,264.34,220Z"/><path class="cls-10" d="M98.93,219.91l-.67.09a6.13,6.13,0,0,1-6.83-5.3L84,157.56a6.17,6.17,0,0,1,5.25-6.9l.66-.08a6.11,6.11,0,0,1,6.83,5.3L104.18,213A6.16,6.16,0,0,1,98.93,219.91Z"/><path class="cls-11" d="M82.94,222.51l-.73.1a6.13,6.13,0,0,1-6.83-5.3l-7.46-57.5a6.17,6.17,0,0,1,5.25-6.9l.73-.09a6.11,6.11,0,0,1,6.83,5.3l7.46,57.49A6.15,6.15,0,0,1,82.94,222.51Z"/><path class="cls-12" d="M133.59,180.71c0-4.72,3.57-8.55,7.94-8.55s7.95,3.83,7.95,8.55a3,3,0,0,1,0,.42L133.61,181A1.88,1.88,0,0,1,133.59,180.71Z"/><path class="cls-12" d="M232.09,179.15c0-4.72,3.57-8.55,7.94-8.55s7.95,3.83,7.95,8.55c0,.14,0,.28,0,.42l-15.86-.09A1.77,1.77,0,0,1,232.09,179.15Z"/><path class="cls-13" d="M210.33,268.41c-.32,2.25.8,8.4,2.57,16.63l17.5,42.07-1.74,37.59-9,5.57-8-4.86L213,328.14l-16-26.79-7.3-.71-7.33.67-15,26.83,1.39,37.27-8,4.86-9-5.57L150,327.11,166,285v0c1.77-8.24,2.86-14.35,2.54-16.6,0-1.22-.13-2-.48-2.12a2.77,2.77,0,0,0-.61-.19c-5.92-1.61-33-30.75-32.76-73.24,0-10.84,13.4-6.62,14-4.46,6.66,22.09,16.5,49.33,20.58,47.3A15.12,15.12,0,0,1,176.2,234l13.26.06h.9l12.35-.06a15,15,0,0,1,6.85,1.67c4.11,2,16.81-25.85,23.46-47.94.68-2.16,11.75-7,11.81,3.83.16,42.48-27.91,71.15-33.83,72.76-.25.06-.06,1.87-.19,1.94C210.46,266.45,210.3,267.19,210.33,268.41Z"/><path class="cls-13" d="M169.41,213.7c0-11.74,9.1-21.29,20.29-21.29S210,202,210,213.7,200.93,235,189.7,235,169.41,225.47,169.41,213.7Z"/></g></g><path class="cls-14" d="M442.17,116.56q10.18,0,22.16,1.1a119.72,119.72,0,0,1,23.35,4.49l-2,20.16q-8.79-.19-20.56-.4t-23.16-.2q-5.6,0-9.48.3a15.88,15.88,0,0,0-6.29,1.6,7.21,7.21,0,0,0-3.39,3.89,20.57,20.57,0,0,0-1,7.19q0,7,3.29,10.18t11.28,5.79l26.55,8.58q16.56,5.59,23,15.17t6.38,25.15q0,11.79-2.79,19.56a25.16,25.16,0,0,1-8.78,12.18q-6,4.39-15.77,6.29a128.79,128.79,0,0,1-24,1.9q-6.78,0-19.36-.9a201.06,201.06,0,0,1-28.74-4.49l2-21.56q11.77.19,20.46.5t14.87.4c4.13.06,7.72.1,10.78.1a60.29,60.29,0,0,0,12.48-1q4.49-1,6.29-4t1.79-8.59a19.12,19.12,0,0,0-1.29-7.68,10,10,0,0,0-4.2-4.59,34.12,34.12,0,0,0-7.88-3.1l-28-9.58q-15.76-5.79-22.35-15.17t-6.59-24.75q0-12,2.89-19.46a24.46,24.46,0,0,1,9-11.68q6.08-4.2,15.77-5.79A145.74,145.74,0,0,1,442.17,116.56Z"/><path class="cls-14" d="M541.38,117.16l.2,34.14a115.69,115.69,0,0,1-.9,14.77,104,104,0,0,1-2.1,11.77l2.8,2.6v76.45H511.83V117.16Zm39.12,38.53q27.94,0,28,27.34v73.86H578.71V192.22c0-4.4-.77-7.42-2.3-9.09s-4.23-2.49-8.08-2.49A39.6,39.6,0,0,0,555.15,183a124.19,124.19,0,0,0-16.77,7.79l-2.59-15.37a90.1,90.1,0,0,1,22.36-14.67A54.32,54.32,0,0,1,580.5,155.69Z"/><path class="cls-14" d="M678.51,155.69q24.94,0,35.83,8.48t10.88,25.25q.19,13.58-6.79,20.26t-24.15,6.69H639.19V199.8H686.1q6.78,0,8.68-2.89t1.89-8.09q-.2-7-4.09-9.68t-13.07-2.69q-8.19,0-12.78,2.19T660.35,187q-1.8,6.18-1.8,18,0,12.38,2.2,19.06t7.48,9.29q5.28,2.59,14.67,2.59,6.78,0,16.87-.5T720,233.74l2.79,18.16a58.32,58.32,0,0,1-13.17,4.39,124.24,124.24,0,0,1-15.17,2.3q-7.79.69-15,.7-18.76,0-30.24-5.49a33.26,33.26,0,0,1-16.57-16.87q-5.09-11.38-5.09-29.14,0-19.36,5.19-30.74a31.68,31.68,0,0,1,16.37-16.37Q660.35,155.69,678.51,155.69Z"/><path class="cls-14" d="M819.43,119.16v103q0,5,2.8,7.58t8,2.6h48.11l1.4,22.95q-14.18,1.61-29.65,1.9t-30.84.3q-15,0-22.65-8.08t-7.69-20.66V119.16Z"/><path class="cls-14" d="M916.44,114.77q8.79,0,8.79,9v10.58q0,9-8.79,9H903.67q-8.79,0-8.79-9V123.75q0-9,8.79-9Zm8.19,43.51v98.61H895.28V158.28Z"/><path class="cls-14" d="M1015.45,158.28v19.36H941.19V159.28l17.77-1ZM990.9,113q3.58,0,9.48.2t12,.7c4.06.33,7.56.77,10.48,1.3l-2.59,19h-18.76q-7.59,0-10.58,3t-3,10.38V256.89H958.36V143.71a38.81,38.81,0,0,1,3.09-16.17,22.81,22.81,0,0,1,10.28-10.68Q978.92,113,990.9,113Z"/><path class="cls-14" d="M1096.29,158.28v19.36h-74.46V159.28l19.17-1Zm-27.55-27.34v94.41q0,5.4,2.5,7.69t8.28,2.29h12.78l3.19,20a60.93,60.93,0,0,1-8.78,2.1c-3.46.6-6.92,1.06-10.38,1.4s-6.39.5-8.79.5q-13.36,0-20.85-7.19t-7.49-20.16l-.2-101Z"/><path class="cls-14" d="M1149.58,155.69q7.18,0,15.57.5t16.37,1.29q8,.81,14.17,2l-2,18.36q-9.59-.19-19.27-.3t-18.86-.1a108.94,108.94,0,0,0-12,.2c-2.79.27-4.76.9-5.88,1.9s-1.7,2.76-1.7,5.29q0,4.39,3,5.89a55.43,55.43,0,0,0,10,3.29l25.75,6.19q12.38,3.2,18.37,9.48t6,18.87q0,12.38-4.59,19t-14.58,9.08q-10,2.49-25.75,2.5-6.18,0-18.36-.6a237.53,237.53,0,0,1-26.75-3l2-18.36q3.59.19,9.18.3t12.18.1h13.17q10.19,0,15.57-.5t7.39-2.3a6.87,6.87,0,0,0,2-5.39c0-2.92-1.13-4.92-3.39-6a61.57,61.57,0,0,0-10.78-3.4l-24.95-6.19q-9.39-2.58-14.57-6.58a21.31,21.31,0,0,1-7.29-9.78,40.46,40.46,0,0,1-2.1-13.78q0-10.17,4.1-16.27t13.37-8.88Q1134.21,155.69,1149.58,155.69Z"/></g></g></svg>