<svg id="Layer_1" data-name="Layer 1" xmlns="http://www.w3.org/2000/svg" viewBox="0 0 1585 473.87"><defs><style>.cls-1{fill:#1f000d;}</style></defs><path class="cls-1" d="M334.92,155.05V288.89a10.74,10.74,0,0,0,3.5,8.48q3.49,3.09,9.43,3.1H411.4l2.42,38a420,420,0,0,1-42.54,2.83q-22.36.4-44.17.41-20.19,0-31.37-11.31T284.57,301V155.05Z"/><path class="cls-1" d="M477.38,155.05V340.86H427.29V155.05Z"/><path class="cls-1" d="M546.31,154.24q15.08,0,31,.14t31.1.81q15.21.67,27.61,2.28l-2.43,35.82h-66q-6.21,0-9.56,3.1a10.93,10.93,0,0,0-3.37,8.48v136H504V194.37q0-18,11.72-29.09T546.31,154.24Zm-37.43,77.29H623.6v34.2H508.88Z"/><path class="cls-1" d="M797,155.05v38.51H639V155.05Zm-53.59,0V340.86H692.8V155.05Z"/><path class="cls-1" d="M977.71,155.05l-1.62,36.89H899.34l-1.88,26.39,31.24,4q16.41,1.62,26.92,7.14a48.25,48.25,0,0,1,16.7,13.87A50.34,50.34,0,0,1,980.94,262a93.49,93.49,0,0,1,2.42,21.54,83.16,83.16,0,0,1-3.23,23.43,48.25,48.25,0,0,1-10.91,19.39q-7.66,8.34-20.73,13.06t-33,4.71q-14,0-31.1-1.35t-34.87-4L854.1,301q13.47.81,26,1.62t22.22.81q12.38,0,18.85-2.29c4.3-1.52,7.36-3.86,9.15-7s2.78-7.23,3-12.26q.54-6.72-1.21-10.9a14.49,14.49,0,0,0-5.79-6.73,28.17,28.17,0,0,0-10.5-3.64c-4.31-.71-9.61-1.35-15.89-1.88l-29.08-3.5a15.92,15.92,0,0,1-10.5-5.52,15.15,15.15,0,0,1-3.77-10.91l4.84-83.75Z"/><path class="cls-1" d="M1041.79,155.05l40.4,90.75-43.9,95.06H987.67l47.39-95.06-43.62-90.75Zm57.63,75.67V259.8H1049.6V230.72Zm61.67-75.67-43.63,90.75,47.4,95.06h-50.63l-43.89-95.06,40.39-90.75Z"/><path class="cls-1" d="M1296.27,155.05l-1.62,36.89H1217.9L1216,218.33l31.24,4q16.41,1.62,26.92,7.14a48.25,48.25,0,0,1,16.7,13.87A50.34,50.34,0,0,1,1299.5,262a93.49,93.49,0,0,1,2.42,21.54,83.16,83.16,0,0,1-3.23,23.43,48.25,48.25,0,0,1-10.91,19.39q-7.66,8.34-20.73,13.06t-33,4.71q-14,0-31.1-1.35t-34.88-4l4.58-37.7q13.47.81,26,1.62t22.22.81q12.38,0,18.85-2.29c4.3-1.52,7.36-3.86,9.15-7s2.78-7.23,3-12.26q.54-6.72-1.21-10.9a14.49,14.49,0,0,0-5.79-6.73,28.17,28.17,0,0,0-10.5-3.64c-4.31-.71-9.61-1.35-15.89-1.88l-29.08-3.5a15.92,15.92,0,0,1-10.5-5.52,15.15,15.15,0,0,1-3.77-10.91l4.84-83.75Z"/><rect class="cls-1" x="1504.22" y="187.62" width="32.76" height="98.63" rx="4.59" transform="translate(3041.2 473.87) rotate(180)"/><rect class="cls-1" x="1424.83" y="90.4" width="65.52" height="293.07" rx="4.59" transform="translate(2915.18 473.87) rotate(180)"/><rect class="cls-1" x="1340.39" y="35.86" width="65.52" height="402.15" rx="4.59" transform="translate(2746.3 473.87) rotate(180)"/><rect class="cls-1" x="48.02" y="187.62" width="32.76" height="98.63" rx="4.59"/><rect class="cls-1" x="94.65" y="90.4" width="65.52" height="293.07" rx="4.59"/><rect class="cls-1" x="179.09" y="35.86" width="65.52" height="402.15" rx="4.59"/></svg>