<svg xmlns="http://www.w3.org/2000/svg" xmlns:xlink="http://www.w3.org/1999/xlink" viewBox="0 0 3711.62 389.34"><defs><style>.cls-1,.cls-10,.cls-11,.cls-12,.cls-13,.cls-21,.cls-27,.cls-32,.cls-34,.cls-35,.cls-36,.cls-37,.cls-38,.cls-39,.cls-8,.cls-9{fill:none;}.cls-2{isolation:isolate;}.cls-3{fill:#9e005d;}.cls-4{fill:#29abe2;}.cls-5{clip-path:url(#clip-path);}.cls-6{fill:#a5d8ff;}.cls-7{mix-blend-mode:hard-light;}.cls-10,.cls-11,.cls-12,.cls-13,.cls-8,.cls-9{stroke:#ccc;}.cls-10,.cls-11,.cls-12,.cls-13,.cls-16,.cls-17,.cls-19,.cls-20,.cls-21,.cls-22,.cls-23,.cls-25,.cls-26,.cls-27,.cls-28,.cls-29,.cls-31,.cls-32,.cls-34,.cls-35,.cls-36,.cls-37,.cls-38,.cls-39,.cls-8,.cls-9{stroke-miterlimit:10;}.cls-34,.cls-8{strokeWidth:6.29px;}.cls-35,.cls-9{strokeWidth:5.9px;}.cls-10,.cls-36{strokeWidth:6.22px;}.cls-11,.cls-37{strokeWidth:6.25px;}.cls-12,.cls-38{strokeWidth:5.55px;}.cls-13,.cls-39{strokeWidth:9.65px;}.cls-14{fill:url(#linear-gradient);}.cls-15{fill:url(#linear-gradient-2);}.cls-16,.cls-17,.cls-19,.cls-20,.cls-22,.cls-23,.cls-25,.cls-26,.cls-28,.cls-29,.cls-31{fill:#fff;}.cls-16,.cls-19,.cls-20,.cls-21,.cls-22,.cls-23,.cls-25,.cls-26,.cls-27,.cls-28,.cls-29,.cls-31,.cls-32{stroke:#9e005d;}.cls-16{strokeWidth:12.41px;}.cls-17{stroke:#000;strokeWidth:3px;}.cls-18{fill:url(#linear-gradient-3);}.cls-19{strokeWidth:11.51px;}.cls-20{strokeWidth:7.54px;}.cls-21{strokeWidth:7.07px;}.cls-22{strokeWidth:6.65px;}.cls-23{strokeWidth:11.56px;}.cls-24{fill:url(#linear-gradient-4);}.cls-25{strokeWidth:12.14px;}.cls-26{strokeWidth:8.64px;}.cls-27{strokeWidth:8.09px;}.cls-28{strokeWidth:8.54px;}.cls-29{strokeWidth:8.58px;}.cls-30{fill:url(#linear-gradient-5);}.cls-31,.cls-32{strokeWidth:10.95px;}.cls-33{clip-path:url(#clip-path-2);}.cls-34,.cls-35,.cls-36,.cls-37,.cls-38,.cls-39{stroke:#fff;}.cls-40{fill:#cf6582;mix-blend-mode:color-burn;}.cls-41{fill:#333;}</style><clipPath id="clip-path" transform="translate(-7.47 -5.68)"><ellipse class="cls-1" cx="2709.51" cy="219.48" rx="141.27" ry="142.58"/></clipPath><linearGradient id="linear-gradient" x1="150.1" y1="382" x2="247.67" y2="-49.59" gradientUnits="userSpaceOnUse"><stop offset="0" stop-color="#fff"/><stop offset="1" stop-color="#a5d8ff"/></linearGradient><linearGradient id="linear-gradient-2" x1="1830.28" y1="382.7" x2="1927.86" y2="-48.88" xlink:href="#linear-gradient"/><linearGradient id="linear-gradient-3" x1="990.1" y1="382" x2="1087.67" y2="-49.59" xlink:href="#linear-gradient"/><linearGradient id="linear-gradient-4" x1="570.1" y1="382" x2="667.67" y2="-49.59" xlink:href="#linear-gradient"/><linearGradient id="linear-gradient-5" x1="1410.1" y1="382" x2="1507.67" y2="-49.59" xlink:href="#linear-gradient"/><clipPath id="clip-path-2" transform="translate(-7.47 -5.68)"><ellipse class="cls-1" cx="2284.75" cy="217.43" rx="141.27" ry="142.58"/></clipPath></defs><g class="cls-2"><g id="Layer_1" data-name="Layer 1"><circle class="cls-3" cx="2706.03" cy="185.11" r="167.92"/><circle class="cls-4" cx="2705.47" cy="195.39" r="155.67"/><g class="cls-5"><circle class="cls-6" cx="2704.16" cy="213.04" r="139.77"/><g class="cls-7"><path class="cls-8" d="M2633.63,218.8l-.82.11a6.13,6.13,0,0,1-6.83-5.3l-7.52-58a6.16,6.16,0,0,1,5.25-6.9l.81-.11a6.12,6.12,0,0,1,6.83,5.3l7.52,58A6.15,6.15,0,0,1,2633.63,218.8Z" transform="translate(-7.47 -5.68)"/><path class="cls-9" d="M2635.71,184a828.92,828.92,0,0,1,153.34,1.77" transform="translate(-7.47 -5.68)"/><path class="cls-8" d="M2814.3,227.66l-.8-.19A6.19,6.19,0,0,1,2809,220l13.57-56.83a6.11,6.11,0,0,1,7.35-4.54l.8.19a6.18,6.18,0,0,1,4.49,7.43l-13.56,56.83A6.12,6.12,0,0,1,2814.3,227.66Z" transform="translate(-7.47 -5.68)"/><path class="cls-10" d="M2800.18,223.37l-.65-.16a6.16,6.16,0,0,1-4.49-7.42l13.37-56a6.11,6.11,0,0,1,7.35-4.54l.65.16a6.18,6.18,0,0,1,4.49,7.43l-13.37,56A6.1,6.1,0,0,1,2800.18,223.37Z" transform="translate(-7.47 -5.68)"/><path class="cls-11" d="M2784.34,220l-.72-.18a6.18,6.18,0,0,1-4.49-7.42L2792.59,156a6.11,6.11,0,0,1,7.35-4.54l.71.17a6.18,6.18,0,0,1,4.49,7.43l-13.45,56.37A6.11,6.11,0,0,1,2784.34,220Z" transform="translate(-7.47 -5.68)"/><path class="cls-10" d="M2618.93,219.91l-.67.09a6.13,6.13,0,0,1-6.83-5.3L2604,157.56a6.17,6.17,0,0,1,5.25-6.9l.66-.08a6.11,6.11,0,0,1,6.83,5.3l7.42,57.13A6.16,6.16,0,0,1,2618.93,219.91Z" transform="translate(-7.47 -5.68)"/><path class="cls-11" d="M2602.94,222.51l-.73.1a6.13,6.13,0,0,1-6.83-5.3l-7.46-57.5a6.17,6.17,0,0,1,5.25-6.9l.73-.09a6.11,6.11,0,0,1,6.83,5.3l7.46,57.49A6.15,6.15,0,0,1,2602.94,222.51Z" transform="translate(-7.47 -5.68)"/><path class="cls-12" d="M2653.59,180.71c0-4.72,3.57-8.55,7.94-8.55s7.95,3.83,7.95,8.55a3,3,0,0,1,0,.42l-15.85-.09A1.88,1.88,0,0,1,2653.59,180.71Z" transform="translate(-7.47 -5.68)"/><path class="cls-12" d="M2752.09,179.15c0-4.72,3.57-8.55,7.94-8.55s7.95,3.83,7.95,8.55c0,.14,0,.28,0,.42l-15.86-.09A1.77,1.77,0,0,1,2752.09,179.15Z" transform="translate(-7.47 -5.68)"/><path class="cls-13" d="M2730.33,268.41c-.32,2.25.8,8.4,2.57,16.63l17.5,42.07-1.74,37.59-9,5.57-8-4.86,1.39-37.27-16-26.79-7.3-.71-7.33.67-15,26.83,1.39,37.27-8,4.86-9-5.57L2670,327.11,2686,285v0c1.77-8.24,2.86-14.35,2.54-16.6,0-1.22-.13-2-.48-2.12a2.77,2.77,0,0,0-.61-.19c-5.92-1.61-32.95-30.75-32.76-73.24,0-10.84,13.4-6.62,14-4.46,6.66,22.09,16.5,49.33,20.58,47.3a15.12,15.12,0,0,1,6.85-1.67l13.26.06h.9l12.35-.06a15,15,0,0,1,6.85,1.67c4.11,2,16.81-25.85,23.46-47.94.68-2.16,11.75-7,11.81,3.83.16,42.48-27.91,71.15-33.83,72.76-.25.06-.06,1.87-.19,1.94C2730.46,266.45,2730.3,267.19,2730.33,268.41Z" transform="translate(-7.47 -5.68)"/><path class="cls-13" d="M2689.41,213.7c0-11.74,9.1-21.29,20.29-21.29S2730,202,2730,213.7,2720.93,235,2709.7,235,2689.41,225.47,2689.41,213.7Z" transform="translate(-7.47 -5.68)"/></g></g><ellipse class="cls-14" cx="192.53" cy="194.32" rx="192.53" ry="194.32"/><ellipse class="cls-15" cx="1872.71" cy="195.02" rx="192.53" ry="194.32"/><path class="cls-16" d="M1944,236.52c-13,3-35.55-57.06-39.27-55.48-4.86,2.08,21.44,89.51,18,121-1.15,10.76-16.85,7.59-19.62,1.7-10.87-22.94-17-85.32-22.94-85.77a11,11,0,0,1-.19-2.19,10.35,10.35,0,0,1-.16,2.39c-5.93.45-14.67,62.87-25.55,85.82-2.77,5.89-18.47,9.06-19.61-1.71-3.44-31.51,22.85-118.95,18-121-3.72-1.59-26.26,58.44-39.27,55.47s-10.79-14.49-9.69-17.13c25.27-59.26,52.84-79.2,52.84-79.2l21.27.41v-.21l23.1-.44s27.56,19.94,52.79,79.19C1954.8,222,1957,233.56,1944,236.52Z" transform="translate(-7.47 -5.68)"/><path class="cls-16" d="M1853.29,118.87c0-14.83,11.19-26.89,25-26.89s25,12.06,25,26.89-11.19,26.92-25,26.92S1853.29,133.73,1853.29,118.87Z" transform="translate(-7.47 -5.68)"/><path class="cls-16" d="M1781.16,263.36l-14,1.88a1.74,1.74,0,0,1-1.94-1.53l-11.83-92.66a1.77,1.77,0,0,1,1.49-2l14-1.88a1.75,1.75,0,0,1,1.94,1.53l11.82,92.66A1.77,1.77,0,0,1,1781.16,263.36Z" transform="translate(-7.47 -5.68)"/><path class="cls-16" d="M1777.54,216.47a1100.45,1100.45,0,0,1,206.76,2.43" transform="translate(-7.47 -5.68)"/><path class="cls-16" d="M2024.64,277.94,2011,274.55a1.79,1.79,0,0,1-1.28-2.15L2031,181.55a1.73,1.73,0,0,1,2.08-1.31l13.69,3.39a1.79,1.79,0,0,1,1.27,2.15l-21.33,90.84A1.75,1.75,0,0,1,2024.64,277.94Z" transform="translate(-7.47 -5.68)"/><path class="cls-16" d="M2005.61,272.06l-13.48-3.34a1.78,1.78,0,0,1-1.28-2.14l21.07-89.73a1.74,1.74,0,0,1,2.09-1.31l13.48,3.33a1.79,1.79,0,0,1,1.28,2.15l-21.07,89.73A1.74,1.74,0,0,1,2005.61,272.06Z" transform="translate(-7.47 -5.68)"/><path class="cls-16" d="M1984.25,267.44l-13.57-3.36a1.78,1.78,0,0,1-1.28-2.14l21.19-90.21a1.73,1.73,0,0,1,2.08-1.31l13.57,3.36a1.78,1.78,0,0,1,1.28,2.14l-21.19,90.21A1.73,1.73,0,0,1,1984.25,267.44Z" transform="translate(-7.47 -5.68)"/><path class="cls-16" d="M1761.34,264.89l-13.75,1.85a1.75,1.75,0,0,1-1.94-1.53L1734,173.69a1.77,1.77,0,0,1,1.49-2l13.75-1.85a1.74,1.74,0,0,1,1.94,1.53l11.68,91.52A1.77,1.77,0,0,1,1761.34,264.89Z" transform="translate(-7.47 -5.68)"/><path class="cls-16" d="M1739.79,268.45,1726,270.31a1.75,1.75,0,0,1-1.94-1.53l-11.74-92a1.78,1.78,0,0,1,1.49-2l13.84-1.86a1.75,1.75,0,0,1,1.94,1.53l11.74,92A1.78,1.78,0,0,1,1739.79,268.45Z" transform="translate(-7.47 -5.68)"/><path class="cls-17" d="M467.32-345.39" transform="translate(-7.47 -5.68)"/><ellipse class="cls-18" cx="1032.53" cy="194.32" rx="192.53" ry="194.32"/><path class="cls-19" d="M937.1,222.77l-1.09.14a8.15,8.15,0,0,1-9.1-7.06l-10-77.22a8.2,8.2,0,0,1,7-9.19l1.08-.14a8.15,8.15,0,0,1,9.1,7.06l10,77.22A8.21,8.21,0,0,1,937.1,222.77Z" transform="translate(-7.47 -5.68)"/><path class="cls-19" d="M939.87,176.36a1105.17,1105.17,0,0,1,204.26,2.36" transform="translate(-7.47 -5.68)"/><path class="cls-19" d="M1177.76,234.57l-1.07-.26a8.22,8.22,0,0,1-6-9.89l18.07-75.7a8.14,8.14,0,0,1,9.79-6.05l1.07.26a8.23,8.23,0,0,1,6,9.89l-18.07,75.71A8.13,8.13,0,0,1,1177.76,234.57Z" transform="translate(-7.47 -5.68)"/><path class="cls-19" d="M1159,228.86l-.87-.21a8.23,8.23,0,0,1-6-9.89l17.82-74.62a8.13,8.13,0,0,1,9.79-6l.86.21a8.22,8.22,0,0,1,6,9.88l-17.82,74.62A8.12,8.12,0,0,1,1159,228.86Z" transform="translate(-7.47 -5.68)"/><path class="cls-19" d="M1137.85,224.37l-.95-.23a8.23,8.23,0,0,1-6-9.89l17.93-75.08a8.13,8.13,0,0,1,9.79-6l.95.23a8.23,8.23,0,0,1,6,9.89l-17.93,75.09A8.13,8.13,0,0,1,1137.85,224.37Z" transform="translate(-7.47 -5.68)"/><path class="cls-19" d="M917.52,224.25l-.88.12a8.16,8.16,0,0,1-9.1-7.06l-9.88-76.11a8.21,8.21,0,0,1,7-9.19l.89-.12a8.16,8.16,0,0,1,9.1,7.06l9.87,76.11A8.2,8.2,0,0,1,917.52,224.25Z" transform="translate(-7.47 -5.68)"/><path class="cls-19" d="M896.23,227.71l-1,.13a8.15,8.15,0,0,1-9.1-7.06l-9.94-76.59a8.21,8.21,0,0,1,7-9.19l1-.13a8.16,8.16,0,0,1,9.09,7.06l9.94,76.59A8.21,8.21,0,0,1,896.23,227.71Z" transform="translate(-7.47 -5.68)"/><path class="cls-19" d="M1015.94,152c0-13.48,10.45-24.45,23.31-24.45s23.35,11,23.35,24.45-10.46,24.5-23.35,24.5S1015.94,165.56,1015.94,152Z" transform="translate(-7.47 -5.68)"/><path class="cls-19" d="M952.24,169.1c0-6.29,4.75-11.39,10.57-11.39s10.6,5.1,10.6,11.39a5.24,5.24,0,0,1,0,.56l-21.12-.12A2.17,2.17,0,0,1,952.24,169.1Z" transform="translate(-7.47 -5.68)"/><path class="cls-19" d="M1104.62,169.07c0-6.29,4.75-11.39,10.57-11.39s10.59,5.1,10.59,11.39a5.24,5.24,0,0,1,0,.56l-21.12-.12A3.24,3.24,0,0,1,1104.62,169.07Z" transform="translate(-7.47 -5.68)"/><path class="cls-19" d="M1058.7,215.42c-.37,2.58.92,9.64,3,19.1l20.1,48.32-2,43.19-10.38,6.39-9.2-5.57,1.59-42.82-18.4-30.78-8.39-.81-8.42.77L1009.38,284l1.59,42.82-9.2,5.57L991.38,326l-2-43.19,18.48-48.32v0c2-9.46,3.28-16.48,2.91-19.06,0-1.41-.14-2.26-.55-2.44a4.2,4.2,0,0,0-.7-.22c-6.8-1.85-59.56,10.34-59.34-38.46,0-12.45,19-2.26,19.7.22,7.64,25.38,37.09,5.65,41.78,3.32a17.54,17.54,0,0,1,7.87-1.92l15.22.08h1l14.18-.08a17.39,17.39,0,0,1,7.87,1.92c4.73,2.33,34.14,22.06,41.79-3.32.77-2.48,19.65-12.67,19.73-.22.18,48.8-52.58,36.61-59.37,38.46a4.07,4.07,0,0,0-.71.22C1058.85,213.16,1058.66,214,1058.7,215.42Z" transform="translate(-7.47 -5.68)"/><path class="cls-19" d="M1011.69,152.57c0-13.48,10.46-24.46,23.32-24.46s23.35,11,23.35,24.46-10.46,24.5-23.35,24.5S1011.69,166.09,1011.69,152.57Z" transform="translate(-7.47 -5.68)"/><path class="cls-20" d="M106.51,161.31l-1,.13a7.34,7.34,0,0,1-8.19-6.35l-9-69.48a7.38,7.38,0,0,1,6.29-8.27l1-.13a7.33,7.33,0,0,1,8.18,6.35l9,69.48A7.39,7.39,0,0,1,106.51,161.31Z" transform="translate(-7.47 -5.68)"/><path class="cls-21" d="M109,119.55a994.23,994.23,0,0,1,183.8,2.13" transform="translate(-7.47 -5.68)"/><path class="cls-20" d="M323.06,171.93l-1-.23a7.4,7.4,0,0,1-5.39-8.9L333,94.68a7.33,7.33,0,0,1,8.81-5.44l1,.23a7.4,7.4,0,0,1,5.39,8.9l-16.27,68.12A7.31,7.31,0,0,1,323.06,171.93Z" transform="translate(-7.47 -5.68)"/><path class="cls-20" d="M306.14,166.79l-.78-.19a7.4,7.4,0,0,1-5.39-8.9l16-67.14a7.32,7.32,0,0,1,8.81-5.44l.78.19a7.41,7.41,0,0,1,5.39,8.9l-16,67.14A7.33,7.33,0,0,1,306.14,166.79Z" transform="translate(-7.47 -5.68)"/><path class="cls-20" d="M287.15,162.75l-.86-.2a7.41,7.41,0,0,1-5.38-8.9L297,86.08a7.3,7.3,0,0,1,8.8-5.43l.86.2a7.41,7.41,0,0,1,5.39,8.9L296,157.32A7.31,7.31,0,0,1,287.15,162.75Z" transform="translate(-7.47 -5.68)"/><path class="cls-20" d="M88.89,162.64l-.79.11a7.33,7.33,0,0,1-8.19-6.35L71,87.91a7.37,7.37,0,0,1,6.28-8.27l.8-.1a7.34,7.34,0,0,1,8.19,6.35l8.88,68.48A7.38,7.38,0,0,1,88.89,162.64Z" transform="translate(-7.47 -5.68)"/><path class="cls-20" d="M69.73,165.76l-.87.11a7.33,7.33,0,0,1-8.19-6.35L51.73,90.61A7.39,7.39,0,0,1,58,82.34l.88-.12a7.34,7.34,0,0,1,8.18,6.36L76,157.49A7.39,7.39,0,0,1,69.73,165.76Z" transform="translate(-7.47 -5.68)"/><path class="cls-22" d="M130.44,115.65c0-5.65,4.27-10.24,9.51-10.24s9.53,4.59,9.53,10.24a4.35,4.35,0,0,1,0,.51l-19-.11A2.61,2.61,0,0,1,130.44,115.65Z" transform="translate(-7.47 -5.68)"/><path class="cls-22" d="M248.5,113.79c0-5.66,4.27-10.25,9.51-10.25s9.54,4.59,9.54,10.25a4.18,4.18,0,0,1,0,.5l-19-.1A2.75,2.75,0,0,1,248.5,113.79Z" transform="translate(-7.47 -5.68)"/><path class="cls-23" d="M222.41,220.77c-.38,2.7,1,10.06,3.09,19.93l21,50.42-2.08,45.07-10.84,6.67L224,337l1.66-44.68-19.19-32.11-8.75-.85-8.79.81L171,292.36,172.61,337l-9.6,5.82-10.83-6.67-2.12-45.07,19.27-50.42v0c2.12-9.86,3.43-17.19,3-19.89,0-1.46-.16-2.35-.58-2.54a4,4,0,0,0-.73-.23c-7.1-1.93-39.5-36.85-39.27-87.78,0-13,16.06-7.93,16.83-5.35,8,26.48,19.78,59.13,24.67,56.7a18.09,18.09,0,0,1,8.21-2l15.89.07h1.07l14.81-.07a18,18,0,0,1,8.21,2c4.93,2.43,20.15-31,28.12-57.47.81-2.58,14.08-8.4,14.16,4.59.19,50.93-33.45,85.29-40.55,87.21-.31.08-.07,2.25-.23,2.33C222.57,218.42,222.37,219.31,222.41,220.77Z" transform="translate(-7.47 -5.68)"/><path class="cls-23" d="M173.37,155.2c0-14.07,10.91-25.52,24.32-25.52s24.37,11.45,24.37,25.52-10.91,25.56-24.37,25.56S173.37,169.31,173.37,155.2Z" transform="translate(-7.47 -5.68)"/><ellipse class="cls-24" cx="612.53" cy="194.32" rx="192.53" ry="194.32"/><path class="cls-25" d="M591.85,97.85c0-15,11.27-27.22,25.14-27.22s25.18,12.22,25.18,27.22S630.89,125.11,617,125.11,591.85,112.9,591.85,97.85Z" transform="translate(-7.47 -5.68)"/><path class="cls-16" d="M684.07,223.64c-1.92.42-4.08-.5-6.33-2.42a3.13,3.13,0,0,1-1.07-2.38c0-1.78,0-3.34,0-4.66a3.11,3.11,0,0,0-4.21-2.93h0a3.11,3.11,0,0,1-3.72-1.24c-10.87-17-21.78-43.6-24.27-42.54s2.6,22.21,8,47.45a3.11,3.11,0,0,0,4.13,2.27L667.9,213a3.13,3.13,0,0,1,3.63,1.13,45.84,45.84,0,0,0,4.29,5.28,3,3,0,0,1,.83,2.14c-.16,21.33-.47,64.86-.58,74.64-.18,18-16.53,1.13-20.44-3.17a3.1,3.1,0,0,1-.81-2.17l1.2-47.31a3.11,3.11,0,0,0-4.43-2.9l-32.45,15.18a3.12,3.12,0,0,1-2.64,0l-32.41-15.18a3.11,3.11,0,0,0-4.43,2.9l1.19,47.31a3,3,0,0,1-.8,2.17c-3.93,4.3-20.3,21.16-20.48,3.17-.08-9.62-.38-51.79-.55-73.5a3.11,3.11,0,0,1,.91-2.22,46.15,46.15,0,0,0,5.05-6,3.12,3.12,0,0,1,3.62-1.11L580,217.56a3.11,3.11,0,0,0,4.13-2.27c5.35-25.29,10.34-46.59,7.94-47.57s-13.43,25.63-24.31,42.62a3.1,3.1,0,0,1-3.72,1.23l-.83-.31a3.11,3.11,0,0,0-4.21,2.93c0,1.54,0,3.42,0,5.59a3.08,3.08,0,0,1-1.24,2.52c-1.86,1.33-3.65,1.95-5.28,1.58-13.11-3-10.88-14.67-9.76-17.35,22.76-53.62,47.36-75.44,52.32-79.46a3.13,3.13,0,0,1,2-.69l5,.09a3.18,3.18,0,0,1,1.81.62,23.36,23.36,0,0,0,28.38-.21,3.14,3.14,0,0,1,1.86-.66l5.47-.09a3.12,3.12,0,0,1,2,.69c5,4,29.56,25.84,52.29,79.47C695,209,697.22,220.64,684.07,223.64Z" transform="translate(-7.47 -5.68)"/><path class="cls-26" d="M518.23,275.48l-13.71,1.86a1.94,1.94,0,0,1-2.15-1.71L490.5,182.19a2,2,0,0,1,1.66-2.23l13.7-1.85a2,2,0,0,1,2.16,1.71l11.86,93.44A2,2,0,0,1,518.23,275.48Z" transform="translate(-7.47 -5.68)"/><path class="cls-27" d="M514.76,228a1102.6,1102.6,0,0,1,208.3,2.46" transform="translate(-7.47 -5.68)"/><path class="cls-26" d="M763.52,290.17l-13.43-3.34a2,2,0,0,1-1.42-2.4l21.41-91.61a1.92,1.92,0,0,1,2.32-1.46l13.43,3.34a2,2,0,0,1,1.42,2.4l-21.41,91.61A1.92,1.92,0,0,1,763.52,290.17Z" transform="translate(-7.47 -5.68)"/><path class="cls-28" d="M744.35,284.22l-13.23-3.29a2,2,0,0,1-1.42-2.4l21.15-90.47a1.92,1.92,0,0,1,2.32-1.47l13.23,3.29a2,2,0,0,1,1.41,2.4l-21.14,90.48A1.92,1.92,0,0,1,744.35,284.22Z" transform="translate(-7.47 -5.68)"/><path class="cls-29" d="M722.83,279.55l-13.32-3.32a2,2,0,0,1-1.42-2.39l21.26-91a1.92,1.92,0,0,1,2.32-1.46L745,184.72a2,2,0,0,1,1.42,2.4l-21.26,91A1.94,1.94,0,0,1,722.83,279.55Z" transform="translate(-7.47 -5.68)"/><path class="cls-28" d="M498.26,277l-13.49,1.82a1.93,1.93,0,0,1-2.16-1.71l-11.72-92.28a2,2,0,0,1,1.66-2.22L486,180.81a2,2,0,0,1,2.16,1.71l11.72,92.28A2,2,0,0,1,498.26,277Z" transform="translate(-7.47 -5.68)"/><path class="cls-29" d="M476.55,280.63,463,282.47a1.93,1.93,0,0,1-2.15-1.71L449,188a2,2,0,0,1,1.66-2.22l13.58-1.84a2,2,0,0,1,2.16,1.71l11.78,92.78A2,2,0,0,1,476.55,280.63Z" transform="translate(-7.47 -5.68)"/><ellipse class="cls-30" cx="1452.53" cy="194.32" rx="192.53" ry="194.32"/><path class="cls-31" d="M1417.57,225.76l10.19-31.38a9.08,9.08,0,0,1,.39-1l1.41-3a8.64,8.64,0,0,1,7.08-5l4.94-.44a8.64,8.64,0,0,1,9.31,7.44l1.29,9.43a8.52,8.52,0,0,1-.18,3.26h0a9.83,9.83,0,0,0,9.66,12.22l55.88-.69a8.65,8.65,0,0,1,4.11,1l51.92,27.16a8.62,8.62,0,0,1,4.11,4.7l15.52,42.68a11.93,11.93,0,0,1-7.78,15.5h0a15.28,15.28,0,0,1-18.86-9.73l-12.38-36.56a8.65,8.65,0,0,0-4.81-5.19l-23.59-10a8.58,8.58,0,0,0-3.53-.69l-92,1.62a8.64,8.64,0,0,1-8.1-5.24l-4.3-10A8.64,8.64,0,0,1,1417.57,225.76Z" transform="translate(-7.47 -5.68)"/><ellipse class="cls-31" cx="1386.62" cy="220.91" rx="24.97" ry="23.25"/><path class="cls-31" d="M1475,143.46a40.43,40.43,0,0,1-40.65,40.21c-1.24,0-2.47,0-3.68-.16a40.24,40.24,0,1,1,44.33-40Z" transform="translate(-7.47 -5.68)"/><ellipse class="cls-31" cx="1426.9" cy="137.78" rx="14.68" ry="13.66"/><rect class="cls-31" x="1379.32" y="268.86" width="19.18" height="44.04"/><rect class="cls-31" x="1480.04" y="268.86" width="19.18" height="44.04"/><rect class="cls-31" x="1358.83" y="254.03" width="161.33" height="15.7"/><polyline class="cls-32" points="1304.65 166.12 1317.74 180.18 1318.22 311.06"/><line class="cls-32" x1="1331.77" y1="165.39" x2="1317.74" y2="180.18"/><circle class="cls-3" cx="2281.27" cy="183.05" r="167.92"/><g class="cls-33"><path class="cls-34" d="M2208.87,216.75l-.82.1a6.11,6.11,0,0,1-6.83-5.3l-7.52-58a6.15,6.15,0,0,1,5.25-6.9l.81-.11a6.11,6.11,0,0,1,6.83,5.3l7.52,58A6.15,6.15,0,0,1,2208.87,216.75Z" transform="translate(-7.47 -5.68)"/><path class="cls-35" d="M2211,181.91a828.92,828.92,0,0,1,153.34,1.77" transform="translate(-7.47 -5.68)"/><path class="cls-34" d="M2389.54,225.61l-.8-.2a6.17,6.17,0,0,1-4.5-7.42l13.57-56.83a6.1,6.1,0,0,1,7.35-4.54l.8.19a6.17,6.17,0,0,1,4.49,7.42l-13.57,56.84A6.1,6.1,0,0,1,2389.54,225.61Z" transform="translate(-7.47 -5.68)"/><path class="cls-36" d="M2375.42,221.32l-.65-.16a6.16,6.16,0,0,1-4.49-7.42l13.37-56a6.11,6.11,0,0,1,7.35-4.54l.65.16a6.16,6.16,0,0,1,4.49,7.42l-13.37,56A6.11,6.11,0,0,1,2375.42,221.32Z" transform="translate(-7.47 -5.68)"/><path class="cls-37" d="M2359.58,218l-.72-.17a6.18,6.18,0,0,1-4.49-7.42L2367.83,154a6.1,6.1,0,0,1,7.35-4.53l.71.17a6.16,6.16,0,0,1,4.49,7.42l-13.45,56.37A6.11,6.11,0,0,1,2359.58,218Z" transform="translate(-7.47 -5.68)"/><path class="cls-36" d="M2194.17,217.86l-.67.09a6.13,6.13,0,0,1-6.83-5.3l-7.41-57.14a6.17,6.17,0,0,1,5.25-6.9l.66-.09a6.12,6.12,0,0,1,6.83,5.3l7.41,57.14A6.15,6.15,0,0,1,2194.17,217.86Z" transform="translate(-7.47 -5.68)"/><path class="cls-37" d="M2178.18,220.46l-.73.09a6.12,6.12,0,0,1-6.83-5.3l-7.46-57.49a6.16,6.16,0,0,1,5.25-6.9l.73-.1a6.12,6.12,0,0,1,6.83,5.3l7.46,57.5A6.16,6.16,0,0,1,2178.18,220.46Z" transform="translate(-7.47 -5.68)"/><path class="cls-38" d="M2228.83,178.65c0-4.72,3.56-8.54,7.94-8.54s7.95,3.82,7.95,8.54a3,3,0,0,1,0,.42l-15.85-.08A1.94,1.94,0,0,1,2228.83,178.65Z" transform="translate(-7.47 -5.68)"/><path class="cls-38" d="M2327.33,177.1c0-4.72,3.57-8.55,7.94-8.55s7.95,3.83,7.95,8.55c0,.14,0,.28,0,.42l-15.86-.09A1.83,1.83,0,0,1,2327.33,177.1Z" transform="translate(-7.47 -5.68)"/><path class="cls-39" d="M2305.57,266.36c-.32,2.25.8,8.39,2.57,16.63l17.5,42.06-1.74,37.6-9,5.57-8-4.86,1.39-37.28-16-26.79-7.3-.7-7.33.67-15,26.82,1.38,37.28-8,4.86-9-5.57-1.77-37.6L2261.28,283v0c1.77-8.23,2.86-14.34,2.54-16.59,0-1.22-.13-2-.48-2.12a3.33,3.33,0,0,0-.61-.2c-5.92-1.6-32.95-30.74-32.76-73.23,0-10.84,13.4-6.62,14-4.47,6.66,22.1,16.5,49.34,20.58,47.31a15.12,15.12,0,0,1,6.85-1.67l13.25.06h.9l12.35-.06a15.07,15.07,0,0,1,6.86,1.67c4.11,2,16.8-25.85,23.46-48,.68-2.15,11.75-7,11.81,3.83.16,42.49-27.91,71.16-33.83,72.77-.25.06-.06,1.87-.19,1.94C2305.7,264.4,2305.54,265.14,2305.57,266.36Z" transform="translate(-7.47 -5.68)"/><path class="cls-39" d="M2264.65,211.65c0-11.74,9.1-21.29,20.29-21.29s20.33,9.55,20.33,21.29-9.1,21.32-20.33,21.32S2264.65,223.42,2264.65,211.65Z" transform="translate(-7.47 -5.68)"/><circle class="cls-40" cx="2279.4" cy="210.98" r="139.77"/></g><path class="cls-41" d="M2962.17,116.56q10.18,0,22.16,1.1a119.72,119.72,0,0,1,23.35,4.49l-2,20.16q-8.79-.19-20.56-.4t-23.16-.2q-5.59,0-9.48.3a15.88,15.88,0,0,0-6.29,1.6,7.21,7.21,0,0,0-3.39,3.89,20.57,20.57,0,0,0-1,7.19q0,7,3.29,10.18t11.28,5.79l26.55,8.58q16.56,5.59,23,15.17t6.38,25.15q0,11.79-2.79,19.56a25.16,25.16,0,0,1-8.78,12.18q-6,4.39-15.77,6.29a128.79,128.79,0,0,1-24,1.9q-6.78,0-19.36-.9a201.06,201.06,0,0,1-28.74-4.49l2-21.56q11.78.19,20.46.5t14.87.4c4.13.06,7.72.1,10.78.1a60.29,60.29,0,0,0,12.48-1q4.49-1,6.29-4t1.79-8.59a19.12,19.12,0,0,0-1.29-7.68,10,10,0,0,0-4.2-4.59,34.12,34.12,0,0,0-7.88-3.1L2940.21,195q-15.77-5.79-22.35-15.17t-6.59-24.75q0-12,2.89-19.46a24.46,24.46,0,0,1,9-11.68q6.07-4.2,15.77-5.79A145.74,145.74,0,0,1,2962.17,116.56Z" transform="translate(-7.47 -5.68)"/><path class="cls-41" d="M3061.38,117.16l.2,34.14a115.69,115.69,0,0,1-.9,14.77,104,104,0,0,1-2.1,11.77l2.8,2.6v76.45h-29.55V117.16Zm39.12,38.53q27.95,0,27.95,27.34v73.86h-29.74V192.22c0-4.4-.77-7.42-2.3-9.09s-4.23-2.49-8.08-2.49a39.6,39.6,0,0,0-13.18,2.39,124.19,124.19,0,0,0-16.77,7.79l-2.59-15.37a90.1,90.1,0,0,1,22.36-14.67A54.32,54.32,0,0,1,3100.5,155.69Z" transform="translate(-7.47 -5.68)"/><path class="cls-41" d="M3198.51,155.69q24.94,0,35.83,8.48t10.88,25.25q.2,13.58-6.79,20.26t-24.15,6.69h-55.09V199.8h46.91q6.78,0,8.68-2.89t1.89-8.09q-.2-7-4.09-9.68t-13.07-2.69q-8.19,0-12.78,2.19t-6.38,8.39q-1.8,6.18-1.8,18,0,12.38,2.2,19.06t7.48,9.29q5.28,2.59,14.67,2.59,6.78,0,16.87-.5t20.26-1.69l2.79,18.16a58.32,58.32,0,0,1-13.17,4.39,124.24,124.24,0,0,1-15.17,2.3q-7.79.69-15,.7-18.77,0-30.24-5.49a33.26,33.26,0,0,1-16.57-16.87q-5.09-11.38-5.09-29.14,0-19.36,5.19-30.74a31.68,31.68,0,0,1,16.37-16.37Q3180.35,155.69,3198.51,155.69Z" transform="translate(-7.47 -5.68)"/><path class="cls-41" d="M3339.43,119.16v103q0,5,2.8,7.58t8,2.6h48.11l1.4,22.95q-14.17,1.61-29.65,1.9t-30.84.3q-15,0-22.65-8.08t-7.69-20.66V119.16Z" transform="translate(-7.47 -5.68)"/><path class="cls-41" d="M3436.44,114.77q8.79,0,8.79,9v10.58q0,9-8.79,9h-12.77q-8.79,0-8.79-9V123.75q0-9,8.79-9Zm8.19,43.51v98.61h-29.35V158.28Z" transform="translate(-7.47 -5.68)"/><path class="cls-41" d="M3535.45,158.28v19.36h-74.26V159.28l17.77-1ZM3510.9,113q3.58,0,9.48.2t12,.7c4.06.33,7.56.77,10.48,1.3l-2.59,19h-18.76q-7.59,0-10.58,3t-3,10.38V256.89h-29.54V143.71a38.81,38.81,0,0,1,3.09-16.17,22.81,22.81,0,0,1,10.28-10.68Q3498.92,113,3510.9,113Z" transform="translate(-7.47 -5.68)"/><path class="cls-41" d="M3616.29,158.28v19.36h-74.46V159.28l19.17-1Zm-27.55-27.34v94.41q0,5.4,2.5,7.69t8.28,2.29h12.78l3.19,20a60.93,60.93,0,0,1-8.78,2.1c-3.46.6-6.92,1.06-10.38,1.4s-6.39.5-8.79.5q-13.36,0-20.85-7.19t-7.49-20.16l-.2-101Z" transform="translate(-7.47 -5.68)"/><path class="cls-41" d="M3669.58,155.69q7.18,0,15.57.5t16.37,1.29q8,.81,14.17,2l-2,18.36q-9.59-.19-19.27-.3t-18.86-.1a108.94,108.94,0,0,0-12,.2c-2.79.27-4.76.9-5.88,1.9s-1.7,2.76-1.7,5.29q0,4.39,3,5.89a55.43,55.43,0,0,0,10,3.29l25.75,6.19q12.38,3.2,18.37,9.48t6,18.87q0,12.38-4.59,19t-14.58,9.08q-10,2.49-25.75,2.5-6.18,0-18.36-.6a237.53,237.53,0,0,1-26.75-3l2-18.36q3.58.19,9.18.3t12.18.1h13.17q10.18,0,15.57-.5t7.39-2.3a6.87,6.87,0,0,0,2-5.39c0-2.92-1.13-4.92-3.39-6a61.57,61.57,0,0,0-10.78-3.4l-24.95-6.19q-9.39-2.58-14.57-6.58a21.31,21.31,0,0,1-7.29-9.78,40.46,40.46,0,0,1-2.1-13.78q0-10.17,4.1-16.27t13.37-8.88Q3654.22,155.69,3669.58,155.69Z" transform="translate(-7.47 -5.68)"/></g></g></svg>