<svg id="Layer_1" data-name="Layer 1" xmlns="http://www.w3.org/2000/svg" viewBox="0 0 400 400"><defs><style>.cls-1{fill:#fff;stroke:#9e005d;stroke-miterlimit:10;stroke-width:12.41px;}</style></defs><path class="cls-1" d="M88,192.2l-1.17.16A8.8,8.8,0,0,1,77,184.74L66.2,101.5a8.85,8.85,0,0,1,7.54-9.91l1.17-.16A8.8,8.8,0,0,1,84.72,99l10.8,83.25A8.85,8.85,0,0,1,88,192.2Z"/><path class="cls-1" d="M91,142.17a1190.79,1190.79,0,0,1,220.21,2.54"/><path class="cls-1" d="M347.44,204.93l-1.15-.28A8.86,8.86,0,0,1,339.84,194l19.48-81.62a8.77,8.77,0,0,1,10.56-6.52l1.15.28a8.87,8.87,0,0,1,6.45,10.66L358,198.41A8.76,8.76,0,0,1,347.44,204.93Z"/><path class="cls-1" d="M327.17,198.77l-.94-.23a8.87,8.87,0,0,1-6.45-10.66L339,107.43a8.77,8.77,0,0,1,10.55-6.51l.94.22a8.87,8.87,0,0,1,6.45,10.66l-19.21,80.45A8.76,8.76,0,0,1,327.17,198.77Z"/><path class="cls-1" d="M304.42,193.93l-1-.25A8.86,8.86,0,0,1,296.94,183l19.32-81a8.78,8.78,0,0,1,10.56-6.52l1,.25a8.88,8.88,0,0,1,6.45,10.66l-19.33,81A8.77,8.77,0,0,1,304.42,193.93Z"/><path class="cls-1" d="M66.88,193.8l-1,.13a8.8,8.8,0,0,1-9.81-7.62l-10.64-82A8.84,8.84,0,0,1,53,94.35l1-.12a8.79,8.79,0,0,1,9.81,7.61l10.64,82A8.84,8.84,0,0,1,66.88,193.8Z"/><path class="cls-1" d="M43.92,197.53l-1.05.14a8.79,8.79,0,0,1-9.81-7.61L22.35,107.49a8.85,8.85,0,0,1,7.54-9.91l1.05-.14a8.78,8.78,0,0,1,9.8,7.62l10.72,82.56A8.85,8.85,0,0,1,43.92,197.53Z"/><path class="cls-1" d="M173,115.94c0-14.53,11.27-26.36,25.13-26.36s25.18,11.83,25.18,26.36S212,142.35,198.11,142.35,173,130.52,173,115.94Z"/><path class="cls-1" d="M104.31,134.34c0-6.78,5.12-12.27,11.4-12.27s11.42,5.49,11.42,12.27c0,.2,0,.4,0,.61l-22.78-.13A3.85,3.85,0,0,1,104.31,134.34Z"/><path class="cls-1" d="M268.58,134.31c0-6.78,5.13-12.28,11.4-12.28s11.43,5.5,11.43,12.28a4,4,0,0,1,0,.6l-22.77-.12A2.58,2.58,0,0,1,268.58,134.31Z"/><path class="cls-1" d="M219.08,184.28c-.4,2.79,1,10.4,3.19,20.59L243.94,257l-2.15,46.56-11.2,6.89-9.92-6,1.72-46.16-19.84-33.18-9-.88-9.08.84-18.52,33.22,1.71,46.16-9.92,6-11.19-6.89L144.32,257l19.91-52.1v0c2.19-10.19,3.55-17.76,3.15-20.55,0-1.51-.16-2.43-.6-2.63a4.16,4.16,0,0,0-.75-.24c-7.33-2-64.21,11.15-64-41.46,0-13.43,20.43-2.43,21.23.24,8.24,27.36,40,6.09,45.05,3.58a18.69,18.69,0,0,1,8.48-2.07l16.41.08h1.12l15.29-.08a18.61,18.61,0,0,1,8.49,2.07c5.09,2.51,36.8,23.78,45.05-3.58.83-2.67,21.19-13.67,21.26-.24.2,52.61-56.67,39.47-64,41.46a4.31,4.31,0,0,0-.76.24C219.24,181.85,219,182.77,219.08,184.28Z"/><path class="cls-1" d="M168.41,116.52c0-14.53,11.27-26.36,25.13-26.36s25.17,11.83,25.17,26.36-11.27,26.41-25.17,26.41S168.41,131.1,168.41,116.52Z"/></svg>