<svg id="Layer_1" data-name="Layer 1" xmlns="http://www.w3.org/2000/svg" viewBox="0 0 400 400"><defs><style>.cls-1,.cls-3,.cls-4{fill:#fff;}.cls-1,.cls-2,.cls-3,.cls-4{stroke:#9e005d;stroke-miterlimit:10;}.cls-1{stroke-width:7.54px;}.cls-2{fill:none;stroke-width:7.07px;}.cls-3{stroke-width:6.65px;}.cls-4{stroke-width:11.56px;}</style></defs><path class="cls-1" d="M94.64,160.74l-1,.13a7.33,7.33,0,0,1-8.19-6.35L76.46,85a7.39,7.39,0,0,1,6.29-8.27l1-.13A7.33,7.33,0,0,1,91.91,83l9,69.48A7.39,7.39,0,0,1,94.64,160.74Z"/><path class="cls-2" d="M97.13,119a994.12,994.12,0,0,1,183.79,2.13"/><path class="cls-1" d="M311.18,171.36l-1-.23a7.4,7.4,0,0,1-5.38-8.9L321.1,94.11a7.32,7.32,0,0,1,8.81-5.44l1,.24a7.39,7.39,0,0,1,5.38,8.89L320,165.92A7.31,7.31,0,0,1,311.18,171.36Z"/><path class="cls-1" d="M294.27,166.22l-.78-.19a7.39,7.39,0,0,1-5.39-8.89l16-67.15a7.32,7.32,0,0,1,8.81-5.44l.78.19a7.4,7.4,0,0,1,5.38,8.9l-16,67.14A7.31,7.31,0,0,1,294.27,166.22Z"/><path class="cls-1" d="M275.28,162.19l-.86-.21a7.41,7.41,0,0,1-5.39-8.9l16.13-67.56A7.32,7.32,0,0,1,294,80.08l.86.21a7.39,7.39,0,0,1,5.38,8.89l-16.13,67.57A7.31,7.31,0,0,1,275.28,162.19Z"/><path class="cls-1" d="M77,162.08l-.8.1A7.33,7.33,0,0,1,68,155.83L59.15,87.35a7.38,7.38,0,0,1,6.29-8.27l.8-.11a7.33,7.33,0,0,1,8.18,6.35l8.89,68.49A7.39,7.39,0,0,1,77,162.08Z"/><path class="cls-1" d="M57.86,165.19l-.87.12A7.35,7.35,0,0,1,48.8,159L39.86,90a7.39,7.39,0,0,1,6.29-8.27l.87-.11A7.33,7.33,0,0,1,55.21,88l8.94,68.91A7.39,7.39,0,0,1,57.86,165.19Z"/><path class="cls-3" d="M118.56,115.09c0-5.66,4.28-10.25,9.52-10.25s9.53,4.59,9.53,10.25a4.26,4.26,0,0,1,0,.5l-19-.11A2.55,2.55,0,0,1,118.56,115.09Z"/><path class="cls-3" d="M236.63,113.22c0-5.66,4.27-10.25,9.51-10.25s9.53,4.59,9.53,10.25a4.1,4.1,0,0,1,0,.5l-19-.1A2.68,2.68,0,0,1,236.63,113.22Z"/><path class="cls-4" d="M210.54,220.21c-.38,2.69,1,10.06,3.08,19.93l21,50.42-2.08,45.06-10.83,6.67-9.6-5.82,1.66-44.68-19.2-32.11-8.75-.85-8.79.81-17.92,32.15,1.66,44.68-9.6,5.82-10.83-6.67-2.12-45.06,19.27-50.42v0c2.12-9.87,3.43-17.2,3-19.89,0-1.47-.16-2.36-.58-2.55a4.42,4.42,0,0,0-.74-.23c-7.09-1.93-39.49-36.85-39.26-87.77,0-13,16.06-7.94,16.83-5.36,8,26.48,19.77,59.13,24.67,56.7a18.06,18.06,0,0,1,8.21-2l15.88.07h1.08l14.8-.07a18,18,0,0,1,8.22,2c4.93,2.43,20.14-31,28.12-57.46.81-2.59,14.08-8.41,14.16,4.59.19,50.92-33.46,85.28-40.55,87.21-.31.07-.08,2.24-.23,2.32C210.69,217.85,210.5,218.74,210.54,220.21Z"/><path class="cls-4" d="M161.5,154.63c0-14.07,10.91-25.52,24.32-25.52s24.36,11.45,24.36,25.52-10.91,25.56-24.36,25.56S161.5,168.74,161.5,154.63Z"/></svg>