<svg id="Layer_1" data-name="Layer 1" xmlns="http://www.w3.org/2000/svg" viewBox="0 0 400 400"><defs><style>.cls-1,.cls-2,.cls-3,.cls-5,.cls-6{fill:#fff;}.cls-1,.cls-2,.cls-3,.cls-4,.cls-5,.cls-6{stroke:#9e005d;stroke-miterlimit:10;}.cls-1{stroke-width:12.14px;}.cls-2{stroke-width:12.41px;}.cls-3{stroke-width:8.64px;}.cls-4{fill:none;stroke-width:8.09px;}.cls-5{stroke-width:8.54px;}.cls-6{stroke-width:8.58px;}</style></defs><path class="cls-1" d="M173.69,110.39c0-15,11.27-27.22,25.14-27.22S224,95.38,224,110.39s-11.28,27.26-25.18,27.26S173.69,125.44,173.69,110.39Z"/><path class="cls-2" d="M265.92,236.18c-2.23.49-4.78-.83-7.41-3.42,0-6.45.08-10.56.08-10.56L252,224.66C240.7,207.89,228.94,178.9,226.35,180s3.07,24.22,8.73,51L252,224.66a48.53,48.53,0,0,0,6.5,8.1c-.16,20.81-.48,65.95-.6,75.94-.2,20.44-21.28-4.11-21.28-4.11L238,251l-38.33,17.92L161.37,251l1.36,53.57s-21.12,24.55-21.32,4.11c-.08-9.82-.39-53.61-.55-74.87a47.06,47.06,0,0,0,7.33-8.84l17,6.38c5.62-26.81,11.19-50.08,8.68-51.11s-14.38,28-25.69,44.73l-7.41-2.79s0,4.56.08,11.63c-2.31,2-4.55,3-6.54,2.59-13.11-3-10.87-14.68-9.76-17.35,25.46-60,53.23-80.17,53.23-80.17l7.09.12a23.44,23.44,0,0,0,30-.24l7.61-.13s27.77,20.19,53.19,80.18C276.83,221.5,279.06,233.17,265.92,236.18Z"/><path class="cls-3" d="M100.07,288l-13.7,1.86a2,2,0,0,1-2.16-1.71L72.34,194.73A2,2,0,0,1,74,192.5l13.7-1.85a2,2,0,0,1,2.16,1.71l11.87,93.44A2,2,0,0,1,100.07,288Z"/><path class="cls-4" d="M96.6,240.53A1101.76,1101.76,0,0,1,304.9,243"/><path class="cls-3" d="M345.37,302.71l-13.44-3.35a2,2,0,0,1-1.41-2.39l21.4-91.61a1.93,1.93,0,0,1,2.32-1.46l13.44,3.34a2,2,0,0,1,1.42,2.4l-21.41,91.6A1.94,1.94,0,0,1,345.37,302.71Z"/><path class="cls-5" d="M326.19,296.76,313,293.47a2,2,0,0,1-1.42-2.4l21.15-90.48a1.92,1.92,0,0,1,2.32-1.46l13.23,3.29a2,2,0,0,1,1.42,2.4l-21.15,90.47A1.93,1.93,0,0,1,326.19,296.76Z"/><path class="cls-6" d="M304.67,292.08l-13.32-3.31a2,2,0,0,1-1.41-2.39l21.25-91a1.93,1.93,0,0,1,2.32-1.46l13.32,3.31a2,2,0,0,1,1.42,2.4l-21.26,91A1.92,1.92,0,0,1,304.67,292.08Z"/><path class="cls-5" d="M80.1,289.57l-13.49,1.82a2,2,0,0,1-2.16-1.71L52.73,197.4a2,2,0,0,1,1.66-2.22l13.49-1.83A2,2,0,0,1,70,195.06l11.72,92.28A2,2,0,0,1,80.1,289.57Z"/><path class="cls-6" d="M58.39,293.17,44.81,295a2,2,0,0,1-2.16-1.71L30.87,200.52a2,2,0,0,1,1.65-2.22l13.59-1.84a1.93,1.93,0,0,1,2.15,1.71L60.05,291A2,2,0,0,1,58.39,293.17Z"/></svg>