<svg id="Layer_1" data-name="Layer 1" xmlns="http://www.w3.org/2000/svg" xmlns:xlink="http://www.w3.org/1999/xlink" viewBox="0 0 400 400"><defs><style>.cls-1{fill:url(#linear-gradient);}.cls-2,.cls-4,.cls-5{fill:#fff;}.cls-2,.cls-3,.cls-4,.cls-5{stroke:#9e005d;stroke-miterlimit:10;}.cls-2{stroke-width:7.54px;}.cls-3{fill:none;stroke-width:7.07px;}.cls-4{stroke-width:6.65px;}.cls-5{stroke-width:11.56px;}</style><linearGradient id="linear-gradient" x1="157.57" y1="387.68" x2="255.14" y2="-43.9" gradientUnits="userSpaceOnUse"><stop offset="0" stop-color="#fff"/><stop offset="1" stop-color="#a5d8ff"/></linearGradient></defs><ellipse class="cls-1" cx="200" cy="200" rx="192.53" ry="194.32"/><path class="cls-2" d="M106.51,161.31l-1,.13a7.34,7.34,0,0,1-8.19-6.35l-9-69.48a7.38,7.38,0,0,1,6.29-8.27l1-.13a7.33,7.33,0,0,1,8.18,6.35l9,69.48A7.39,7.39,0,0,1,106.51,161.31Z"/><path class="cls-3" d="M109,119.55a994.23,994.23,0,0,1,183.8,2.13"/><path class="cls-2" d="M323.06,171.93l-1-.23a7.4,7.4,0,0,1-5.39-8.9L333,94.68a7.33,7.33,0,0,1,8.81-5.44l1,.23a7.4,7.4,0,0,1,5.39,8.9l-16.27,68.12A7.31,7.31,0,0,1,323.06,171.93Z"/><path class="cls-2" d="M306.14,166.79l-.78-.19a7.4,7.4,0,0,1-5.39-8.9l16-67.14a7.32,7.32,0,0,1,8.81-5.44l.78.19a7.41,7.41,0,0,1,5.39,8.9l-16,67.14A7.33,7.33,0,0,1,306.14,166.79Z"/><path class="cls-2" d="M287.15,162.75l-.86-.2a7.41,7.41,0,0,1-5.38-8.9L297,86.08a7.3,7.3,0,0,1,8.8-5.43l.86.2a7.41,7.41,0,0,1,5.39,8.9L296,157.32A7.31,7.31,0,0,1,287.15,162.75Z"/><path class="cls-2" d="M88.89,162.64l-.79.11a7.33,7.33,0,0,1-8.19-6.35L71,87.91a7.37,7.37,0,0,1,6.28-8.27l.8-.1a7.34,7.34,0,0,1,8.19,6.35l8.88,68.48A7.38,7.38,0,0,1,88.89,162.64Z"/><path class="cls-2" d="M69.73,165.76l-.87.11a7.33,7.33,0,0,1-8.19-6.35L51.73,90.61A7.39,7.39,0,0,1,58,82.34l.88-.12a7.34,7.34,0,0,1,8.18,6.36L76,157.49A7.39,7.39,0,0,1,69.73,165.76Z"/><path class="cls-4" d="M130.44,115.65c0-5.65,4.27-10.24,9.51-10.24s9.53,4.59,9.53,10.24a4.35,4.35,0,0,1,0,.51l-19-.11A2.61,2.61,0,0,1,130.44,115.65Z"/><path class="cls-4" d="M248.5,113.79c0-5.66,4.27-10.25,9.51-10.25s9.54,4.59,9.54,10.25a4.18,4.18,0,0,1,0,.5l-19-.1A2.75,2.75,0,0,1,248.5,113.79Z"/><path class="cls-5" d="M222.41,220.77c-.38,2.7,1,10.06,3.09,19.93l21,50.42-2.08,45.07-10.84,6.67L224,337l1.66-44.68-19.19-32.11-8.75-.85-8.79.81L171,292.36,172.61,337l-9.6,5.82-10.83-6.67-2.12-45.07,19.27-50.42v0c2.12-9.86,3.43-17.19,3-19.89,0-1.46-.16-2.35-.58-2.54a4,4,0,0,0-.73-.23c-7.1-1.93-39.5-36.85-39.27-87.78,0-13,16.06-7.93,16.83-5.35,8,26.48,19.78,59.13,24.67,56.7a18.09,18.09,0,0,1,8.21-2l15.89.07h1.07l14.81-.07a18,18,0,0,1,8.21,2c4.93,2.43,20.15-31,28.12-57.47.81-2.58,14.08-8.4,14.16,4.59.19,50.93-33.45,85.29-40.55,87.21-.31.08-.07,2.25-.23,2.33C222.57,218.42,222.37,219.31,222.41,220.77Z"/><path class="cls-5" d="M173.37,155.2c0-14.07,10.91-25.52,24.32-25.52s24.37,11.45,24.37,25.52-10.91,25.56-24.37,25.56S173.37,169.31,173.37,155.2Z"/></svg>