<svg id="Layer_1" data-name="Layer 1" xmlns="http://www.w3.org/2000/svg" xmlns:xlink="http://www.w3.org/1999/xlink" viewBox="0 0 400 400"><defs><style>.cls-1{fill:url(#linear-gradient);}.cls-2{fill:#fff;}.cls-2,.cls-3{stroke:#9e005d;stroke-miterlimit:10;stroke-width:10.95px;}.cls-3{fill:none;}</style><linearGradient id="linear-gradient" x1="157.57" y1="387.68" x2="255.14" y2="-43.9" gradientUnits="userSpaceOnUse"><stop offset="0" stop-color="#fff"/><stop offset="1" stop-color="#a5d8ff"/></linearGradient></defs><ellipse class="cls-1" cx="200" cy="200" rx="192.53" ry="194.32"/><path class="cls-2" d="M157.57,225.76l10.19-31.38a9.08,9.08,0,0,1,.39-1l1.41-3a8.64,8.64,0,0,1,7.08-5l4.94-.44a8.64,8.64,0,0,1,9.31,7.44l1.29,9.43a8.52,8.52,0,0,1-.18,3.26h0a9.83,9.83,0,0,0,9.66,12.22l55.88-.69a8.65,8.65,0,0,1,4.11,1l51.92,27.16a8.62,8.62,0,0,1,4.11,4.7l15.52,42.68a11.93,11.93,0,0,1-7.78,15.5h0a15.28,15.28,0,0,1-18.86-9.73l-12.38-36.56a8.65,8.65,0,0,0-4.81-5.19l-23.59-10a8.58,8.58,0,0,0-3.53-.69l-92,1.62a8.64,8.64,0,0,1-8.1-5.24l-4.3-10A8.64,8.64,0,0,1,157.57,225.76Z"/><ellipse class="cls-2" cx="134.09" cy="226.59" rx="24.97" ry="23.25"/><path class="cls-2" d="M215,143.46a40.43,40.43,0,0,1-40.65,40.21c-1.24,0-2.47,0-3.68-.16a40.24,40.24,0,1,1,44.33-40Z"/><ellipse class="cls-2" cx="174.37" cy="143.46" rx="14.68" ry="13.66"/><rect class="cls-2" x="126.79" y="274.54" width="19.18" height="44.04"/><rect class="cls-2" x="227.51" y="274.54" width="19.18" height="44.04"/><rect class="cls-2" x="106.3" y="259.71" width="161.33" height="15.7"/><polyline class="cls-3" points="52.12 171.8 65.21 185.86 65.69 316.75"/><line class="cls-3" x1="79.24" y1="171.07" x2="65.21" y2="185.86"/></svg>