<svg id="Layer_1" data-name="Layer 1" xmlns="http://www.w3.org/2000/svg" xmlns:xlink="http://www.w3.org/1999/xlink" viewBox="0 0 400 400"><defs><style>.cls-1{fill:url(#linear-gradient);}.cls-2,.cls-3,.cls-4,.cls-6,.cls-7{fill:#fff;}.cls-2,.cls-3,.cls-4,.cls-5,.cls-6,.cls-7{stroke:#9e005d;stroke-miterlimit:10;}.cls-2{stroke-width:12.14px;}.cls-3{stroke-width:12.41px;}.cls-4{stroke-width:8.64px;}.cls-5{fill:none;stroke-width:8.09px;}.cls-6{stroke-width:8.54px;}.cls-7{stroke-width:8.58px;}</style><linearGradient id="linear-gradient" x1="157.57" y1="387.68" x2="255.14" y2="-43.9" gradientUnits="userSpaceOnUse"><stop offset="0" stop-color="#fff"/><stop offset="1" stop-color="#a5d8ff"/></linearGradient></defs><ellipse class="cls-1" cx="200" cy="200" rx="192.53" ry="194.32"/><path class="cls-2" d="M171.85,97.85c0-15,11.27-27.22,25.14-27.22s25.18,12.22,25.18,27.22S210.89,125.11,197,125.11,171.85,112.9,171.85,97.85Z"/><path class="cls-3" d="M264.07,223.64c-1.92.42-4.08-.5-6.33-2.42a3.13,3.13,0,0,1-1.07-2.38c0-1.78,0-3.34,0-4.66a3.11,3.11,0,0,0-4.21-2.93h0a3.11,3.11,0,0,1-3.72-1.24c-10.87-17-21.78-43.6-24.27-42.54s2.6,22.21,8,47.45a3.11,3.11,0,0,0,4.13,2.27L247.9,213a3.13,3.13,0,0,1,3.63,1.13,45.84,45.84,0,0,0,4.29,5.28,3,3,0,0,1,.83,2.14c-.16,21.33-.47,64.86-.58,74.64-.18,18-16.53,1.13-20.44-3.17a3.1,3.1,0,0,1-.81-2.17l1.2-47.31a3.11,3.11,0,0,0-4.43-2.9l-32.45,15.18a3.12,3.12,0,0,1-2.64,0l-32.41-15.18a3.11,3.11,0,0,0-4.43,2.9l1.19,47.31a3,3,0,0,1-.8,2.17c-3.93,4.3-20.3,21.16-20.48,3.17-.08-9.62-.38-51.79-.55-73.5a3.11,3.11,0,0,1,.91-2.22,46.15,46.15,0,0,0,5-6,3.12,3.12,0,0,1,3.62-1.11L160,217.56a3.11,3.11,0,0,0,4.13-2.27c5.35-25.29,10.34-46.59,7.94-47.57s-13.43,25.63-24.31,42.62a3.1,3.1,0,0,1-3.72,1.23l-.83-.31a3.11,3.11,0,0,0-4.21,2.93c0,1.54,0,3.42,0,5.59a3.08,3.08,0,0,1-1.24,2.52c-1.86,1.33-3.65,1.95-5.28,1.58-13.11-3-10.88-14.67-9.76-17.35,22.76-53.62,47.36-75.44,52.32-79.46a3.13,3.13,0,0,1,2-.69l5,.09a3.18,3.18,0,0,1,1.81.62,23.36,23.36,0,0,0,28.38-.21,3.14,3.14,0,0,1,1.86-.66l5.47-.09a3.12,3.12,0,0,1,2,.69c5,4,29.56,25.84,52.29,79.47C275,209,277.22,220.64,264.07,223.64Z"/><path class="cls-4" d="M98.23,275.48l-13.71,1.86a1.94,1.94,0,0,1-2.15-1.71L70.5,182.19A2,2,0,0,1,72.16,180l13.7-1.85A2,2,0,0,1,88,179.82l11.86,93.44A2,2,0,0,1,98.23,275.48Z"/><path class="cls-5" d="M94.76,228a1102.6,1102.6,0,0,1,208.3,2.46"/><path class="cls-4" d="M343.52,290.17l-13.43-3.34a2,2,0,0,1-1.42-2.4l21.41-91.61a1.92,1.92,0,0,1,2.32-1.46l13.43,3.34a2,2,0,0,1,1.42,2.4l-21.41,91.61A1.92,1.92,0,0,1,343.52,290.17Z"/><path class="cls-6" d="M324.35,284.22l-13.23-3.29a2,2,0,0,1-1.42-2.4l21.15-90.47a1.92,1.92,0,0,1,2.32-1.47l13.23,3.29a2,2,0,0,1,1.41,2.4l-21.14,90.48A1.92,1.92,0,0,1,324.35,284.22Z"/><path class="cls-7" d="M302.83,279.55l-13.32-3.32a2,2,0,0,1-1.42-2.39l21.26-91a1.92,1.92,0,0,1,2.32-1.46L325,184.72a2,2,0,0,1,1.42,2.4l-21.26,91A1.94,1.94,0,0,1,302.83,279.55Z"/><path class="cls-6" d="M78.26,277l-13.49,1.82a1.93,1.93,0,0,1-2.16-1.71L50.89,184.86a2,2,0,0,1,1.66-2.22L66,180.81a2,2,0,0,1,2.16,1.71L79.92,274.8A2,2,0,0,1,78.26,277Z"/><path class="cls-7" d="M56.55,280.63,43,282.47a1.93,1.93,0,0,1-2.15-1.71L29,188a2,2,0,0,1,1.66-2.22l13.58-1.84a2,2,0,0,1,2.16,1.71L58.2,278.41A2,2,0,0,1,56.55,280.63Z"/></svg>