<svg id="Layer_1" data-name="Layer 1" xmlns="http://www.w3.org/2000/svg" viewBox="0 0 400 400"><defs><style>.cls-1{fill:#fff;stroke:#9e005d;stroke-miterlimit:10;stroke-width:12.41px;}</style></defs><path class="cls-1" d="M159.8,216.83l11.56-35.57a10.67,10.67,0,0,1,.44-1.11l1.6-3.43a9.78,9.78,0,0,1,8-5.62l5.6-.49A9.79,9.79,0,0,1,197.59,179L199,189.73a9.82,9.82,0,0,1-.2,3.7h0a11.14,11.14,0,0,0,10.95,13.84l63.35-.78a9.83,9.83,0,0,1,4.66,1.12l58.86,30.79a9.78,9.78,0,0,1,4.67,5.33l17.59,48.38a13.52,13.52,0,0,1-8.82,17.57h0a17.32,17.32,0,0,1-21.38-11l-14-41.45a9.81,9.81,0,0,0-5.45-5.87L282.48,240a9.78,9.78,0,0,0-4-.78L174.17,241A9.8,9.8,0,0,1,165,235.1l-4.87-11.38A9.8,9.8,0,0,1,159.8,216.83Z"/><ellipse class="cls-1" cx="133.19" cy="217.78" rx="28.31" ry="26.35"/><path class="cls-1" d="M224.94,123.53c0,25.18-20.63,45.59-46.08,45.59-1.41,0-2.8-.06-4.18-.19a45.8,45.8,0,0,1-41.91-45.4c0-25.18,20.64-45.59,46.09-45.59S224.94,98.35,224.94,123.53Z"/><ellipse class="cls-1" cx="178.86" cy="123.53" rx="16.64" ry="15.49"/><rect class="cls-1" x="124.92" y="272.13" width="21.75" height="49.93"/><rect class="cls-1" x="239.1" y="272.13" width="21.75" height="49.93"/><rect class="cls-1" x="101.69" y="255.33" width="182.9" height="17.8"/><polyline class="cls-1" points="40.26 155.66 55.1 171.6 55.65 319.98"/><line class="cls-1" x1="71" y1="154.83" x2="55.1" y2="171.6"/></svg>