<svg id="Layer_1" data-name="Layer 1" xmlns="http://www.w3.org/2000/svg" viewBox="0 0 400 400"><defs><style>.cls-1{fill:#fff;stroke:#9e005d;stroke-miterlimit:10;stroke-width:12.41px;}</style></defs><path class="cls-1" d="M263.78,235.82c-13,3-35.55-57.06-39.27-55.48-4.86,2.07,21.43,89.51,18,121-1.14,10.76-16.84,7.59-19.61,1.7-10.88-22.94-17-85.32-22.94-85.77a9.62,9.62,0,0,1-.2-2.19,10.82,10.82,0,0,1-.15,2.39c-5.94.45-14.68,62.87-25.55,85.82-2.77,5.89-18.47,9.05-19.62-1.71-3.44-31.51,22.86-119,18-121-3.72-1.59-26.26,58.44-39.27,55.47s-10.8-14.5-9.69-17.14c25.27-59.25,52.83-79.19,52.83-79.19l21.28.41v-.21l23.09-.44s27.57,19.94,52.8,79.19C274.62,221.32,276.83,232.85,263.78,235.82Z"/><path class="cls-1" d="M173.11,118.17c0-14.83,11.19-26.89,24.95-26.89s25,12.06,25,26.89-11.19,26.92-25,26.92S173.11,133,173.11,118.17Z"/><path class="cls-1" d="M101,262.66l-14,1.88A1.75,1.75,0,0,1,85.08,263L73.26,170.35a1.76,1.76,0,0,1,1.49-2l14-1.88A1.74,1.74,0,0,1,90.64,168l11.83,92.66A1.78,1.78,0,0,1,101,262.66Z"/><path class="cls-1" d="M97.36,215.77a1099.49,1099.49,0,0,1,206.75,2.43"/><path class="cls-1" d="M344.46,277.23l-13.68-3.39a1.78,1.78,0,0,1-1.28-2.14l21.33-90.85a1.74,1.74,0,0,1,2.09-1.31l13.68,3.39a1.79,1.79,0,0,1,1.28,2.14l-21.34,90.85A1.73,1.73,0,0,1,344.46,277.23Z"/><path class="cls-1" d="M325.43,271.36,312,268a1.79,1.79,0,0,1-1.28-2.15l21.07-89.73a1.73,1.73,0,0,1,2.09-1.31l13.48,3.34a1.79,1.79,0,0,1,1.27,2.15l-21.07,89.73A1.73,1.73,0,0,1,325.43,271.36Z"/><path class="cls-1" d="M304.06,266.74l-13.56-3.36a1.78,1.78,0,0,1-1.28-2.14L310.4,171a1.75,1.75,0,0,1,2.09-1.31l13.57,3.36a1.8,1.8,0,0,1,1.28,2.15l-21.19,90.21A1.73,1.73,0,0,1,304.06,266.74Z"/><path class="cls-1" d="M81.16,264.19,67.41,266a1.75,1.75,0,0,1-1.94-1.53L53.79,173a1.79,1.79,0,0,1,1.49-2L69,169.14A1.75,1.75,0,0,1,71,170.67l11.68,91.52A1.79,1.79,0,0,1,81.16,264.19Z"/><path class="cls-1" d="M59.61,267.75l-13.84,1.86a1.74,1.74,0,0,1-1.94-1.53l-11.74-92a1.76,1.76,0,0,1,1.49-2l13.84-1.87a1.76,1.76,0,0,1,1.94,1.54l11.74,92A1.78,1.78,0,0,1,59.61,267.75Z"/></svg>