<svg id="Layer_1" data-name="Layer 1" xmlns="http://www.w3.org/2000/svg" viewBox="0 0 400 400"><defs><style>.cls-1{fill:#f3e1ff;}.cls-2{fill:none;stroke:#000;stroke-miterlimit:10;stroke-width:6.34px;}</style></defs><circle class="cls-1" cx="194.16" cy="197.19" r="174.31"/><path class="cls-2" d="M122.88,218.68a745.06,745.06,0,0,1,143.06,1.72"/><path d="M196.12,151.92a15.35,15.35,0,1,1,12-12A15.36,15.36,0,0,1,196.12,151.92Z"/><path d="M157.73,209.49c7.41-12,15.27-30,16.94-29.27s-1.24,13-4.57,28.6l19.64-1.06a77.39,77.39,0,0,1,8.06,0l18.09,1c-3.36-15.61-6.13-28.06-4.62-28.69,1.72-.74,9.21,17.49,16.72,29.34l18.61,1c1.59-1.11-.38-2-.92-3.28-15.84-37.39-33-52.61-36.47-55.43h-1.93a20.77,20.77,0,0,1-10,5,21,21,0,0,1-18.08-4.88h-2.44C173.37,154.61,154.61,175,139,210.5Z"/><path d="M198.67,222.76a72.42,72.42,0,0,0-8.07,0l-38.46,2.07c.11,15.7.27,36.8.31,42.35.13,12.88,12.16.15,14.49-2.43a1.45,1.45,0,0,0,.37-1l-.84-33.29a2.17,2.17,0,0,1,3.09-2l10.24,7.36c3.6,6,22.44,5.88,26.56-.4l10.29-7a2.17,2.17,0,0,1,3.09,2l-.85,33.29a1.45,1.45,0,0,0,.37,1c2.33,2.58,14.34,15.31,14.46,2.43.07-5.57.22-26.8.34-42.51Z"/><path d="M270.61,249.25l.67.09a5,5,0,0,0,5.6-4.35l6.17-47.55a5.05,5.05,0,0,0-4.3-5.66l-.67-.09a5,5,0,0,0-5.61,4.35l-6.17,47.55A5.06,5.06,0,0,0,270.61,249.25Z"/><path d="M284.77,251.22l.55.07a5,5,0,0,0,5.6-4.35L297,200.07a5.05,5.05,0,0,0-4.3-5.66l-.55-.07a5,5,0,0,0-5.6,4.35l-6.08,46.87A5.05,5.05,0,0,0,284.77,251.22Z"/><path d="M298.62,253.35l.6.08a5,5,0,0,0,5.6-4.35l6.12-47.16a5.05,5.05,0,0,0-4.3-5.66l-.6-.08a5,5,0,0,0-5.6,4.35l-6.12,47.16A5.05,5.05,0,0,0,298.62,253.35Z"/><path d="M117.72,249.25l-.67.09a5,5,0,0,1-5.61-4.35l-6.17-47.55a5.06,5.06,0,0,1,4.31-5.66l.67-.09a5,5,0,0,1,5.6,4.35L122,243.59A5.05,5.05,0,0,1,117.72,249.25Z"/><path d="M103.55,251.22l-.54.07a5,5,0,0,1-5.6-4.35l-6.09-46.87a5.06,5.06,0,0,1,4.31-5.66l.54-.07a5,5,0,0,1,5.61,4.35l6.08,46.87A5.06,5.06,0,0,1,103.55,251.22Z"/><path d="M89.7,253.35l-.6.08a5,5,0,0,1-5.6-4.35l-6.12-47.16a5.05,5.05,0,0,1,4.31-5.66l.6-.08a5,5,0,0,1,5.6,4.35L94,247.69A5.06,5.06,0,0,1,89.7,253.35Z"/></svg>