<svg id="Layer_1" data-name="Layer 1" xmlns="http://www.w3.org/2000/svg" viewBox="0 0 400 400"><defs><style>.cls-1{fill:#f3e1ff;}.cls-2{fill:none;stroke:#000;stroke-linecap:round;stroke-miterlimit:10;stroke-width:9.08px;}</style></defs><circle class="cls-1" cx="200" cy="200" r="173.95"/><path d="M173.72,209.76l7.51-23.11a6.46,6.46,0,0,1,.28-.73l1-2.23a6.37,6.37,0,0,1,5.22-3.65l3.63-.32a6.36,6.36,0,0,1,6.86,5.48l1,7a6.27,6.27,0,0,1-.13,2.4h0a7.25,7.25,0,0,0,7.11,9l41.16-.51a6.3,6.3,0,0,1,3,.72l38.24,20a6.32,6.32,0,0,1,3,3.46l11.43,31.43a8.78,8.78,0,0,1-5.73,11.42h0a11.25,11.25,0,0,1-13.89-7.17L274.34,236a6.32,6.32,0,0,0-3.54-3.81l-17.38-7.38a6.44,6.44,0,0,0-2.6-.5l-67.77,1.19a6.37,6.37,0,0,1-6-3.86l-3.17-7.39A6.32,6.32,0,0,1,173.72,209.76Z"/><path d="M216,149.14a29.79,29.79,0,0,1-29.94,29.62c-.92,0-1.82,0-2.72-.12A29.64,29.64,0,1,1,216,149.14Z"/><ellipse cx="186.1" cy="149.14" rx="10.81" ry="10.06"/><rect x="151.05" y="245.68" width="14.13" height="32.44" rx="2.42"/><rect x="225.24" y="245.68" width="14.13" height="32.44" rx="3.7"/><rect x="135.96" y="234.76" width="118.83" height="11.56" rx="4.88"/><polyline class="cls-2" points="104.86 166.72 114.5 177.07 114.86 273.48"/><line class="cls-2" x1="124.84" y1="166.17" x2="114.5" y2="177.07"/><path d="M155.92,227.29a15.8,15.8,0,1,1,12.38-12.37A15.82,15.82,0,0,1,155.92,227.29Z"/></svg>