<svg id="Layer_1" data-name="Layer 1" xmlns="http://www.w3.org/2000/svg" xmlns:xlink="http://www.w3.org/1999/xlink" viewBox="0 0 400 400"><defs><style>.cls-1{fill:url(#linear-gradient);}.cls-2{fill:#fff;stroke:#9e005d;stroke-miterlimit:10;stroke-width:11.51px;}</style><linearGradient id="linear-gradient" x1="157.57" y1="387.68" x2="255.14" y2="-43.9" gradientUnits="userSpaceOnUse"><stop offset="0" stop-color="#fff"/><stop offset="1" stop-color="#a5d8ff"/></linearGradient></defs><ellipse class="cls-1" cx="200" cy="200" rx="192.53" ry="194.32"/><path class="cls-2" d="M97.1,222.77l-1.09.14a8.15,8.15,0,0,1-9.1-7.06l-10-77.22a8.2,8.2,0,0,1,7-9.19L85,129.3a8.15,8.15,0,0,1,9.1,7.06l10,77.22A8.21,8.21,0,0,1,97.1,222.77Z"/><path class="cls-2" d="M99.87,176.36a1105.17,1105.17,0,0,1,204.26,2.36"/><path class="cls-2" d="M337.76,234.57l-1.07-.26a8.22,8.22,0,0,1-6-9.89l18.07-75.7a8.14,8.14,0,0,1,9.79-6.05l1.07.26a8.23,8.23,0,0,1,6,9.89l-18.07,75.71A8.13,8.13,0,0,1,337.76,234.57Z"/><path class="cls-2" d="M319,228.86l-.87-.21a8.23,8.23,0,0,1-6-9.89l17.82-74.62a8.13,8.13,0,0,1,9.79-6l.86.21a8.22,8.22,0,0,1,6,9.88l-17.82,74.62A8.12,8.12,0,0,1,319,228.86Z"/><path class="cls-2" d="M297.85,224.37l-1-.23a8.23,8.23,0,0,1-6-9.89l17.93-75.08a8.13,8.13,0,0,1,9.79-6l.95.23a8.23,8.23,0,0,1,6,9.89l-17.93,75.09A8.13,8.13,0,0,1,297.85,224.37Z"/><path class="cls-2" d="M77.52,224.25l-.88.12a8.16,8.16,0,0,1-9.1-7.06L57.66,141.2a8.21,8.21,0,0,1,7-9.19l.89-.12a8.16,8.16,0,0,1,9.1,7.06l9.87,76.11A8.2,8.2,0,0,1,77.52,224.25Z"/><path class="cls-2" d="M56.23,227.71l-1,.13a8.15,8.15,0,0,1-9.1-7.06l-9.94-76.59a8.21,8.21,0,0,1,7-9.19l1-.13a8.16,8.16,0,0,1,9.09,7.06l9.94,76.59A8.21,8.21,0,0,1,56.23,227.71Z"/><path class="cls-2" d="M175.94,152c0-13.48,10.45-24.45,23.31-24.45s23.35,11,23.35,24.45-10.46,24.5-23.35,24.5S175.94,165.56,175.94,152Z"/><path class="cls-2" d="M112.24,169.1c0-6.29,4.75-11.39,10.57-11.39s10.6,5.1,10.6,11.39a5.24,5.24,0,0,1,0,.56l-21.12-.12A2.17,2.17,0,0,1,112.24,169.1Z"/><path class="cls-2" d="M264.62,169.07c0-6.29,4.75-11.39,10.57-11.39s10.59,5.1,10.59,11.39a5.24,5.24,0,0,1,0,.56l-21.12-.12A3.24,3.24,0,0,1,264.62,169.07Z"/><path class="cls-2" d="M218.7,215.42c-.37,2.58.92,9.64,3,19.1l20.1,48.32-2,43.19-10.38,6.39-9.2-5.57L221.77,284l-18.4-30.78-8.39-.81-8.42.77L169.38,284,171,326.85l-9.2,5.57L151.38,326l-2-43.19,18.48-48.32v0c2-9.46,3.28-16.48,2.91-19.06,0-1.41-.14-2.26-.55-2.44a4.2,4.2,0,0,0-.7-.22c-6.8-1.85-59.56,10.34-59.34-38.46,0-12.45,19-2.26,19.7.22,7.64,25.38,37.09,5.65,41.78,3.32a17.54,17.54,0,0,1,7.87-1.92l15.22.08h1l14.18-.08a17.39,17.39,0,0,1,7.87,1.92c4.73,2.33,34.14,22.06,41.79-3.32.77-2.48,19.65-12.67,19.73-.22.18,48.8-52.58,36.61-59.37,38.46a4.07,4.07,0,0,0-.71.22C218.85,213.16,218.66,214,218.7,215.42Z"/><path class="cls-2" d="M171.69,152.57c0-13.48,10.46-24.46,23.32-24.46s23.35,11,23.35,24.46-10.46,24.5-23.35,24.5S171.69,166.09,171.69,152.57Z"/></svg>