<svg id="Layer_1" data-name="Layer 1" xmlns="http://www.w3.org/2000/svg" viewBox="0 0 400 400"><defs><style>.cls-1{fill:#f3e1ff;}</style></defs><circle class="cls-1" cx="200" cy="200" r="173.72"/><path d="M203.09,156.61a15.81,15.81,0,1,1,12.38-12.37A15.82,15.82,0,0,1,203.09,156.61Z"/><path d="M179.21,142q-29.93.3-59.86,2.68l.57,7.23q29.88-2.37,59.83-2.66A20.77,20.77,0,0,1,179.21,142Z"/><path d="M220.23,142.55a21.06,21.06,0,0,1-.33,5.67c-.1.53-.23,1.05-.37,1.57Q251.42,151,283,154.5l.81-7.21Q252.23,143.72,220.23,142.55Z"/><path d="M255.49,155.6c-6.59,21.57-31.55,5.54-35.57,3.54a14.72,14.72,0,0,0-6.69-1.66H212a20.24,20.24,0,0,1-8.26,3.66,20.67,20.67,0,0,1-14.47-2.43,7.34,7.34,0,0,0-5.52-.89,17,17,0,0,0-3.12,1.17c-3.81,1.87-27.59,14-35.4-3.48a3.64,3.64,0,0,0-3.52-2.12q-6.28.35-12.55.79a1.72,1.72,0,0,0-.83,1.59c5.69,41.14,44.58,31.33,50.36,32.92a4.13,4.13,0,0,1,.59.19c.35.16.5.88.47,2.08.3,2.2-.79,8.17-2.55,16.21v0l-15.3,39.57a7.79,7.79,0,0,0-.51,3.09L162.74,281a7.63,7.63,0,0,0,3.6,6.16l1.42.88a7.65,7.65,0,0,0,8,.06h0a7.64,7.64,0,0,0,3.7-6.8l-1-29.82a7.57,7.57,0,0,1,1-4l11.7-20.79a7.6,7.6,0,0,1,6-3.86l2.44-.22a7.7,7.7,0,0,1,1.44,0l2.58.26a7.63,7.63,0,0,1,5.8,3.71l12.43,21a7.59,7.59,0,0,1,1.07,4.21l-1.22,29.68a7.65,7.65,0,0,0,3.64,6.83h0a7.64,7.64,0,0,0,8,0l1.42-.87a7.6,7.6,0,0,0,3.65-6.13l1.55-31a7.53,7.53,0,0,0-.56-3.28l-16-39a8.78,8.78,0,0,1-.41-1.35c-1.61-7.7-2.62-13.43-2.31-15.56,0-1.2.14-1.92.48-2.08a3.73,3.73,0,0,1,.6-.18c5.26-1.41,35.7,5.26,48.22-23.29a64.52,64.52,0,0,0,3.08-7.75c.53-2.2-7.62-2.15-9.63-2.42-2.19-.29-4.41-.39-6.63-.57C256,155,255.59,155.3,255.49,155.6Z"/><path d="M288.34,178.78l.69.09a5.15,5.15,0,0,0,5.76-4.47l6.35-48.95a5.19,5.19,0,0,0-4.43-5.82l-.69-.1a5.17,5.17,0,0,0-5.76,4.48l-6.35,49A5.19,5.19,0,0,0,288.34,178.78Z"/><path d="M302.92,180.81l.56.07a5.16,5.16,0,0,0,5.76-4.47l6.26-48.25a5.19,5.19,0,0,0-4.43-5.82l-.56-.08a5.17,5.17,0,0,0-5.77,4.48L298.49,175A5.2,5.2,0,0,0,302.92,180.81Z"/><path d="M317.17,183l.62.08a5.17,5.17,0,0,0,5.77-4.47l6.29-48.55a5.2,5.2,0,0,0-4.43-5.83l-.61-.08a5.17,5.17,0,0,0-5.77,4.48l-6.3,48.55A5.2,5.2,0,0,0,317.17,183Z"/><path d="M114,178.78l-.69.09a5.17,5.17,0,0,1-5.77-4.47l-6.35-48.95a5.2,5.2,0,0,1,4.43-5.82l.69-.1a5.17,5.17,0,0,1,5.77,4.48l6.35,49A5.2,5.2,0,0,1,114,178.78Z"/><path d="M99.4,180.81l-.56.07a5.17,5.17,0,0,1-5.77-4.47l-6.26-48.25a5.2,5.2,0,0,1,4.43-5.82l.56-.08a5.17,5.17,0,0,1,5.77,4.48L103.83,175A5.21,5.21,0,0,1,99.4,180.81Z"/><path d="M85.14,183l-.61.08a5.17,5.17,0,0,1-5.77-4.47l-6.3-48.55a5.21,5.21,0,0,1,4.43-5.83l.62-.08a5.18,5.18,0,0,1,5.77,4.48l6.29,48.55A5.19,5.19,0,0,1,85.14,183Z"/></svg>