<svg id="Layer_1" data-name="Layer 1" xmlns="http://www.w3.org/2000/svg" xmlns:xlink="http://www.w3.org/1999/xlink" viewBox="0 0 400 400"><defs><style>.cls-1{fill:url(#linear-gradient);}.cls-2{fill:#fff;stroke:#9e005d;stroke-miterlimit:10;stroke-width:12.41px;}</style><linearGradient id="linear-gradient" x1="157.75" y1="388.38" x2="255.33" y2="-43.2" gradientUnits="userSpaceOnUse"><stop offset="0" stop-color="#fff"/><stop offset="1" stop-color="#a5d8ff"/></linearGradient></defs><ellipse class="cls-1" cx="200.18" cy="200.7" rx="192.53" ry="194.32"/><path class="cls-2" d="M264,236.52c-13,3-35.55-57.06-39.27-55.48-4.86,2.08,21.44,89.51,18,121-1.15,10.76-16.85,7.59-19.62,1.7-10.87-22.94-17-85.32-22.94-85.77a11,11,0,0,1-.19-2.19,10.35,10.35,0,0,1-.16,2.39c-5.93.45-14.67,62.87-25.55,85.82-2.77,5.89-18.47,9.06-19.61-1.71-3.44-31.51,22.85-118.95,18-121-3.72-1.59-26.26,58.44-39.27,55.47s-10.79-14.49-9.69-17.13c25.27-59.26,52.84-79.2,52.84-79.2l21.27.41v-.21l23.1-.44s27.56,19.94,52.79,79.19C274.8,222,277,233.56,264,236.52Z"/><path class="cls-2" d="M173.29,118.87c0-14.83,11.19-26.89,25-26.89s25,12.06,25,26.89-11.19,26.92-25,26.92S173.29,133.73,173.29,118.87Z"/><path class="cls-2" d="M101.16,263.36l-14,1.88a1.74,1.74,0,0,1-1.94-1.53L73.44,171.05a1.77,1.77,0,0,1,1.49-2l14-1.88a1.75,1.75,0,0,1,1.94,1.53l11.82,92.66A1.77,1.77,0,0,1,101.16,263.36Z"/><path class="cls-2" d="M97.54,216.47A1100.45,1100.45,0,0,1,304.3,218.9"/><path class="cls-2" d="M344.64,277.94,331,274.55a1.79,1.79,0,0,1-1.28-2.15L351,181.55a1.73,1.73,0,0,1,2.08-1.31l13.69,3.39a1.79,1.79,0,0,1,1.27,2.15l-21.33,90.84A1.75,1.75,0,0,1,344.64,277.94Z"/><path class="cls-2" d="M325.61,272.06l-13.48-3.34a1.78,1.78,0,0,1-1.28-2.14l21.07-89.73a1.74,1.74,0,0,1,2.09-1.31l13.48,3.33a1.79,1.79,0,0,1,1.28,2.15L327.7,270.75A1.74,1.74,0,0,1,325.61,272.06Z"/><path class="cls-2" d="M304.25,267.44l-13.57-3.36a1.78,1.78,0,0,1-1.28-2.14l21.19-90.21a1.73,1.73,0,0,1,2.08-1.31l13.57,3.36a1.78,1.78,0,0,1,1.28,2.14l-21.19,90.21A1.73,1.73,0,0,1,304.25,267.44Z"/><path class="cls-2" d="M81.34,264.89l-13.75,1.85a1.75,1.75,0,0,1-1.94-1.53L54,173.69a1.77,1.77,0,0,1,1.49-2l13.75-1.85a1.74,1.74,0,0,1,1.94,1.53L82.83,262.9A1.77,1.77,0,0,1,81.34,264.89Z"/><path class="cls-2" d="M59.79,268.45,46,270.31A1.75,1.75,0,0,1,44,268.78l-11.74-92a1.78,1.78,0,0,1,1.49-2l13.84-1.86a1.75,1.75,0,0,1,1.94,1.53l11.74,92A1.78,1.78,0,0,1,59.79,268.45Z"/></svg>