<svg id="Layer_1" data-name="Layer 1" xmlns="http://www.w3.org/2000/svg" viewBox="0 0 400 400"><defs><style>.cls-1{fill:#f3e1ff;}.cls-2{fill:none;stroke:#000;stroke-miterlimit:10;stroke-width:5.94px;}</style></defs><circle class="cls-1" cx="202.11" cy="195.87" r="174.49"/><path d="M211.14,175.27c-15.29,11.76-32.74-5.66-21-21C205.52,142.54,222.91,160,211.14,175.27Z"/><path d="M221.58,229a2.76,2.76,0,0,1-.16-.51c-1.57-7.32-2.56-12.78-2.27-14.8,0-1.1.11-1.77.43-1.92.12-.06-.06-1.7.18-1.76,5.28-1.43,30.05-26.7,30.62-64.29l-12-.9c-6.26,19.17-16.47,41-19.94,39.24a13.59,13.59,0,0,0-6.21-1.51l-11.19,0h-.81l-12,0a13.64,13.64,0,0,0-6.2,1.51c-3.5,1.73-11.65-20.19-17.62-39.5l-13.75,1c0,38.3,24.33,64.54,29.68,66a3.21,3.21,0,0,1,.55.18c.32.15.47.82.44,1.92.29,2-.7,7.58-2.31,15v0l-14.35,37.54a3.09,3.09,0,0,0-.19,1.17l1.43,30.39a2.92,2.92,0,0,0,2.91,2.78h9.63a2.9,2.9,0,0,0,2.9-3l-1.07-29a3,3,0,0,1,.36-1.52l12.41-22.25a2.92,2.92,0,0,1,2.27-1.48l4.85-.45h.54l4.88.48a2.93,2.93,0,0,1,2.22,1.4l13.31,22.27a2.9,2.9,0,0,1,.41,1.6l-1.07,29a2.91,2.91,0,0,0,2.91,3H233a2.92,2.92,0,0,0,2.91-2.78l1.4-30.34a3,3,0,0,0-.22-1.25Z"/><path class="cls-2" d="M135,139.07a697.67,697.67,0,0,1,133.87,1.61"/><path d="M275,172l.74.09a5.54,5.54,0,0,0,6.19-4.8l6.81-52.51A5.57,5.57,0,0,0,284,108.5l-.74-.1a5.55,5.55,0,0,0-6.19,4.8l-6.81,52.52A5.58,5.58,0,0,0,275,172Z"/><path d="M290.66,174.14l.6.08a5.55,5.55,0,0,0,6.19-4.8l6.71-51.77a5.57,5.57,0,0,0-4.75-6.25l-.6-.08a5.56,5.56,0,0,0-6.19,4.81l-6.72,51.76A5.59,5.59,0,0,0,290.66,174.14Z"/><path d="M306,176.49l.66.09a5.54,5.54,0,0,0,6.19-4.8l6.76-52.09a5.59,5.59,0,0,0-4.75-6.25l-.67-.09a5.54,5.54,0,0,0-6.18,4.8l-6.76,52.09A5.57,5.57,0,0,0,306,176.49Z"/><path d="M130.56,172l-.74.09a5.53,5.53,0,0,1-6.18-4.8l-6.82-52.51a5.58,5.58,0,0,1,4.76-6.25l.74-.1a5.53,5.53,0,0,1,6.18,4.8l6.82,52.52A5.59,5.59,0,0,1,130.56,172Z"/><path d="M114.92,174.14l-.6.08a5.55,5.55,0,0,1-6.19-4.8l-6.71-51.77a5.57,5.57,0,0,1,4.75-6.25l.6-.08a5.56,5.56,0,0,1,6.19,4.81l6.71,51.76A5.57,5.57,0,0,1,114.92,174.14Z"/><path d="M99.63,176.49l-.67.09a5.53,5.53,0,0,1-6.18-4.8L86,119.69a5.57,5.57,0,0,1,4.75-6.25l.66-.09a5.55,5.55,0,0,1,6.19,4.8l6.76,52.09A5.59,5.59,0,0,1,99.63,176.49Z"/></svg>