<svg id="Layer_1" data-name="Layer 1" xmlns="http://www.w3.org/2000/svg" viewBox="0 0 400 400"><defs><style>.cls-1{fill:#f3e1ff;}.cls-2{fill:none;stroke:#000;stroke-miterlimit:10;stroke-width:7.43px;}</style></defs><circle class="cls-1" cx="200" cy="200" r="174.86"/><path d="M207,143.57c-15.29,11.76-32.74-5.66-21-21C201.36,110.83,218.74,128.29,207,143.57Z"/><path d="M207.46,151.68c3.52-.06,6.6,1.65,9.45,3.71,8.64,6.23,25.59,24.86,35.11,57,.36,1.23-4.74,1.53-9.09,1.57-3.61,0-7.55-1.56-8.82-4.94-6.36-17-16.46-27-18.61-26.07-3.05,1.3,7.5,62.61,12.28,84.76,1.49,6.9-2.27,8.33-6.62,8.7l-.39,0c-3.71.32-6.77.05-7.86-5.81-2.93-15.85-12.15-55.55-15.58-59a2.62,2.62,0,0,1-.78-1.7l0-.35c0,.09,0,.17,0,.25a3.24,3.24,0,0,1-.89,2.07c-3.91,4.4-15.14,50.11-18.09,62.31a3.55,3.55,0,0,1-3.78,2.71l-8-.69a3.57,3.57,0,0,1-3.2-4.23c3.32-17.48,16.5-88.07,13.05-88.87-4.21-1-19.8,21.91-23.33,28.5a3.58,3.58,0,0,1-3,1.91c-3.8.21-10.9.4-10.49-1.16,10-37.82,28-50.93,35.89-57.27a14.57,14.57,0,0,1,9.41-3.19l10.75.2"/><path class="cls-2" d="M115.2,220.72a873,873,0,0,1,167.56,2"/><path d="M290.4,261.88l.92.13a7,7,0,0,0,7.75-6l8.52-65.73a7,7,0,0,0-5.94-7.82l-.93-.13a7,7,0,0,0-7.75,6l-8.52,65.73A7,7,0,0,0,290.4,261.88Z"/><path d="M310,264.6l.76.1a6.93,6.93,0,0,0,7.74-6l8.41-64.78a7,7,0,0,0-5.95-7.83l-.76-.1a7,7,0,0,0-7.74,6L304,256.78A7,7,0,0,0,310,264.6Z"/><path d="M329.12,267.55l.83.11a6.94,6.94,0,0,0,7.74-6l8.46-65.19a7,7,0,0,0-5.95-7.83l-.83-.11a7,7,0,0,0-7.74,6l-8.46,65.2A7,7,0,0,0,329.12,267.55Z"/><path d="M109.6,261.88l-.92.13a7,7,0,0,1-7.75-6l-8.52-65.73a7,7,0,0,1,5.94-7.82l.93-.13a7,7,0,0,1,7.75,6l8.52,65.73A7,7,0,0,1,109.6,261.88Z"/><path d="M90,264.6l-.76.1a6.93,6.93,0,0,1-7.74-6l-8.41-64.78a7,7,0,0,1,5.95-7.83l.76-.1a7,7,0,0,1,7.74,6L96,256.78A7,7,0,0,1,90,264.6Z"/><path d="M70.88,267.55l-.83.11a6.94,6.94,0,0,1-7.74-6l-8.46-65.19a7,7,0,0,1,5.95-7.83l.83-.11a7,7,0,0,1,7.74,6l8.46,65.2A7,7,0,0,1,70.88,267.55Z"/></svg>