<?xml version="1.0" encoding="utf-8"?>
<!-- Generator: Adobe Illustrator 26.0.2, SVG Export Plug-In . SVG Version: 6.00 Build 0)  -->
<svg version="1.1" id="Layer_1" xmlns="http://www.w3.org/2000/svg" xmlns:xlink="http://www.w3.org/1999/xlink" x="0px" y="0px"
	 viewBox="0 0 1760.9 571.9" style="enable-background:new 0 0 1760.9 571.9;" xml:space="preserve">
<style type="text/css">
	.st0{fill:url(#SVGID_1_);}
	.st1{fill:none;stroke:#9E005D;stroke-width:7.1955;stroke-miterlimit:10;}
	.st2{fill:none;stroke:#9E005D;stroke-width:10.5651;stroke-miterlimit:10;}
	.st3{fill:#9E005D;}
	.st4{fill:#29ABE2;}
	.st5{clip-path:url(#SVGID_00000027591491469151393440000002766173424864849086_);}
	.st6{fill:#A5D8FF;}
	.st7{fill:none;stroke:#FFFFFF;stroke-width:10.2431;stroke-miterlimit:10;}
	.st8{fill:none;stroke:#FFFFFF;stroke-width:9.5936;stroke-miterlimit:10;}
	.st9{fill:none;stroke:#FFFFFF;stroke-width:10.1213;stroke-miterlimit:10;}
	.st10{fill:none;stroke:#FFFFFF;stroke-width:10.1754;stroke-miterlimit:10;}
	.st11{fill:none;stroke:#FFFFFF;stroke-width:9.0253;stroke-miterlimit:10;}
	.st12{fill:none;stroke:#FFFFFF;stroke-width:15.6961;stroke-miterlimit:10;}
	.st13{clip-path:url(#SVGID_00000114058165726232844750000000093255415106439830_);}
</style>
<g>
	
		<linearGradient id="SVGID_1_" gradientUnits="userSpaceOnUse" x1="884.8858" y1="130.5842" x2="899.4145" y2="475.8658" gradientTransform="matrix(1 0 0 -1 0 553.2608)">
		<stop  offset="0" style="stop-color:#FFFFFF"/>
		<stop  offset="1" style="stop-color:#A5D8FF"/>
	</linearGradient>
	<rect x="525.8" y="190.7" class="st0" width="730.8" height="162.3"/>
	<g id="Layer_1_00000171695063235142997500000003818680472352850070_">
		<line class="st1" x1="503.2" y1="192" x2="1246.7" y2="192"/>
		<line class="st2" x1="525.6" y1="340.3" x2="1229.5" y2="340.3"/>
		<g>
			<circle class="st3" cx="281.4" cy="278.4" r="266.9"/>
			<circle class="st4" cx="280.5" cy="294.8" r="247.3"/>
			<g>
				<g>
					<defs>
						<ellipse id="SVGID_00000156576236859038443930000011980959786166621827_" cx="281.1" cy="326.9" rx="228.5" ry="233.5"/>
					</defs>
					<clipPath id="SVGID_00000117661594623181816790000000396431109425940116_">
						<use xlink:href="#SVGID_00000156576236859038443930000011980959786166621827_"  style="overflow:visible;"/>
					</clipPath>
					<g style="clip-path:url(#SVGID_00000117661594623181816790000000396431109425940116_);">
						<ellipse class="st6" cx="284.6" cy="325.7" rx="226.1" ry="228.8"/>
						<g>
							<path class="st7" d="M158.5,325.8l-1.3,0.1c-5.4,0.7-10.4-3.3-11-8.7L134,222.4c-0.7-5.4,3.1-10.5,8.5-11.3l1.3-0.1
								c5.4-0.7,10.4,3.3,11,8.7l12.1,94.9C167.6,320,163.9,325,158.5,325.8z"/>
							<path class="st8" d="M161.8,268.8c82.6-6.8,165.7-5.9,248,2.9"/>
							<path class="st7" d="M450.7,340.3l-1.3-0.3c-5.2-1.4-8.6-6.8-7.3-12.1l21.9-93.1c1.2-5.3,6.6-8.7,11.8-7.5l0,0l1.3,0.3
								c5.2,1.4,8.6,6.8,7.3,12.1l-21.9,93.1C461.4,338.2,456,341.6,450.7,340.3L450.7,340.3z"/>
							<path class="st9" d="M427.9,333.3l-1.1-0.3c-5.2-1.4-8.5-6.8-7.3-12.1l21.7-91.8c1.2-5.4,6.6-8.7,11.8-7.5l1.1,0.3
								c5.2,1.4,8.5,6.8,7.3,12.1l-21.7,91.8C438.5,331.1,433.1,334.5,427.9,333.3L427.9,333.3z"/>
							<path class="st10" d="M402.2,327.7l-1.2-0.3c-5.2-1.4-8.6-6.8-7.3-12.1l21.8-92.3c1.2-5.3,6.6-8.7,11.8-7.5l1.2,0.3
								c5.2,1.4,8.6,6.8,7.3,12.1L414,320.2C412.8,325.7,407.6,329.1,402.2,327.7z"/>
							<path class="st9" d="M134.7,327.6l-1.1,0.1c-5.4,0.7-10.4-3.1-11-8.7l-12-93.5c-0.7-5.4,3.1-10.5,8.5-11.3l1.1-0.1
								c5.4-0.7,10.4,3.1,11,8.7l12,93.5C143.8,321.7,140.1,326.8,134.7,327.6z"/>
							<path class="st10" d="M108.9,331.8l-1.2,0.1c-5.4,0.7-10.4-3.3-11-8.7L84.5,229c-0.7-5.4,3.1-10.5,8.5-11.3l1.2-0.1
								c5.4-0.7,10.4,3.3,11,8.7l12.1,94.2C118,326.1,114.2,331.1,108.9,331.8z"/>
							<path class="st11" d="M190.8,263.3c0-7.8,5.8-14,12.9-14s12.9,6.3,12.9,14c0,0.3,0,0.4,0,0.7l-25.7-0.1
								C190.8,263.7,190.8,263.6,190.8,263.3z"/>
							<path class="st11" d="M350.1,260.9c0-7.8,5.8-14,12.8-14s12.9,6.3,12.9,14c0,0.3,0,0.4,0,0.7l-25.7-0.1
								C350.1,261.2,350.1,261,350.1,260.9z"/>
							<path class="st12" d="M314.9,407c-0.5,3.7,1.3,13.7,4.2,27.2l28.4,68.9l-2.8,61.7l-14.7,9.1l-12.9-7.9l2.3-61.1l-26-43.8
								l-11.8-1.2l-11.8,1.1l-24.2,44l2.3,61l-12.9,7.9l-14.7-9.1l-2.8-61.5l26-68.9l0,0c2.8-13.5,4.6-23.6,4.2-27.2
								c0-2-0.3-3.3-0.8-3.5c-0.3-0.1-0.7-0.3-0.9-0.3c-9.5-2.6-53.3-50.4-53-119.9c0-17.7,21.7-10.9,22.7-7.4
								c10.8,36.2,26.6,80.7,33.4,77.5c3.4-1.8,7.3-2.7,11-2.7l21.4,0.1h1.5l20-0.1c3.9,0,7.7,1,11,2.7c6.6,3.3,27.2-42.3,37.9-78.5
								c1.1-3.5,19-11.4,19.1,6.3c0.3,69.6-45.2,116.5-54.7,119.1c-0.4,0.1-0.1,3.1-0.3,3.1C315,403.8,314.8,405,314.9,407z"/>
							<path class="st12" d="M248.7,317.4c0-19.2,14.7-34.8,32.8-34.8c18.2,0,32.8,15.7,32.8,34.8c0,19.2-14.7,35-32.8,35
								C263.4,352.4,248.7,336.7,248.7,317.4z"/>
						</g>
					</g>
				</g>
			</g>
		</g>
		<g>
			<circle class="st3" cx="1479.1" cy="278.4" r="266.9"/>
			<circle class="st4" cx="1478.2" cy="294.8" r="247.3"/>
			<g>
				<g>
					<defs>
						<ellipse id="SVGID_00000144324510908581193320000001068216700984828832_" cx="1478.8" cy="326.9" rx="228.5" ry="233.5"/>
					</defs>
					<clipPath id="SVGID_00000008138409809186240170000016745083740551527304_">
						<use xlink:href="#SVGID_00000144324510908581193320000001068216700984828832_"  style="overflow:visible;"/>
					</clipPath>
					<g style="clip-path:url(#SVGID_00000008138409809186240170000016745083740551527304_);">
						<ellipse class="st6" cx="1482.3" cy="325.7" rx="226.1" ry="228.8"/>
						<g>
							<path class="st7" d="M1356.2,325.8l-1.3,0.1c-5.4,0.7-10.4-3.3-11-8.7l-12.1-94.9c-0.7-5.4,3.1-10.5,8.5-11.3l1.3-0.1
								c5.4-0.7,10.4,3.3,11,8.7l12.1,94.9C1365.3,320,1361.6,325,1356.2,325.8z"/>
							<path class="st8" d="M1359.5,268.8c82.6-6.8,165.7-5.9,248,2.9"/>
							<path class="st7" d="M1648.4,340.3l-1.3-0.3c-5.2-1.4-8.6-6.8-7.3-12.1l21.9-93.1c1.2-5.3,6.6-8.7,11.8-7.5l0,0l1.3,0.3
								c5.2,1.4,8.6,6.8,7.3,12.1l-21.9,93.1C1659.1,338.2,1653.7,341.6,1648.4,340.3L1648.4,340.3z"/>
							<path class="st9" d="M1625.6,333.3l-1.1-0.3c-5.2-1.4-8.5-6.8-7.3-12.1l21.7-91.8c1.2-5.4,6.6-8.7,11.8-7.5l1.1,0.3
								c5.2,1.4,8.5,6.8,7.3,12.1l-21.7,91.8C1636.2,331.1,1630.8,334.5,1625.6,333.3L1625.6,333.3z"/>
							<path class="st10" d="M1599.9,327.7l-1.2-0.3c-5.2-1.4-8.6-6.8-7.3-12.1l21.8-92.3c1.2-5.3,6.6-8.7,11.8-7.5l1.2,0.3
								c5.2,1.4,8.6,6.8,7.3,12.1l-21.8,92.3C1610.5,325.7,1605.3,329.1,1599.9,327.7z"/>
							<path class="st9" d="M1332.4,327.6l-1.1,0.1c-5.4,0.7-10.4-3.1-11-8.7l-12-93.5c-0.7-5.4,3.1-10.5,8.5-11.3l1.1-0.1
								c5.4-0.7,10.4,3.1,11,8.7l12,93.5C1341.5,321.7,1337.7,326.8,1332.4,327.6z"/>
							<path class="st10" d="M1306.5,331.8l-1.2,0.1c-5.4,0.7-10.4-3.3-11-8.7l-12.1-94.2c-0.7-5.4,3.1-10.5,8.5-11.3l1.2-0.1
								c5.4-0.7,10.4,3.3,11,8.7l12.1,94.2C1315.7,326.1,1311.9,331.1,1306.5,331.8z"/>
							<path class="st11" d="M1388.5,263.3c0-7.8,5.8-14,12.9-14c7.1,0,12.9,6.3,12.9,14c0,0.3,0,0.4,0,0.7l-25.7-0.1
								C1388.5,263.7,1388.5,263.6,1388.5,263.3z"/>
							<path class="st11" d="M1547.8,260.9c0-7.8,5.8-14,12.8-14c7,0,12.9,6.3,12.9,14c0,0.3,0,0.4,0,0.7l-25.7-0.1
								C1547.8,261.2,1547.8,261,1547.8,260.9z"/>
							<path class="st12" d="M1512.6,407c-0.5,3.7,1.3,13.7,4.2,27.2l28.4,68.9l-2.8,61.7l-14.7,9.1l-12.9-7.9l2.3-61.1l-26-43.8
								l-11.8-1.2l-11.8,1.1l-24.2,44l2.3,61l-12.9,7.9l-14.7-9.1l-2.8-61.5l26-68.9l0,0c2.8-13.5,4.6-23.6,4.2-27.2
								c0-2-0.3-3.3-0.8-3.5c-0.3-0.1-0.7-0.3-0.9-0.3c-9.5-2.6-53.3-50.4-53-119.9c0-17.7,21.7-10.9,22.7-7.4
								c10.8,36.2,26.6,80.7,33.4,77.5c3.4-1.8,7.3-2.7,11-2.7l21.4,0.1h1.5l20-0.1c3.9,0,7.7,1,11,2.7c6.6,3.3,27.2-42.3,37.9-78.5
								c1.1-3.5,19-11.4,19.1,6.3c0.3,69.6-45.2,116.5-54.7,119.1c-0.4,0.1-0.1,3.1-0.3,3.1C1512.7,403.8,1512.5,405,1512.6,407z"/>
							<path class="st12" d="M1446.4,317.4c0-19.2,14.7-34.8,32.8-34.8c18.2,0,32.8,15.7,32.8,34.8c0,19.2-14.7,35-32.8,35
								C1461.1,352.4,1446.4,336.7,1446.4,317.4z"/>
						</g>
					</g>
				</g>
			</g>
		</g>
		<path d="M588.3,204.4v100.1c0,3.9,1,6.8,3,8.7c2,1.9,5.1,2.8,9.3,2.9h47l1,14.2c-8.5,0.6-17.1,1-25.9,1.1s-17.5,0.2-26.2,0.2
			c-9.6,0-16.6-2.3-20.7-6.9c-4.2-4.6-6.3-10.4-6.3-17.4V204.4H588.3z"/>
		<path d="M680.7,203.1c3.7,0,5.5,1.8,5.5,5.3v10.5c0,3.6-1.8,5.3-5.5,5.3h-8.6c-3.7,0-5.5-1.8-5.5-5.3v-10.5c0-3.6,1.8-5.3,5.5-5.3
			H680.7z M685.5,241.6v89.8h-18.1v-89.8L685.5,241.6L685.5,241.6z"/>
		<path d="M769.5,241.6v13.2h-64.1v-12.3l17.5-0.9H769.5z M750,199.3c2,0,4.7,0.1,8,0.2s6.7,0.3,10,0.5c3.4,0.2,6.3,0.5,8.8,0.8
			l-1.5,12.7h-18.9c-5.8,0-9.9,1.1-12.3,3.4c-2.4,2.3-3.5,6-3.5,11.1v103.4h-18.4V226c-0.1-4.9,0.8-9.8,2.7-14.4
			c1.8-3.9,4.9-7.2,8.8-9.1C737.6,200.3,743.1,199.3,750,199.3z"/>
		<path d="M842.4,241.6v13.2h-64.1v-12.3l18.3-0.9H842.4z M813.5,215.3v90.5c0,4.2,0.9,7.1,2.8,8.9c1.8,1.8,5,2.7,9.4,2.7h13.7
			l2.1,13.1c-2.4,0.7-4.8,1.2-7.3,1.5c-2.7,0.4-5.5,0.6-8.2,0.8s-4.9,0.3-6.6,0.3c-7.9,0-13.9-2.1-18.1-6.3s-6.3-10.2-6.3-18v-93.5
			H813.5z"/>
		<path d="M977.8,204.4l-1,15.3h-55l-1.8,32.6l15,1.3c7.4,0.4,14.7,1.6,21.8,3.5c5.2,1.4,10.1,3.9,14.4,7.3c3.7,3.1,6.4,7.2,8,11.8
			c1.8,5.5,2.6,11.2,2.5,17c0,5.1-0.6,10.1-1.7,15.1c-1.1,4.7-3.2,9.1-6.3,12.9c-3,3.8-7.4,6.8-13,9.1c-5.6,2.3-13,3.4-22.2,3.4
			c-6.2,0-12.3-0.4-18.5-1.1c-7-0.7-14.1-1.8-21.5-3.3l2.1-14.7c6,1,11.9,1.8,17.9,2.3s11.2,0.8,15.6,0.8c8,0,14-1,18.1-2.9
			c3.8-1.6,6.8-4.6,8.4-8.4c1.6-4.3,2.5-8.8,2.5-13.4c0.1-5.5-0.6-9.9-2.1-13.1s-4.1-5.7-7.2-7.2c-4.2-1.8-8.6-2.9-13.1-3.3
			c-5.4-0.6-12.1-1.2-20-1.6l-10.1-0.7c-2-0.3-3.8-1.2-5.1-2.6c-1.3-1.4-1.9-3.3-1.7-5.2l3-54.8L977.8,204.4L977.8,204.4z"/>
		<path d="M1017.4,241.6l27.6,43.6l-29.7,46.2h-19.6l30.6-46.2l-28.5-43.6L1017.4,241.6L1017.4,241.6z M1053.5,278.2v13.1h-21.7
			v-13.1H1053.5z M1087.4,241.6l-28.5,43.6l30.8,46.2h-19.6l-29.9-46.2l27.6-43.6L1087.4,241.6z"/>
		<path d="M1182.1,204.4l-1,15.3h-55l-1.9,32.6l15,1.3c7.4,0.4,14.7,1.6,21.8,3.5c5.2,1.4,10.1,3.9,14.4,7.3c3.7,3.1,6.4,7.2,8,11.8
			c1.8,5.5,2.6,11.2,2.5,17c0,5.1-0.6,10.1-1.7,15.1c-1.1,4.7-3.2,9.1-6.3,12.9c-3.5,4.1-8,7.2-13,9.1c-5.7,2.3-13,3.4-22.2,3.4
			c-6.2-0.1-12.3-0.4-18.5-1.1c-7-0.7-14.1-1.8-21.5-3.3l2.1-14.7c6,1,11.9,1.8,17.9,2.3s11.2,0.8,15.6,0.8c8,0,14-1,18.1-2.9
			c3.8-1.6,6.8-4.6,8.4-8.4c1.6-4.3,2.5-8.8,2.5-13.4c0.1-5.5-0.6-9.9-2.1-13.1c-1.5-3.1-4-5.7-7.1-7.1c-4.2-1.8-8.6-2.9-13.1-3.3
			c-5.5-0.6-12.1-1.2-20-1.6l-10.1-0.7c-1.9-0.3-3.8-1.2-5.1-2.6c-1.3-1.4-1.9-3.3-1.7-5.2l3-54.8L1182.1,204.4z"/>
	</g>
</g>
</svg>
